M48
; DRILL file {KiCad 6.0.7-f9a2dced07~116~ubuntu22.04.1} date 2022-09-20T02:40:26 EEST
; FORMAT={-:-/ absolute / metric / decimal}
; #@! TF.CreationDate,2022-09-20T02:40:26+03:00
; #@! TF.GenerationSoftware,Kicad,Pcbnew,6.0.7-f9a2dced07~116~ubuntu22.04.1
; #@! TF.FileFunction,Plated,1,2,PTH
FMAT,2
METRIC
; #@! TA.AperFunction,Plated,PTH,ComponentDrill
T1C0.750
; #@! TA.AperFunction,Plated,PTH,ComponentDrill
T2C0.800
; #@! TA.AperFunction,Plated,PTH,ComponentDrill
T3C1.000
; #@! TA.AperFunction,Plated,PTH,ComponentDrill
T4C1.100
%
G90
G05
T1
X95.262Y-69.596
X96.532Y-68.326
X96.532Y-70.866
X101.588Y-68.326
X101.588Y-70.866
X102.858Y-69.596
T2
X78.74Y-74.676
X78.74Y-77.216
X78.74Y-79.756
X83.82Y-55.372
X83.82Y-58.42
X83.82Y-61.468
X83.82Y-64.516
X83.86Y-71.628
X83.86Y-74.676
X83.86Y-77.724
X83.86Y-80.772
X84.876Y-68.072
X89.876Y-68.072
X91.44Y-55.372
X91.44Y-58.42
X91.44Y-61.468
X91.44Y-64.516
X91.48Y-71.628
X91.48Y-74.676
X91.48Y-77.724
X91.48Y-80.772
X95.235Y-55.88
X95.235Y-58.42
X95.235Y-60.96
X95.235Y-63.5
X96.012Y-74.756
X96.012Y-79.756
X96.56Y-51.816
X101.56Y-51.816
X102.108Y-74.756
X102.108Y-79.756
X102.855Y-55.88
X102.855Y-58.42
X102.855Y-60.96
X102.855Y-63.5
X106.68Y-55.372
X106.68Y-58.42
X106.68Y-61.468
X106.68Y-64.516
X106.68Y-71.628
X106.68Y-74.676
X106.68Y-77.724
X106.68Y-80.772
X107.99Y-68.072
X112.99Y-68.072
X114.3Y-55.372
X114.3Y-58.42
X114.3Y-61.468
X114.3Y-64.516
X114.3Y-71.628
X114.3Y-74.676
X114.3Y-77.724
X114.3Y-80.772
X119.38Y-74.676
X119.38Y-77.216
X119.38Y-79.756
T3
X78.74Y-56.46
X78.74Y-65.46
X119.38Y-56.46
X119.38Y-65.46
T4
X86.36Y-50.729
X86.36Y-88.824
X88.9Y-50.729
X91.44Y-50.729
X91.44Y-88.824
X96.545Y-88.824
X101.625Y-88.824
X106.68Y-50.729
X106.68Y-88.824
X109.22Y-50.729
X111.76Y-50.729
X111.76Y-88.824
T0
M30
