G04 #@! TF.GenerationSoftware,KiCad,Pcbnew,6.0.7-f9a2dced07~116~ubuntu22.04.1*
G04 #@! TF.CreationDate,2022-09-20T02:39:39+03:00*
G04 #@! TF.ProjectId,double-electronic-load,646f7562-6c65-42d6-956c-656374726f6e,rev?*
G04 #@! TF.SameCoordinates,Original*
G04 #@! TF.FileFunction,Copper,L2,Bot*
G04 #@! TF.FilePolarity,Positive*
%FSLAX46Y46*%
G04 Gerber Fmt 4.6, Leading zero omitted, Abs format (unit mm)*
G04 Created by KiCad (PCBNEW 6.0.7-f9a2dced07~116~ubuntu22.04.1) date 2022-09-20 02:39:39*
%MOMM*%
%LPD*%
G01*
G04 APERTURE LIST*
G04 Aperture macros list*
%AMRoundRect*
0 Rectangle with rounded corners*
0 $1 Rounding radius*
0 $2 $3 $4 $5 $6 $7 $8 $9 X,Y pos of 4 corners*
0 Add a 4 corners polygon primitive as box body*
4,1,4,$2,$3,$4,$5,$6,$7,$8,$9,$2,$3,0*
0 Add four circle primitives for the rounded corners*
1,1,$1+$1,$2,$3*
1,1,$1+$1,$4,$5*
1,1,$1+$1,$6,$7*
1,1,$1+$1,$8,$9*
0 Add four rect primitives between the rounded corners*
20,1,$1+$1,$2,$3,$4,$5,0*
20,1,$1+$1,$4,$5,$6,$7,0*
20,1,$1+$1,$6,$7,$8,$9,0*
20,1,$1+$1,$8,$9,$2,$3,0*%
G04 Aperture macros list end*
G04 #@! TA.AperFunction,ComponentPad*
%ADD10R,1.905000X2.000000*%
G04 #@! TD*
G04 #@! TA.AperFunction,ComponentPad*
%ADD11O,1.905000X2.000000*%
G04 #@! TD*
G04 #@! TA.AperFunction,ComponentPad*
%ADD12C,1.600000*%
G04 #@! TD*
G04 #@! TA.AperFunction,ComponentPad*
%ADD13O,1.600000X1.600000*%
G04 #@! TD*
G04 #@! TA.AperFunction,ComponentPad*
%ADD14R,2.200000X2.200000*%
G04 #@! TD*
G04 #@! TA.AperFunction,ComponentPad*
%ADD15C,2.200000*%
G04 #@! TD*
G04 #@! TA.AperFunction,ComponentPad*
%ADD16C,1.440000*%
G04 #@! TD*
G04 #@! TA.AperFunction,ComponentPad*
%ADD17C,2.000000*%
G04 #@! TD*
G04 #@! TA.AperFunction,ComponentPad*
%ADD18R,1.800000X1.100000*%
G04 #@! TD*
G04 #@! TA.AperFunction,ComponentPad*
%ADD19RoundRect,0.275000X-0.625000X0.275000X-0.625000X-0.275000X0.625000X-0.275000X0.625000X0.275000X0*%
G04 #@! TD*
G04 #@! TA.AperFunction,ComponentPad*
%ADD20R,2.400000X1.600000*%
G04 #@! TD*
G04 #@! TA.AperFunction,ComponentPad*
%ADD21O,2.400000X1.600000*%
G04 #@! TD*
G04 #@! TA.AperFunction,ComponentPad*
%ADD22RoundRect,0.275000X0.625000X-0.275000X0.625000X0.275000X-0.625000X0.275000X-0.625000X-0.275000X0*%
G04 #@! TD*
G04 #@! TA.AperFunction,Conductor*
%ADD23C,0.400000*%
G04 #@! TD*
G04 APERTURE END LIST*
D10*
X106680000Y-50729000D03*
D11*
X109220000Y-50729000D03*
X111760000Y-50729000D03*
D12*
X114300000Y-61468000D03*
D13*
X106680000Y-61468000D03*
D12*
X91480000Y-77724000D03*
D13*
X83860000Y-77724000D03*
D12*
X83860000Y-74676000D03*
D13*
X91480000Y-74676000D03*
D14*
X96545400Y-88823800D03*
D15*
X101625400Y-88823800D03*
D12*
X114300000Y-55372000D03*
D13*
X106680000Y-55372000D03*
D12*
X91440000Y-55372000D03*
D13*
X83820000Y-55372000D03*
D12*
X91440000Y-61468000D03*
D13*
X83820000Y-61468000D03*
D16*
X78740000Y-79756000D03*
X78740000Y-77216000D03*
X78740000Y-74676000D03*
D12*
X107990000Y-68072000D03*
X112990000Y-68072000D03*
X106680000Y-58420000D03*
D13*
X114300000Y-58420000D03*
D12*
X91480000Y-80772000D03*
D13*
X83860000Y-80772000D03*
D12*
X83860000Y-71628000D03*
D13*
X91480000Y-71628000D03*
D12*
X114300000Y-71628000D03*
D13*
X106680000Y-71628000D03*
D17*
X119380000Y-65460000D03*
X119380000Y-56460000D03*
D12*
X114300000Y-74676000D03*
D13*
X106680000Y-74676000D03*
D14*
X106680000Y-88823800D03*
D15*
X111760000Y-88823800D03*
D17*
X78740000Y-65460000D03*
X78740000Y-56460000D03*
D12*
X106680000Y-77724000D03*
D13*
X114300000Y-77724000D03*
D12*
X106680000Y-64516000D03*
D13*
X114300000Y-64516000D03*
D18*
X101188000Y-68326000D03*
D19*
X103258000Y-69596000D03*
X101188000Y-70866000D03*
D12*
X91440000Y-58420000D03*
D13*
X83820000Y-58420000D03*
D12*
X96012000Y-79756000D03*
X96012000Y-74756000D03*
X101560000Y-51816000D03*
X96560000Y-51816000D03*
X91440000Y-64516000D03*
D13*
X83820000Y-64516000D03*
D10*
X86360000Y-50729000D03*
D11*
X88900000Y-50729000D03*
X91440000Y-50729000D03*
D12*
X102108000Y-79756000D03*
X102108000Y-74756000D03*
X106680000Y-80772000D03*
D13*
X114300000Y-80772000D03*
D14*
X86360000Y-88823800D03*
D15*
X91440000Y-88823800D03*
D20*
X95235000Y-55880000D03*
D21*
X95235000Y-58420000D03*
X95235000Y-60960000D03*
X95235000Y-63500000D03*
X102855000Y-63500000D03*
X102855000Y-60960000D03*
X102855000Y-58420000D03*
X102855000Y-55880000D03*
D16*
X119380000Y-79756000D03*
X119380000Y-77216000D03*
X119380000Y-74676000D03*
D12*
X89876000Y-68072000D03*
X84876000Y-68072000D03*
D18*
X96932000Y-70866000D03*
D22*
X94862000Y-69596000D03*
X96932000Y-68326000D03*
D23*
X85384000Y-76200000D02*
X94568000Y-76200000D01*
X83860000Y-77724000D02*
X85384000Y-76200000D01*
X94568000Y-76200000D02*
X96012000Y-74756000D01*
X83820000Y-58420000D02*
X88392000Y-58420000D01*
X88392000Y-58420000D02*
X91440000Y-55372000D01*
X113157000Y-77724000D02*
X111633000Y-76200000D01*
X111633000Y-76200000D02*
X103552000Y-76200000D01*
X114300000Y-77724000D02*
X113157000Y-77724000D01*
X103552000Y-76200000D02*
X102108000Y-74756000D01*
X102855000Y-58420000D02*
X104379000Y-56896000D01*
X114300000Y-55372000D02*
X114300000Y-56896000D01*
X104379000Y-56896000D02*
X114300000Y-56896000D01*
X114300000Y-56896000D02*
X114300000Y-58420000D01*
G04 #@! TA.AperFunction,Conductor*
G36*
X117823377Y-45815502D02*
G01*
X117869870Y-45869158D01*
X117879974Y-45939432D01*
X117850480Y-46004012D01*
X117812459Y-46033767D01*
X117580221Y-46152098D01*
X117580214Y-46152102D01*
X117577280Y-46153597D01*
X117260775Y-46359137D01*
X116967489Y-46596635D01*
X116700635Y-46863489D01*
X116463137Y-47156775D01*
X116461335Y-47159550D01*
X116259395Y-47470510D01*
X116259393Y-47470513D01*
X116257597Y-47473279D01*
X116256102Y-47476213D01*
X116256098Y-47476220D01*
X116166913Y-47651256D01*
X116086266Y-47809535D01*
X115951022Y-48161857D01*
X115853347Y-48526387D01*
X115794310Y-48899129D01*
X115774559Y-49276000D01*
X115794310Y-49652871D01*
X115853347Y-50025613D01*
X115951022Y-50390143D01*
X116086266Y-50742465D01*
X116087764Y-50745405D01*
X116246115Y-51056185D01*
X116257597Y-51078720D01*
X116463137Y-51395225D01*
X116700635Y-51688511D01*
X116967489Y-51955365D01*
X117260775Y-52192863D01*
X117577280Y-52398403D01*
X117580214Y-52399898D01*
X117580221Y-52399902D01*
X117850123Y-52537424D01*
X117913535Y-52569734D01*
X118127959Y-52652044D01*
X118137716Y-52655789D01*
X118265857Y-52704978D01*
X118630387Y-52802653D01*
X118828353Y-52834008D01*
X118999881Y-52861176D01*
X118999889Y-52861177D01*
X119003129Y-52861690D01*
X119285720Y-52876500D01*
X119474280Y-52876500D01*
X119756871Y-52861690D01*
X119760111Y-52861177D01*
X119760119Y-52861176D01*
X119931647Y-52834008D01*
X120129613Y-52802653D01*
X120494143Y-52704978D01*
X120622285Y-52655789D01*
X120632041Y-52652044D01*
X120846465Y-52569734D01*
X120909877Y-52537424D01*
X121179779Y-52399902D01*
X121179786Y-52399898D01*
X121182720Y-52398403D01*
X121499225Y-52192863D01*
X121792511Y-51955365D01*
X122059365Y-51688511D01*
X122296863Y-51395225D01*
X122500606Y-51081489D01*
X122500607Y-51081487D01*
X122502403Y-51078721D01*
X122503903Y-51075779D01*
X122593087Y-50900744D01*
X122622233Y-50843541D01*
X122670981Y-50791926D01*
X122739896Y-50774860D01*
X122807098Y-50797761D01*
X122851250Y-50853358D01*
X122860500Y-50900744D01*
X122860500Y-90323256D01*
X122840498Y-90391377D01*
X122786842Y-90437870D01*
X122716568Y-90447974D01*
X122651988Y-90418480D01*
X122622233Y-90380459D01*
X122503902Y-90148221D01*
X122503898Y-90148214D01*
X122502403Y-90145280D01*
X122491591Y-90128630D01*
X122298665Y-89831550D01*
X122296863Y-89828775D01*
X122059365Y-89535489D01*
X121792511Y-89268635D01*
X121499225Y-89031137D01*
X121194705Y-88833380D01*
X121185489Y-88827395D01*
X121185486Y-88827393D01*
X121182720Y-88825597D01*
X121179786Y-88824102D01*
X121179779Y-88824098D01*
X120849405Y-88655764D01*
X120846465Y-88654266D01*
X120494143Y-88519022D01*
X120129613Y-88421347D01*
X119931647Y-88389992D01*
X119760119Y-88362824D01*
X119760111Y-88362823D01*
X119756871Y-88362310D01*
X119474280Y-88347500D01*
X119285720Y-88347500D01*
X119003129Y-88362310D01*
X118999889Y-88362823D01*
X118999881Y-88362824D01*
X118828353Y-88389992D01*
X118630387Y-88421347D01*
X118265857Y-88519022D01*
X117913535Y-88654266D01*
X117910595Y-88655764D01*
X117580221Y-88824098D01*
X117580214Y-88824102D01*
X117577280Y-88825597D01*
X117574514Y-88827393D01*
X117574511Y-88827395D01*
X117565295Y-88833380D01*
X117260775Y-89031137D01*
X116967489Y-89268635D01*
X116700635Y-89535489D01*
X116463137Y-89828775D01*
X116461335Y-89831550D01*
X116259395Y-90142510D01*
X116259393Y-90142513D01*
X116257597Y-90145279D01*
X116256102Y-90148213D01*
X116256098Y-90148220D01*
X116111468Y-90432074D01*
X116086266Y-90481535D01*
X115951022Y-90833857D01*
X115853347Y-91198387D01*
X115794310Y-91571129D01*
X115774559Y-91948000D01*
X115794310Y-92324871D01*
X115853347Y-92697613D01*
X115951022Y-93062143D01*
X116086266Y-93414465D01*
X116257597Y-93750720D01*
X116463137Y-94067225D01*
X116700635Y-94360511D01*
X116967489Y-94627365D01*
X117260775Y-94864863D01*
X117577280Y-95070403D01*
X117580214Y-95071898D01*
X117580221Y-95071902D01*
X117812459Y-95190233D01*
X117864074Y-95238981D01*
X117881140Y-95307896D01*
X117858239Y-95375098D01*
X117802642Y-95419250D01*
X117755256Y-95428500D01*
X80364744Y-95428500D01*
X80296623Y-95408498D01*
X80250130Y-95354842D01*
X80240026Y-95284568D01*
X80269520Y-95219988D01*
X80307541Y-95190233D01*
X80539779Y-95071902D01*
X80539786Y-95071898D01*
X80542720Y-95070403D01*
X80859225Y-94864863D01*
X81152511Y-94627365D01*
X81419365Y-94360511D01*
X81656863Y-94067225D01*
X81860606Y-93753489D01*
X81860607Y-93753487D01*
X81862403Y-93750721D01*
X81863903Y-93747779D01*
X82032236Y-93417405D01*
X82033734Y-93414465D01*
X82168978Y-93062143D01*
X82266653Y-92697613D01*
X82325690Y-92324871D01*
X82345441Y-91948000D01*
X82325690Y-91571129D01*
X82266653Y-91198387D01*
X82168978Y-90833857D01*
X82033734Y-90481535D01*
X82010728Y-90436384D01*
X81863902Y-90148221D01*
X81863898Y-90148214D01*
X81862403Y-90145280D01*
X81851591Y-90128630D01*
X81749831Y-89971934D01*
X84751500Y-89971934D01*
X84758255Y-90034116D01*
X84809385Y-90170505D01*
X84896739Y-90287061D01*
X85013295Y-90374415D01*
X85149684Y-90425545D01*
X85211866Y-90432300D01*
X87508134Y-90432300D01*
X87570316Y-90425545D01*
X87706705Y-90374415D01*
X87823261Y-90287061D01*
X87910615Y-90170505D01*
X87926103Y-90129190D01*
X90499440Y-90129190D01*
X90505167Y-90136840D01*
X90703506Y-90258383D01*
X90712300Y-90262864D01*
X90936991Y-90355934D01*
X90946376Y-90358983D01*
X91182863Y-90415759D01*
X91192610Y-90417302D01*
X91435070Y-90436384D01*
X91444930Y-90436384D01*
X91687390Y-90417302D01*
X91697137Y-90415759D01*
X91933624Y-90358983D01*
X91943009Y-90355934D01*
X92167700Y-90262864D01*
X92176494Y-90258383D01*
X92371167Y-90139087D01*
X92380627Y-90128630D01*
X92376844Y-90119854D01*
X92228924Y-89971934D01*
X94936900Y-89971934D01*
X94943655Y-90034116D01*
X94994785Y-90170505D01*
X95082139Y-90287061D01*
X95198695Y-90374415D01*
X95335084Y-90425545D01*
X95397266Y-90432300D01*
X97693534Y-90432300D01*
X97755716Y-90425545D01*
X97892105Y-90374415D01*
X98008661Y-90287061D01*
X98096015Y-90170505D01*
X98111503Y-90129190D01*
X100684840Y-90129190D01*
X100690567Y-90136840D01*
X100888906Y-90258383D01*
X100897700Y-90262864D01*
X101122391Y-90355934D01*
X101131776Y-90358983D01*
X101368263Y-90415759D01*
X101378010Y-90417302D01*
X101620470Y-90436384D01*
X101630330Y-90436384D01*
X101872790Y-90417302D01*
X101882537Y-90415759D01*
X102119024Y-90358983D01*
X102128409Y-90355934D01*
X102353100Y-90262864D01*
X102361894Y-90258383D01*
X102556567Y-90139087D01*
X102566027Y-90128630D01*
X102562244Y-90119854D01*
X102414324Y-89971934D01*
X105071500Y-89971934D01*
X105078255Y-90034116D01*
X105129385Y-90170505D01*
X105216739Y-90287061D01*
X105333295Y-90374415D01*
X105469684Y-90425545D01*
X105531866Y-90432300D01*
X107828134Y-90432300D01*
X107890316Y-90425545D01*
X108026705Y-90374415D01*
X108143261Y-90287061D01*
X108230615Y-90170505D01*
X108246103Y-90129190D01*
X110819440Y-90129190D01*
X110825167Y-90136840D01*
X111023506Y-90258383D01*
X111032300Y-90262864D01*
X111256991Y-90355934D01*
X111266376Y-90358983D01*
X111502863Y-90415759D01*
X111512610Y-90417302D01*
X111755070Y-90436384D01*
X111764930Y-90436384D01*
X112007390Y-90417302D01*
X112017137Y-90415759D01*
X112253624Y-90358983D01*
X112263009Y-90355934D01*
X112487700Y-90262864D01*
X112496494Y-90258383D01*
X112691167Y-90139087D01*
X112700627Y-90128630D01*
X112696844Y-90119854D01*
X111772812Y-89195822D01*
X111758868Y-89188208D01*
X111757035Y-89188339D01*
X111750420Y-89192590D01*
X110826200Y-90116810D01*
X110819440Y-90129190D01*
X108246103Y-90129190D01*
X108281745Y-90034116D01*
X108288500Y-89971934D01*
X108288500Y-88828730D01*
X110147416Y-88828730D01*
X110166498Y-89071190D01*
X110168041Y-89080937D01*
X110224817Y-89317424D01*
X110227866Y-89326809D01*
X110320936Y-89551500D01*
X110325417Y-89560294D01*
X110444713Y-89754967D01*
X110455170Y-89764427D01*
X110463946Y-89760644D01*
X111387978Y-88836612D01*
X111394356Y-88824932D01*
X112124408Y-88824932D01*
X112124539Y-88826765D01*
X112128790Y-88833380D01*
X113053010Y-89757600D01*
X113065390Y-89764360D01*
X113073040Y-89758633D01*
X113194583Y-89560294D01*
X113199064Y-89551500D01*
X113292134Y-89326809D01*
X113295183Y-89317424D01*
X113351959Y-89080937D01*
X113353502Y-89071190D01*
X113372584Y-88828730D01*
X113372584Y-88818870D01*
X113353502Y-88576410D01*
X113351959Y-88566663D01*
X113295183Y-88330176D01*
X113292134Y-88320791D01*
X113199064Y-88096100D01*
X113194583Y-88087306D01*
X113075287Y-87892633D01*
X113064830Y-87883173D01*
X113056054Y-87886956D01*
X112132022Y-88810988D01*
X112124408Y-88824932D01*
X111394356Y-88824932D01*
X111395592Y-88822668D01*
X111395461Y-88820835D01*
X111391210Y-88814220D01*
X110466990Y-87890000D01*
X110454610Y-87883240D01*
X110446960Y-87888967D01*
X110325417Y-88087306D01*
X110320936Y-88096100D01*
X110227866Y-88320791D01*
X110224817Y-88330176D01*
X110168041Y-88566663D01*
X110166498Y-88576410D01*
X110147416Y-88818870D01*
X110147416Y-88828730D01*
X108288500Y-88828730D01*
X108288500Y-87675666D01*
X108281745Y-87613484D01*
X108246313Y-87518970D01*
X110819373Y-87518970D01*
X110823156Y-87527746D01*
X111747188Y-88451778D01*
X111761132Y-88459392D01*
X111762965Y-88459261D01*
X111769580Y-88455010D01*
X112693800Y-87530790D01*
X112700560Y-87518410D01*
X112694833Y-87510760D01*
X112496494Y-87389217D01*
X112487700Y-87384736D01*
X112263009Y-87291666D01*
X112253624Y-87288617D01*
X112017137Y-87231841D01*
X112007390Y-87230298D01*
X111764930Y-87211216D01*
X111755070Y-87211216D01*
X111512610Y-87230298D01*
X111502863Y-87231841D01*
X111266376Y-87288617D01*
X111256991Y-87291666D01*
X111032300Y-87384736D01*
X111023506Y-87389217D01*
X110828833Y-87508513D01*
X110819373Y-87518970D01*
X108246313Y-87518970D01*
X108230615Y-87477095D01*
X108143261Y-87360539D01*
X108026705Y-87273185D01*
X107890316Y-87222055D01*
X107828134Y-87215300D01*
X105531866Y-87215300D01*
X105469684Y-87222055D01*
X105333295Y-87273185D01*
X105216739Y-87360539D01*
X105129385Y-87477095D01*
X105078255Y-87613484D01*
X105071500Y-87675666D01*
X105071500Y-89971934D01*
X102414324Y-89971934D01*
X101638212Y-89195822D01*
X101624268Y-89188208D01*
X101622435Y-89188339D01*
X101615820Y-89192590D01*
X100691600Y-90116810D01*
X100684840Y-90129190D01*
X98111503Y-90129190D01*
X98147145Y-90034116D01*
X98153900Y-89971934D01*
X98153900Y-88828730D01*
X100012816Y-88828730D01*
X100031898Y-89071190D01*
X100033441Y-89080937D01*
X100090217Y-89317424D01*
X100093266Y-89326809D01*
X100186336Y-89551500D01*
X100190817Y-89560294D01*
X100310113Y-89754967D01*
X100320570Y-89764427D01*
X100329346Y-89760644D01*
X101253378Y-88836612D01*
X101259756Y-88824932D01*
X101989808Y-88824932D01*
X101989939Y-88826765D01*
X101994190Y-88833380D01*
X102918410Y-89757600D01*
X102930790Y-89764360D01*
X102938440Y-89758633D01*
X103059983Y-89560294D01*
X103064464Y-89551500D01*
X103157534Y-89326809D01*
X103160583Y-89317424D01*
X103217359Y-89080937D01*
X103218902Y-89071190D01*
X103237984Y-88828730D01*
X103237984Y-88818870D01*
X103218902Y-88576410D01*
X103217359Y-88566663D01*
X103160583Y-88330176D01*
X103157534Y-88320791D01*
X103064464Y-88096100D01*
X103059983Y-88087306D01*
X102940687Y-87892633D01*
X102930230Y-87883173D01*
X102921454Y-87886956D01*
X101997422Y-88810988D01*
X101989808Y-88824932D01*
X101259756Y-88824932D01*
X101260992Y-88822668D01*
X101260861Y-88820835D01*
X101256610Y-88814220D01*
X100332390Y-87890000D01*
X100320010Y-87883240D01*
X100312360Y-87888967D01*
X100190817Y-88087306D01*
X100186336Y-88096100D01*
X100093266Y-88320791D01*
X100090217Y-88330176D01*
X100033441Y-88566663D01*
X100031898Y-88576410D01*
X100012816Y-88818870D01*
X100012816Y-88828730D01*
X98153900Y-88828730D01*
X98153900Y-87675666D01*
X98147145Y-87613484D01*
X98111713Y-87518970D01*
X100684773Y-87518970D01*
X100688556Y-87527746D01*
X101612588Y-88451778D01*
X101626532Y-88459392D01*
X101628365Y-88459261D01*
X101634980Y-88455010D01*
X102559200Y-87530790D01*
X102565960Y-87518410D01*
X102560233Y-87510760D01*
X102361894Y-87389217D01*
X102353100Y-87384736D01*
X102128409Y-87291666D01*
X102119024Y-87288617D01*
X101882537Y-87231841D01*
X101872790Y-87230298D01*
X101630330Y-87211216D01*
X101620470Y-87211216D01*
X101378010Y-87230298D01*
X101368263Y-87231841D01*
X101131776Y-87288617D01*
X101122391Y-87291666D01*
X100897700Y-87384736D01*
X100888906Y-87389217D01*
X100694233Y-87508513D01*
X100684773Y-87518970D01*
X98111713Y-87518970D01*
X98096015Y-87477095D01*
X98008661Y-87360539D01*
X97892105Y-87273185D01*
X97755716Y-87222055D01*
X97693534Y-87215300D01*
X95397266Y-87215300D01*
X95335084Y-87222055D01*
X95198695Y-87273185D01*
X95082139Y-87360539D01*
X94994785Y-87477095D01*
X94943655Y-87613484D01*
X94936900Y-87675666D01*
X94936900Y-89971934D01*
X92228924Y-89971934D01*
X91452812Y-89195822D01*
X91438868Y-89188208D01*
X91437035Y-89188339D01*
X91430420Y-89192590D01*
X90506200Y-90116810D01*
X90499440Y-90129190D01*
X87926103Y-90129190D01*
X87961745Y-90034116D01*
X87968500Y-89971934D01*
X87968500Y-88828730D01*
X89827416Y-88828730D01*
X89846498Y-89071190D01*
X89848041Y-89080937D01*
X89904817Y-89317424D01*
X89907866Y-89326809D01*
X90000936Y-89551500D01*
X90005417Y-89560294D01*
X90124713Y-89754967D01*
X90135170Y-89764427D01*
X90143946Y-89760644D01*
X91067978Y-88836612D01*
X91074356Y-88824932D01*
X91804408Y-88824932D01*
X91804539Y-88826765D01*
X91808790Y-88833380D01*
X92733010Y-89757600D01*
X92745390Y-89764360D01*
X92753040Y-89758633D01*
X92874583Y-89560294D01*
X92879064Y-89551500D01*
X92972134Y-89326809D01*
X92975183Y-89317424D01*
X93031959Y-89080937D01*
X93033502Y-89071190D01*
X93052584Y-88828730D01*
X93052584Y-88818870D01*
X93033502Y-88576410D01*
X93031959Y-88566663D01*
X92975183Y-88330176D01*
X92972134Y-88320791D01*
X92879064Y-88096100D01*
X92874583Y-88087306D01*
X92755287Y-87892633D01*
X92744830Y-87883173D01*
X92736054Y-87886956D01*
X91812022Y-88810988D01*
X91804408Y-88824932D01*
X91074356Y-88824932D01*
X91075592Y-88822668D01*
X91075461Y-88820835D01*
X91071210Y-88814220D01*
X90146990Y-87890000D01*
X90134610Y-87883240D01*
X90126960Y-87888967D01*
X90005417Y-88087306D01*
X90000936Y-88096100D01*
X89907866Y-88320791D01*
X89904817Y-88330176D01*
X89848041Y-88566663D01*
X89846498Y-88576410D01*
X89827416Y-88818870D01*
X89827416Y-88828730D01*
X87968500Y-88828730D01*
X87968500Y-87675666D01*
X87961745Y-87613484D01*
X87926313Y-87518970D01*
X90499373Y-87518970D01*
X90503156Y-87527746D01*
X91427188Y-88451778D01*
X91441132Y-88459392D01*
X91442965Y-88459261D01*
X91449580Y-88455010D01*
X92373800Y-87530790D01*
X92380560Y-87518410D01*
X92374833Y-87510760D01*
X92176494Y-87389217D01*
X92167700Y-87384736D01*
X91943009Y-87291666D01*
X91933624Y-87288617D01*
X91697137Y-87231841D01*
X91687390Y-87230298D01*
X91444930Y-87211216D01*
X91435070Y-87211216D01*
X91192610Y-87230298D01*
X91182863Y-87231841D01*
X90946376Y-87288617D01*
X90936991Y-87291666D01*
X90712300Y-87384736D01*
X90703506Y-87389217D01*
X90508833Y-87508513D01*
X90499373Y-87518970D01*
X87926313Y-87518970D01*
X87910615Y-87477095D01*
X87823261Y-87360539D01*
X87706705Y-87273185D01*
X87570316Y-87222055D01*
X87508134Y-87215300D01*
X85211866Y-87215300D01*
X85149684Y-87222055D01*
X85013295Y-87273185D01*
X84896739Y-87360539D01*
X84809385Y-87477095D01*
X84758255Y-87613484D01*
X84751500Y-87675666D01*
X84751500Y-89971934D01*
X81749831Y-89971934D01*
X81658665Y-89831550D01*
X81656863Y-89828775D01*
X81419365Y-89535489D01*
X81152511Y-89268635D01*
X80859225Y-89031137D01*
X80554705Y-88833380D01*
X80545489Y-88827395D01*
X80545486Y-88827393D01*
X80542720Y-88825597D01*
X80539786Y-88824102D01*
X80539779Y-88824098D01*
X80209405Y-88655764D01*
X80206465Y-88654266D01*
X79854143Y-88519022D01*
X79489613Y-88421347D01*
X79291647Y-88389992D01*
X79120119Y-88362824D01*
X79120111Y-88362823D01*
X79116871Y-88362310D01*
X78834280Y-88347500D01*
X78645720Y-88347500D01*
X78363129Y-88362310D01*
X78359889Y-88362823D01*
X78359881Y-88362824D01*
X78188353Y-88389992D01*
X77990387Y-88421347D01*
X77625857Y-88519022D01*
X77273535Y-88654266D01*
X77270595Y-88655764D01*
X76940221Y-88824098D01*
X76940214Y-88824102D01*
X76937280Y-88825597D01*
X76934514Y-88827393D01*
X76934511Y-88827395D01*
X76925295Y-88833380D01*
X76620775Y-89031137D01*
X76327489Y-89268635D01*
X76060635Y-89535489D01*
X75823137Y-89828775D01*
X75821335Y-89831550D01*
X75619395Y-90142510D01*
X75619393Y-90142513D01*
X75617597Y-90145279D01*
X75616102Y-90148213D01*
X75616098Y-90148220D01*
X75557684Y-90262864D01*
X75499241Y-90377567D01*
X75497767Y-90380459D01*
X75449019Y-90432074D01*
X75380104Y-90449140D01*
X75312902Y-90426239D01*
X75268750Y-90370642D01*
X75259500Y-90323256D01*
X75259500Y-79756000D01*
X77506807Y-79756000D01*
X77525542Y-79970142D01*
X77526966Y-79975455D01*
X77526966Y-79975457D01*
X77530679Y-79989312D01*
X77581178Y-80177777D01*
X77583500Y-80182757D01*
X77583501Y-80182759D01*
X77651260Y-80328067D01*
X77672024Y-80372596D01*
X77795319Y-80548681D01*
X77947319Y-80700681D01*
X78123403Y-80823976D01*
X78128381Y-80826297D01*
X78128384Y-80826299D01*
X78264844Y-80889931D01*
X78318223Y-80914822D01*
X78323531Y-80916244D01*
X78323533Y-80916245D01*
X78520543Y-80969034D01*
X78520545Y-80969034D01*
X78525858Y-80970458D01*
X78740000Y-80989193D01*
X78954142Y-80970458D01*
X78959455Y-80969034D01*
X78959457Y-80969034D01*
X79156467Y-80916245D01*
X79156469Y-80916244D01*
X79161777Y-80914822D01*
X79215156Y-80889931D01*
X79351616Y-80826299D01*
X79351619Y-80826297D01*
X79356597Y-80823976D01*
X79430827Y-80772000D01*
X82546502Y-80772000D01*
X82566457Y-81000087D01*
X82625716Y-81221243D01*
X82628039Y-81226224D01*
X82628039Y-81226225D01*
X82720151Y-81423762D01*
X82720154Y-81423767D01*
X82722477Y-81428749D01*
X82853802Y-81616300D01*
X83015700Y-81778198D01*
X83020208Y-81781355D01*
X83020211Y-81781357D01*
X83098389Y-81836098D01*
X83203251Y-81909523D01*
X83208233Y-81911846D01*
X83208238Y-81911849D01*
X83405775Y-82003961D01*
X83410757Y-82006284D01*
X83416065Y-82007706D01*
X83416067Y-82007707D01*
X83626598Y-82064119D01*
X83626600Y-82064119D01*
X83631913Y-82065543D01*
X83860000Y-82085498D01*
X84088087Y-82065543D01*
X84093400Y-82064119D01*
X84093402Y-82064119D01*
X84303933Y-82007707D01*
X84303935Y-82007706D01*
X84309243Y-82006284D01*
X84314225Y-82003961D01*
X84511762Y-81911849D01*
X84511767Y-81911846D01*
X84516749Y-81909523D01*
X84621611Y-81836098D01*
X84699789Y-81781357D01*
X84699792Y-81781355D01*
X84704300Y-81778198D01*
X84866198Y-81616300D01*
X84997523Y-81428749D01*
X84999846Y-81423767D01*
X84999849Y-81423762D01*
X85091961Y-81226225D01*
X85091961Y-81226224D01*
X85094284Y-81221243D01*
X85153543Y-81000087D01*
X85173498Y-80772000D01*
X90166502Y-80772000D01*
X90186457Y-81000087D01*
X90245716Y-81221243D01*
X90248039Y-81226224D01*
X90248039Y-81226225D01*
X90340151Y-81423762D01*
X90340154Y-81423767D01*
X90342477Y-81428749D01*
X90473802Y-81616300D01*
X90635700Y-81778198D01*
X90640208Y-81781355D01*
X90640211Y-81781357D01*
X90718389Y-81836098D01*
X90823251Y-81909523D01*
X90828233Y-81911846D01*
X90828238Y-81911849D01*
X91025775Y-82003961D01*
X91030757Y-82006284D01*
X91036065Y-82007706D01*
X91036067Y-82007707D01*
X91246598Y-82064119D01*
X91246600Y-82064119D01*
X91251913Y-82065543D01*
X91480000Y-82085498D01*
X91708087Y-82065543D01*
X91713400Y-82064119D01*
X91713402Y-82064119D01*
X91923933Y-82007707D01*
X91923935Y-82007706D01*
X91929243Y-82006284D01*
X91934225Y-82003961D01*
X92131762Y-81911849D01*
X92131767Y-81911846D01*
X92136749Y-81909523D01*
X92241611Y-81836098D01*
X92319789Y-81781357D01*
X92319792Y-81781355D01*
X92324300Y-81778198D01*
X92486198Y-81616300D01*
X92617523Y-81428749D01*
X92619846Y-81423767D01*
X92619849Y-81423762D01*
X92711961Y-81226225D01*
X92711961Y-81226224D01*
X92714284Y-81221243D01*
X92773543Y-81000087D01*
X92787368Y-80842062D01*
X95290493Y-80842062D01*
X95299789Y-80854077D01*
X95350994Y-80889931D01*
X95360489Y-80895414D01*
X95557947Y-80987490D01*
X95568239Y-80991236D01*
X95778688Y-81047625D01*
X95789481Y-81049528D01*
X96006525Y-81068517D01*
X96017475Y-81068517D01*
X96234519Y-81049528D01*
X96245312Y-81047625D01*
X96455761Y-80991236D01*
X96466053Y-80987490D01*
X96663511Y-80895414D01*
X96673006Y-80889931D01*
X96725048Y-80853491D01*
X96733424Y-80843012D01*
X96732925Y-80842062D01*
X101386493Y-80842062D01*
X101395789Y-80854077D01*
X101446994Y-80889931D01*
X101456489Y-80895414D01*
X101653947Y-80987490D01*
X101664239Y-80991236D01*
X101874688Y-81047625D01*
X101885481Y-81049528D01*
X102102525Y-81068517D01*
X102113475Y-81068517D01*
X102330519Y-81049528D01*
X102341312Y-81047625D01*
X102551761Y-80991236D01*
X102562053Y-80987490D01*
X102759511Y-80895414D01*
X102769006Y-80889931D01*
X102821048Y-80853491D01*
X102829424Y-80843012D01*
X102822356Y-80829566D01*
X102764790Y-80772000D01*
X105366502Y-80772000D01*
X105386457Y-81000087D01*
X105445716Y-81221243D01*
X105448039Y-81226224D01*
X105448039Y-81226225D01*
X105540151Y-81423762D01*
X105540154Y-81423767D01*
X105542477Y-81428749D01*
X105673802Y-81616300D01*
X105835700Y-81778198D01*
X105840208Y-81781355D01*
X105840211Y-81781357D01*
X105918389Y-81836098D01*
X106023251Y-81909523D01*
X106028233Y-81911846D01*
X106028238Y-81911849D01*
X106225775Y-82003961D01*
X106230757Y-82006284D01*
X106236065Y-82007706D01*
X106236067Y-82007707D01*
X106446598Y-82064119D01*
X106446600Y-82064119D01*
X106451913Y-82065543D01*
X106680000Y-82085498D01*
X106908087Y-82065543D01*
X106913400Y-82064119D01*
X106913402Y-82064119D01*
X107123933Y-82007707D01*
X107123935Y-82007706D01*
X107129243Y-82006284D01*
X107134225Y-82003961D01*
X107331762Y-81911849D01*
X107331767Y-81911846D01*
X107336749Y-81909523D01*
X107441611Y-81836098D01*
X107519789Y-81781357D01*
X107519792Y-81781355D01*
X107524300Y-81778198D01*
X107686198Y-81616300D01*
X107817523Y-81428749D01*
X107819846Y-81423767D01*
X107819849Y-81423762D01*
X107911961Y-81226225D01*
X107911961Y-81226224D01*
X107914284Y-81221243D01*
X107973543Y-81000087D01*
X107993498Y-80772000D01*
X112986502Y-80772000D01*
X113006457Y-81000087D01*
X113065716Y-81221243D01*
X113068039Y-81226224D01*
X113068039Y-81226225D01*
X113160151Y-81423762D01*
X113160154Y-81423767D01*
X113162477Y-81428749D01*
X113293802Y-81616300D01*
X113455700Y-81778198D01*
X113460208Y-81781355D01*
X113460211Y-81781357D01*
X113538389Y-81836098D01*
X113643251Y-81909523D01*
X113648233Y-81911846D01*
X113648238Y-81911849D01*
X113845775Y-82003961D01*
X113850757Y-82006284D01*
X113856065Y-82007706D01*
X113856067Y-82007707D01*
X114066598Y-82064119D01*
X114066600Y-82064119D01*
X114071913Y-82065543D01*
X114300000Y-82085498D01*
X114528087Y-82065543D01*
X114533400Y-82064119D01*
X114533402Y-82064119D01*
X114743933Y-82007707D01*
X114743935Y-82007706D01*
X114749243Y-82006284D01*
X114754225Y-82003961D01*
X114951762Y-81911849D01*
X114951767Y-81911846D01*
X114956749Y-81909523D01*
X115061611Y-81836098D01*
X115139789Y-81781357D01*
X115139792Y-81781355D01*
X115144300Y-81778198D01*
X115306198Y-81616300D01*
X115437523Y-81428749D01*
X115439846Y-81423767D01*
X115439849Y-81423762D01*
X115531961Y-81226225D01*
X115531961Y-81226224D01*
X115534284Y-81221243D01*
X115593543Y-81000087D01*
X115613498Y-80772000D01*
X115593543Y-80543913D01*
X115592119Y-80538598D01*
X115535707Y-80328067D01*
X115535706Y-80328065D01*
X115534284Y-80322757D01*
X115481730Y-80210053D01*
X115439849Y-80120238D01*
X115439846Y-80120233D01*
X115437523Y-80115251D01*
X115306198Y-79927700D01*
X115144300Y-79765802D01*
X115139792Y-79762645D01*
X115139789Y-79762643D01*
X115130302Y-79756000D01*
X118146807Y-79756000D01*
X118165542Y-79970142D01*
X118166966Y-79975455D01*
X118166966Y-79975457D01*
X118170679Y-79989312D01*
X118221178Y-80177777D01*
X118223500Y-80182757D01*
X118223501Y-80182759D01*
X118291260Y-80328067D01*
X118312024Y-80372596D01*
X118435319Y-80548681D01*
X118587319Y-80700681D01*
X118763403Y-80823976D01*
X118768381Y-80826297D01*
X118768384Y-80826299D01*
X118904844Y-80889931D01*
X118958223Y-80914822D01*
X118963531Y-80916244D01*
X118963533Y-80916245D01*
X119160543Y-80969034D01*
X119160545Y-80969034D01*
X119165858Y-80970458D01*
X119380000Y-80989193D01*
X119594142Y-80970458D01*
X119599455Y-80969034D01*
X119599457Y-80969034D01*
X119796467Y-80916245D01*
X119796469Y-80916244D01*
X119801777Y-80914822D01*
X119855156Y-80889931D01*
X119991616Y-80826299D01*
X119991619Y-80826297D01*
X119996597Y-80823976D01*
X120172681Y-80700681D01*
X120324681Y-80548681D01*
X120447976Y-80372596D01*
X120468741Y-80328067D01*
X120536499Y-80182759D01*
X120536500Y-80182757D01*
X120538822Y-80177777D01*
X120589322Y-79989312D01*
X120593034Y-79975457D01*
X120593034Y-79975455D01*
X120594458Y-79970142D01*
X120613193Y-79756000D01*
X120594458Y-79541858D01*
X120592967Y-79536293D01*
X120540245Y-79339533D01*
X120540244Y-79339531D01*
X120538822Y-79334223D01*
X120528571Y-79312239D01*
X120450299Y-79144385D01*
X120450297Y-79144382D01*
X120447976Y-79139404D01*
X120324681Y-78963319D01*
X120172681Y-78811319D01*
X119996597Y-78688024D01*
X119991619Y-78685703D01*
X119991616Y-78685701D01*
X119808247Y-78600195D01*
X119754962Y-78553278D01*
X119735501Y-78485000D01*
X119756043Y-78417041D01*
X119808247Y-78371805D01*
X119991616Y-78286299D01*
X119991619Y-78286297D01*
X119996597Y-78283976D01*
X120172681Y-78160681D01*
X120324681Y-78008681D01*
X120447976Y-77832596D01*
X120496063Y-77729475D01*
X120536499Y-77642759D01*
X120536500Y-77642757D01*
X120538822Y-77637777D01*
X120594458Y-77430142D01*
X120613193Y-77216000D01*
X120594458Y-77001858D01*
X120593034Y-76996543D01*
X120540245Y-76799533D01*
X120540244Y-76799531D01*
X120538822Y-76794223D01*
X120536499Y-76789241D01*
X120450299Y-76604385D01*
X120450297Y-76604382D01*
X120447976Y-76599404D01*
X120324681Y-76423319D01*
X120172681Y-76271319D01*
X119996597Y-76148024D01*
X119991619Y-76145703D01*
X119991616Y-76145701D01*
X119807656Y-76059919D01*
X119754371Y-76013002D01*
X119734910Y-75944724D01*
X119755452Y-75876764D01*
X119807656Y-75831529D01*
X119991359Y-75745868D01*
X120000854Y-75740385D01*
X120035607Y-75716051D01*
X120043983Y-75705572D01*
X120036916Y-75692127D01*
X119392811Y-75048021D01*
X119378868Y-75040408D01*
X119377034Y-75040539D01*
X119370420Y-75044790D01*
X118722360Y-75692851D01*
X118715933Y-75704621D01*
X118725227Y-75716635D01*
X118759146Y-75740385D01*
X118768641Y-75745868D01*
X118952344Y-75831529D01*
X119005629Y-75878446D01*
X119025090Y-75946723D01*
X119004548Y-76014683D01*
X118952344Y-76059919D01*
X118768385Y-76145701D01*
X118768382Y-76145703D01*
X118763404Y-76148024D01*
X118587319Y-76271319D01*
X118435319Y-76423319D01*
X118312024Y-76599404D01*
X118309703Y-76604382D01*
X118309701Y-76604385D01*
X118223501Y-76789241D01*
X118221178Y-76794223D01*
X118219756Y-76799531D01*
X118219755Y-76799533D01*
X118166966Y-76996543D01*
X118165542Y-77001858D01*
X118146807Y-77216000D01*
X118165542Y-77430142D01*
X118221178Y-77637777D01*
X118223500Y-77642757D01*
X118223501Y-77642759D01*
X118263938Y-77729475D01*
X118312024Y-77832596D01*
X118435319Y-78008681D01*
X118587319Y-78160681D01*
X118763403Y-78283976D01*
X118768381Y-78286297D01*
X118768384Y-78286299D01*
X118951753Y-78371805D01*
X119005038Y-78418722D01*
X119024499Y-78487000D01*
X119003957Y-78554959D01*
X118951753Y-78600195D01*
X118768385Y-78685701D01*
X118768382Y-78685703D01*
X118763404Y-78688024D01*
X118587319Y-78811319D01*
X118435319Y-78963319D01*
X118312024Y-79139404D01*
X118309703Y-79144382D01*
X118309701Y-79144385D01*
X118231429Y-79312239D01*
X118221178Y-79334223D01*
X118219756Y-79339531D01*
X118219755Y-79339533D01*
X118167033Y-79536293D01*
X118165542Y-79541858D01*
X118146807Y-79756000D01*
X115130302Y-79756000D01*
X115061611Y-79707902D01*
X114956749Y-79634477D01*
X114951767Y-79632154D01*
X114951762Y-79632151D01*
X114754225Y-79540039D01*
X114754224Y-79540039D01*
X114749243Y-79537716D01*
X114743935Y-79536294D01*
X114743933Y-79536293D01*
X114533402Y-79479881D01*
X114533400Y-79479881D01*
X114528087Y-79478457D01*
X114300000Y-79458502D01*
X114071913Y-79478457D01*
X114066600Y-79479881D01*
X114066598Y-79479881D01*
X113856067Y-79536293D01*
X113856065Y-79536294D01*
X113850757Y-79537716D01*
X113845776Y-79540039D01*
X113845775Y-79540039D01*
X113648238Y-79632151D01*
X113648233Y-79632154D01*
X113643251Y-79634477D01*
X113538389Y-79707902D01*
X113460211Y-79762643D01*
X113460208Y-79762645D01*
X113455700Y-79765802D01*
X113293802Y-79927700D01*
X113162477Y-80115251D01*
X113160154Y-80120233D01*
X113160151Y-80120238D01*
X113118270Y-80210053D01*
X113065716Y-80322757D01*
X113064294Y-80328065D01*
X113064293Y-80328067D01*
X113007881Y-80538598D01*
X113006457Y-80543913D01*
X112986502Y-80772000D01*
X107993498Y-80772000D01*
X107973543Y-80543913D01*
X107972119Y-80538598D01*
X107915707Y-80328067D01*
X107915706Y-80328065D01*
X107914284Y-80322757D01*
X107861730Y-80210053D01*
X107819849Y-80120238D01*
X107819846Y-80120233D01*
X107817523Y-80115251D01*
X107686198Y-79927700D01*
X107524300Y-79765802D01*
X107519792Y-79762645D01*
X107519789Y-79762643D01*
X107441611Y-79707902D01*
X107336749Y-79634477D01*
X107331767Y-79632154D01*
X107331762Y-79632151D01*
X107134225Y-79540039D01*
X107134224Y-79540039D01*
X107129243Y-79537716D01*
X107123935Y-79536294D01*
X107123933Y-79536293D01*
X106913402Y-79479881D01*
X106913400Y-79479881D01*
X106908087Y-79478457D01*
X106680000Y-79458502D01*
X106451913Y-79478457D01*
X106446600Y-79479881D01*
X106446598Y-79479881D01*
X106236067Y-79536293D01*
X106236065Y-79536294D01*
X106230757Y-79537716D01*
X106225776Y-79540039D01*
X106225775Y-79540039D01*
X106028238Y-79632151D01*
X106028233Y-79632154D01*
X106023251Y-79634477D01*
X105918389Y-79707902D01*
X105840211Y-79762643D01*
X105840208Y-79762645D01*
X105835700Y-79765802D01*
X105673802Y-79927700D01*
X105542477Y-80115251D01*
X105540154Y-80120233D01*
X105540151Y-80120238D01*
X105498270Y-80210053D01*
X105445716Y-80322757D01*
X105444294Y-80328065D01*
X105444293Y-80328067D01*
X105387881Y-80538598D01*
X105386457Y-80543913D01*
X105366502Y-80772000D01*
X102764790Y-80772000D01*
X102120812Y-80128022D01*
X102106868Y-80120408D01*
X102105035Y-80120539D01*
X102098420Y-80124790D01*
X101392923Y-80830287D01*
X101386493Y-80842062D01*
X96732925Y-80842062D01*
X96726356Y-80829566D01*
X96024812Y-80128022D01*
X96010868Y-80120408D01*
X96009035Y-80120539D01*
X96002420Y-80124790D01*
X95296923Y-80830287D01*
X95290493Y-80842062D01*
X92787368Y-80842062D01*
X92793498Y-80772000D01*
X92773543Y-80543913D01*
X92772119Y-80538598D01*
X92715707Y-80328067D01*
X92715706Y-80328065D01*
X92714284Y-80322757D01*
X92661730Y-80210053D01*
X92619849Y-80120238D01*
X92619846Y-80120233D01*
X92617523Y-80115251D01*
X92486198Y-79927700D01*
X92324300Y-79765802D01*
X92319792Y-79762645D01*
X92319789Y-79762643D01*
X92318121Y-79761475D01*
X94699483Y-79761475D01*
X94718472Y-79978519D01*
X94720375Y-79989312D01*
X94776764Y-80199761D01*
X94780510Y-80210053D01*
X94872586Y-80407511D01*
X94878069Y-80417006D01*
X94914509Y-80469048D01*
X94924988Y-80477424D01*
X94938434Y-80470356D01*
X95639978Y-79768812D01*
X95646356Y-79757132D01*
X96376408Y-79757132D01*
X96376539Y-79758965D01*
X96380790Y-79765580D01*
X97086287Y-80471077D01*
X97098062Y-80477507D01*
X97110077Y-80468211D01*
X97145931Y-80417006D01*
X97151414Y-80407511D01*
X97243490Y-80210053D01*
X97247236Y-80199761D01*
X97303625Y-79989312D01*
X97305528Y-79978519D01*
X97324517Y-79761475D01*
X100795483Y-79761475D01*
X100814472Y-79978519D01*
X100816375Y-79989312D01*
X100872764Y-80199761D01*
X100876510Y-80210053D01*
X100968586Y-80407511D01*
X100974069Y-80417006D01*
X101010509Y-80469048D01*
X101020988Y-80477424D01*
X101034434Y-80470356D01*
X101735978Y-79768812D01*
X101742356Y-79757132D01*
X102472408Y-79757132D01*
X102472539Y-79758965D01*
X102476790Y-79765580D01*
X103182287Y-80471077D01*
X103194062Y-80477507D01*
X103206077Y-80468211D01*
X103241931Y-80417006D01*
X103247414Y-80407511D01*
X103339490Y-80210053D01*
X103343236Y-80199761D01*
X103399625Y-79989312D01*
X103401528Y-79978519D01*
X103420517Y-79761475D01*
X103420517Y-79750525D01*
X103401528Y-79533481D01*
X103399625Y-79522688D01*
X103343236Y-79312239D01*
X103339490Y-79301947D01*
X103247414Y-79104489D01*
X103241931Y-79094994D01*
X103205491Y-79042952D01*
X103195012Y-79034576D01*
X103181566Y-79041644D01*
X102480022Y-79743188D01*
X102472408Y-79757132D01*
X101742356Y-79757132D01*
X101743592Y-79754868D01*
X101743461Y-79753035D01*
X101739210Y-79746420D01*
X101033713Y-79040923D01*
X101021938Y-79034493D01*
X101009923Y-79043789D01*
X100974069Y-79094994D01*
X100968586Y-79104489D01*
X100876510Y-79301947D01*
X100872764Y-79312239D01*
X100816375Y-79522688D01*
X100814472Y-79533481D01*
X100795483Y-79750525D01*
X100795483Y-79761475D01*
X97324517Y-79761475D01*
X97324517Y-79750525D01*
X97305528Y-79533481D01*
X97303625Y-79522688D01*
X97247236Y-79312239D01*
X97243490Y-79301947D01*
X97151414Y-79104489D01*
X97145931Y-79094994D01*
X97109491Y-79042952D01*
X97099012Y-79034576D01*
X97085566Y-79041644D01*
X96384022Y-79743188D01*
X96376408Y-79757132D01*
X95646356Y-79757132D01*
X95647592Y-79754868D01*
X95647461Y-79753035D01*
X95643210Y-79746420D01*
X94937713Y-79040923D01*
X94925938Y-79034493D01*
X94913923Y-79043789D01*
X94878069Y-79094994D01*
X94872586Y-79104489D01*
X94780510Y-79301947D01*
X94776764Y-79312239D01*
X94720375Y-79522688D01*
X94718472Y-79533481D01*
X94699483Y-79750525D01*
X94699483Y-79761475D01*
X92318121Y-79761475D01*
X92241611Y-79707902D01*
X92136749Y-79634477D01*
X92131767Y-79632154D01*
X92131762Y-79632151D01*
X91934225Y-79540039D01*
X91934224Y-79540039D01*
X91929243Y-79537716D01*
X91923935Y-79536294D01*
X91923933Y-79536293D01*
X91713402Y-79479881D01*
X91713400Y-79479881D01*
X91708087Y-79478457D01*
X91480000Y-79458502D01*
X91251913Y-79478457D01*
X91246600Y-79479881D01*
X91246598Y-79479881D01*
X91036067Y-79536293D01*
X91036065Y-79536294D01*
X91030757Y-79537716D01*
X91025776Y-79540039D01*
X91025775Y-79540039D01*
X90828238Y-79632151D01*
X90828233Y-79632154D01*
X90823251Y-79634477D01*
X90718389Y-79707902D01*
X90640211Y-79762643D01*
X90640208Y-79762645D01*
X90635700Y-79765802D01*
X90473802Y-79927700D01*
X90342477Y-80115251D01*
X90340154Y-80120233D01*
X90340151Y-80120238D01*
X90298270Y-80210053D01*
X90245716Y-80322757D01*
X90244294Y-80328065D01*
X90244293Y-80328067D01*
X90187881Y-80538598D01*
X90186457Y-80543913D01*
X90166502Y-80772000D01*
X85173498Y-80772000D01*
X85153543Y-80543913D01*
X85152119Y-80538598D01*
X85095707Y-80328067D01*
X85095706Y-80328065D01*
X85094284Y-80322757D01*
X85041730Y-80210053D01*
X84999849Y-80120238D01*
X84999846Y-80120233D01*
X84997523Y-80115251D01*
X84866198Y-79927700D01*
X84704300Y-79765802D01*
X84699792Y-79762645D01*
X84699789Y-79762643D01*
X84621611Y-79707902D01*
X84516749Y-79634477D01*
X84511767Y-79632154D01*
X84511762Y-79632151D01*
X84314225Y-79540039D01*
X84314224Y-79540039D01*
X84309243Y-79537716D01*
X84303935Y-79536294D01*
X84303933Y-79536293D01*
X84093402Y-79479881D01*
X84093400Y-79479881D01*
X84088087Y-79478457D01*
X83860000Y-79458502D01*
X83631913Y-79478457D01*
X83626600Y-79479881D01*
X83626598Y-79479881D01*
X83416067Y-79536293D01*
X83416065Y-79536294D01*
X83410757Y-79537716D01*
X83405776Y-79540039D01*
X83405775Y-79540039D01*
X83208238Y-79632151D01*
X83208233Y-79632154D01*
X83203251Y-79634477D01*
X83098389Y-79707902D01*
X83020211Y-79762643D01*
X83020208Y-79762645D01*
X83015700Y-79765802D01*
X82853802Y-79927700D01*
X82722477Y-80115251D01*
X82720154Y-80120233D01*
X82720151Y-80120238D01*
X82678270Y-80210053D01*
X82625716Y-80322757D01*
X82624294Y-80328065D01*
X82624293Y-80328067D01*
X82567881Y-80538598D01*
X82566457Y-80543913D01*
X82546502Y-80772000D01*
X79430827Y-80772000D01*
X79532681Y-80700681D01*
X79684681Y-80548681D01*
X79807976Y-80372596D01*
X79828741Y-80328067D01*
X79896499Y-80182759D01*
X79896500Y-80182757D01*
X79898822Y-80177777D01*
X79949322Y-79989312D01*
X79953034Y-79975457D01*
X79953034Y-79975455D01*
X79954458Y-79970142D01*
X79973193Y-79756000D01*
X79954458Y-79541858D01*
X79952967Y-79536293D01*
X79900245Y-79339533D01*
X79900244Y-79339531D01*
X79898822Y-79334223D01*
X79888571Y-79312239D01*
X79810299Y-79144385D01*
X79810297Y-79144382D01*
X79807976Y-79139404D01*
X79684681Y-78963319D01*
X79532681Y-78811319D01*
X79356597Y-78688024D01*
X79351619Y-78685703D01*
X79351616Y-78685701D01*
X79168247Y-78600195D01*
X79114962Y-78553278D01*
X79095501Y-78485000D01*
X79116043Y-78417041D01*
X79168247Y-78371805D01*
X79351616Y-78286299D01*
X79351619Y-78286297D01*
X79356597Y-78283976D01*
X79532681Y-78160681D01*
X79684681Y-78008681D01*
X79807976Y-77832596D01*
X79856063Y-77729475D01*
X79858616Y-77724000D01*
X82546502Y-77724000D01*
X82566457Y-77952087D01*
X82625716Y-78173243D01*
X82628039Y-78178224D01*
X82628039Y-78178225D01*
X82720151Y-78375762D01*
X82720154Y-78375767D01*
X82722477Y-78380749D01*
X82747352Y-78416274D01*
X82844461Y-78554959D01*
X82853802Y-78568300D01*
X83015700Y-78730198D01*
X83020208Y-78733355D01*
X83020211Y-78733357D01*
X83098389Y-78788098D01*
X83203251Y-78861523D01*
X83208233Y-78863846D01*
X83208238Y-78863849D01*
X83405775Y-78955961D01*
X83410757Y-78958284D01*
X83416065Y-78959706D01*
X83416067Y-78959707D01*
X83626598Y-79016119D01*
X83626600Y-79016119D01*
X83631913Y-79017543D01*
X83860000Y-79037498D01*
X84088087Y-79017543D01*
X84093400Y-79016119D01*
X84093402Y-79016119D01*
X84303933Y-78959707D01*
X84303935Y-78959706D01*
X84309243Y-78958284D01*
X84314225Y-78955961D01*
X84511762Y-78863849D01*
X84511767Y-78863846D01*
X84516749Y-78861523D01*
X84621611Y-78788098D01*
X84699789Y-78733357D01*
X84699792Y-78733355D01*
X84704300Y-78730198D01*
X84866198Y-78568300D01*
X84875540Y-78554959D01*
X84972648Y-78416274D01*
X84997523Y-78380749D01*
X84999846Y-78375767D01*
X84999849Y-78375762D01*
X85091961Y-78178225D01*
X85091961Y-78178224D01*
X85094284Y-78173243D01*
X85153543Y-77952087D01*
X85173498Y-77724000D01*
X85153556Y-77496065D01*
X85167545Y-77426461D01*
X85189982Y-77395989D01*
X85640566Y-76945405D01*
X85702878Y-76911379D01*
X85729661Y-76908500D01*
X90218723Y-76908500D01*
X90286844Y-76928502D01*
X90333337Y-76982158D01*
X90343441Y-77052432D01*
X90332918Y-77087750D01*
X90248039Y-77269774D01*
X90248039Y-77269775D01*
X90245716Y-77274757D01*
X90186457Y-77495913D01*
X90166502Y-77724000D01*
X90186457Y-77952087D01*
X90245716Y-78173243D01*
X90248039Y-78178224D01*
X90248039Y-78178225D01*
X90340151Y-78375762D01*
X90340154Y-78375767D01*
X90342477Y-78380749D01*
X90367352Y-78416274D01*
X90464461Y-78554959D01*
X90473802Y-78568300D01*
X90635700Y-78730198D01*
X90640208Y-78733355D01*
X90640211Y-78733357D01*
X90718389Y-78788098D01*
X90823251Y-78861523D01*
X90828233Y-78863846D01*
X90828238Y-78863849D01*
X91025775Y-78955961D01*
X91030757Y-78958284D01*
X91036065Y-78959706D01*
X91036067Y-78959707D01*
X91246598Y-79016119D01*
X91246600Y-79016119D01*
X91251913Y-79017543D01*
X91480000Y-79037498D01*
X91708087Y-79017543D01*
X91713400Y-79016119D01*
X91713402Y-79016119D01*
X91923933Y-78959707D01*
X91923935Y-78959706D01*
X91929243Y-78958284D01*
X91934225Y-78955961D01*
X92131762Y-78863849D01*
X92131767Y-78863846D01*
X92136749Y-78861523D01*
X92241611Y-78788098D01*
X92319789Y-78733357D01*
X92319792Y-78733355D01*
X92324300Y-78730198D01*
X92385510Y-78668988D01*
X95290576Y-78668988D01*
X95297644Y-78682434D01*
X95999188Y-79383978D01*
X96013132Y-79391592D01*
X96014965Y-79391461D01*
X96021580Y-79387210D01*
X96727077Y-78681713D01*
X96733507Y-78669938D01*
X96732772Y-78668988D01*
X101386576Y-78668988D01*
X101393644Y-78682434D01*
X102095188Y-79383978D01*
X102109132Y-79391592D01*
X102110965Y-79391461D01*
X102117580Y-79387210D01*
X102823077Y-78681713D01*
X102829507Y-78669938D01*
X102820211Y-78657923D01*
X102769006Y-78622069D01*
X102759511Y-78616586D01*
X102562053Y-78524510D01*
X102551761Y-78520764D01*
X102341312Y-78464375D01*
X102330519Y-78462472D01*
X102113475Y-78443483D01*
X102102525Y-78443483D01*
X101885481Y-78462472D01*
X101874688Y-78464375D01*
X101664239Y-78520764D01*
X101653947Y-78524510D01*
X101456489Y-78616586D01*
X101446994Y-78622069D01*
X101394952Y-78658509D01*
X101386576Y-78668988D01*
X96732772Y-78668988D01*
X96724211Y-78657923D01*
X96673006Y-78622069D01*
X96663511Y-78616586D01*
X96466053Y-78524510D01*
X96455761Y-78520764D01*
X96245312Y-78464375D01*
X96234519Y-78462472D01*
X96017475Y-78443483D01*
X96006525Y-78443483D01*
X95789481Y-78462472D01*
X95778688Y-78464375D01*
X95568239Y-78520764D01*
X95557947Y-78524510D01*
X95360489Y-78616586D01*
X95350994Y-78622069D01*
X95298952Y-78658509D01*
X95290576Y-78668988D01*
X92385510Y-78668988D01*
X92486198Y-78568300D01*
X92495540Y-78554959D01*
X92592648Y-78416274D01*
X92617523Y-78380749D01*
X92619846Y-78375767D01*
X92619849Y-78375762D01*
X92711961Y-78178225D01*
X92711961Y-78178224D01*
X92714284Y-78173243D01*
X92773543Y-77952087D01*
X92793498Y-77724000D01*
X92773543Y-77495913D01*
X92714284Y-77274757D01*
X92711961Y-77269775D01*
X92711961Y-77269774D01*
X92627082Y-77087750D01*
X92616421Y-77017558D01*
X92645401Y-76952745D01*
X92704821Y-76913889D01*
X92741277Y-76908500D01*
X94539088Y-76908500D01*
X94547658Y-76908792D01*
X94597776Y-76912209D01*
X94597780Y-76912209D01*
X94605352Y-76912725D01*
X94612829Y-76911420D01*
X94612830Y-76911420D01*
X94639308Y-76906799D01*
X94668303Y-76901738D01*
X94674821Y-76900777D01*
X94738242Y-76893102D01*
X94745343Y-76890419D01*
X94747952Y-76889778D01*
X94764262Y-76885315D01*
X94766798Y-76884550D01*
X94774284Y-76883243D01*
X94832800Y-76857556D01*
X94838904Y-76855065D01*
X94891548Y-76835173D01*
X94891549Y-76835172D01*
X94898656Y-76832487D01*
X94904919Y-76828183D01*
X94907285Y-76826946D01*
X94922097Y-76818701D01*
X94924351Y-76817368D01*
X94931305Y-76814315D01*
X94982002Y-76775413D01*
X94987332Y-76771541D01*
X95033720Y-76739661D01*
X95033725Y-76739656D01*
X95039981Y-76735357D01*
X95058437Y-76714643D01*
X95081427Y-76688839D01*
X95086408Y-76683563D01*
X95683989Y-76085982D01*
X95746301Y-76051956D01*
X95784063Y-76049556D01*
X96012000Y-76069498D01*
X96240087Y-76049543D01*
X96245400Y-76048119D01*
X96245402Y-76048119D01*
X96455933Y-75991707D01*
X96455935Y-75991706D01*
X96461243Y-75990284D01*
X96497698Y-75973285D01*
X96663762Y-75895849D01*
X96663767Y-75895846D01*
X96668749Y-75893523D01*
X96787509Y-75810366D01*
X96851789Y-75765357D01*
X96851792Y-75765355D01*
X96856300Y-75762198D01*
X97018198Y-75600300D01*
X97025744Y-75589524D01*
X97076098Y-75517611D01*
X97149523Y-75412749D01*
X97151846Y-75407767D01*
X97151849Y-75407762D01*
X97243961Y-75210225D01*
X97243961Y-75210224D01*
X97246284Y-75205243D01*
X97305543Y-74984087D01*
X97325498Y-74756000D01*
X100794502Y-74756000D01*
X100814457Y-74984087D01*
X100873716Y-75205243D01*
X100876039Y-75210224D01*
X100876039Y-75210225D01*
X100968151Y-75407762D01*
X100968154Y-75407767D01*
X100970477Y-75412749D01*
X101043902Y-75517611D01*
X101094257Y-75589524D01*
X101101802Y-75600300D01*
X101263700Y-75762198D01*
X101268208Y-75765355D01*
X101268211Y-75765357D01*
X101332491Y-75810366D01*
X101451251Y-75893523D01*
X101456233Y-75895846D01*
X101456238Y-75895849D01*
X101622302Y-75973285D01*
X101658757Y-75990284D01*
X101664065Y-75991706D01*
X101664067Y-75991707D01*
X101874598Y-76048119D01*
X101874600Y-76048119D01*
X101879913Y-76049543D01*
X102108000Y-76069498D01*
X102335935Y-76049556D01*
X102405539Y-76063545D01*
X102436011Y-76085982D01*
X103030557Y-76680528D01*
X103036411Y-76686793D01*
X103066862Y-76721699D01*
X103074439Y-76730385D01*
X103126729Y-76767136D01*
X103131971Y-76771028D01*
X103182282Y-76810476D01*
X103189201Y-76813600D01*
X103191493Y-76814988D01*
X103206165Y-76823357D01*
X103208525Y-76824622D01*
X103214739Y-76828990D01*
X103221818Y-76831750D01*
X103221820Y-76831751D01*
X103274275Y-76852202D01*
X103280344Y-76854753D01*
X103338573Y-76881045D01*
X103346046Y-76882430D01*
X103348612Y-76883234D01*
X103364835Y-76887855D01*
X103367427Y-76888520D01*
X103374509Y-76891282D01*
X103382044Y-76892274D01*
X103437861Y-76899622D01*
X103444377Y-76900654D01*
X103482770Y-76907770D01*
X103507186Y-76912295D01*
X103514766Y-76911858D01*
X103514767Y-76911858D01*
X103569380Y-76908709D01*
X103576633Y-76908500D01*
X105418723Y-76908500D01*
X105486844Y-76928502D01*
X105533337Y-76982158D01*
X105543441Y-77052432D01*
X105532918Y-77087750D01*
X105448039Y-77269774D01*
X105448039Y-77269775D01*
X105445716Y-77274757D01*
X105386457Y-77495913D01*
X105366502Y-77724000D01*
X105386457Y-77952087D01*
X105445716Y-78173243D01*
X105448039Y-78178224D01*
X105448039Y-78178225D01*
X105540151Y-78375762D01*
X105540154Y-78375767D01*
X105542477Y-78380749D01*
X105567352Y-78416274D01*
X105664461Y-78554959D01*
X105673802Y-78568300D01*
X105835700Y-78730198D01*
X105840208Y-78733355D01*
X105840211Y-78733357D01*
X105918389Y-78788098D01*
X106023251Y-78861523D01*
X106028233Y-78863846D01*
X106028238Y-78863849D01*
X106225775Y-78955961D01*
X106230757Y-78958284D01*
X106236065Y-78959706D01*
X106236067Y-78959707D01*
X106446598Y-79016119D01*
X106446600Y-79016119D01*
X106451913Y-79017543D01*
X106680000Y-79037498D01*
X106908087Y-79017543D01*
X106913400Y-79016119D01*
X106913402Y-79016119D01*
X107123933Y-78959707D01*
X107123935Y-78959706D01*
X107129243Y-78958284D01*
X107134225Y-78955961D01*
X107331762Y-78863849D01*
X107331767Y-78863846D01*
X107336749Y-78861523D01*
X107441611Y-78788098D01*
X107519789Y-78733357D01*
X107519792Y-78733355D01*
X107524300Y-78730198D01*
X107686198Y-78568300D01*
X107695540Y-78554959D01*
X107792648Y-78416274D01*
X107817523Y-78380749D01*
X107819846Y-78375767D01*
X107819849Y-78375762D01*
X107911961Y-78178225D01*
X107911961Y-78178224D01*
X107914284Y-78173243D01*
X107973543Y-77952087D01*
X107993498Y-77724000D01*
X107973543Y-77495913D01*
X107914284Y-77274757D01*
X107911961Y-77269775D01*
X107911961Y-77269774D01*
X107827082Y-77087750D01*
X107816421Y-77017558D01*
X107845401Y-76952745D01*
X107904821Y-76913889D01*
X107941277Y-76908500D01*
X111287340Y-76908500D01*
X111355461Y-76928502D01*
X111376435Y-76945405D01*
X112635557Y-78204528D01*
X112641411Y-78210793D01*
X112679439Y-78254385D01*
X112731729Y-78291136D01*
X112736971Y-78295028D01*
X112787282Y-78334476D01*
X112794201Y-78337600D01*
X112796493Y-78338988D01*
X112811165Y-78347357D01*
X112813525Y-78348622D01*
X112819739Y-78352990D01*
X112826818Y-78355750D01*
X112826820Y-78355751D01*
X112879275Y-78376202D01*
X112885344Y-78378753D01*
X112943573Y-78405045D01*
X112951046Y-78406430D01*
X112953612Y-78407234D01*
X112969835Y-78411855D01*
X112972427Y-78412520D01*
X112979509Y-78415282D01*
X112987044Y-78416274D01*
X113042861Y-78423622D01*
X113049377Y-78424654D01*
X113080693Y-78430458D01*
X113112186Y-78436295D01*
X113119768Y-78435858D01*
X113119771Y-78435858D01*
X113127756Y-78435398D01*
X113196915Y-78451448D01*
X113238218Y-78488918D01*
X113284461Y-78554959D01*
X113293802Y-78568300D01*
X113455700Y-78730198D01*
X113460208Y-78733355D01*
X113460211Y-78733357D01*
X113538389Y-78788098D01*
X113643251Y-78861523D01*
X113648233Y-78863846D01*
X113648238Y-78863849D01*
X113845775Y-78955961D01*
X113850757Y-78958284D01*
X113856065Y-78959706D01*
X113856067Y-78959707D01*
X114066598Y-79016119D01*
X114066600Y-79016119D01*
X114071913Y-79017543D01*
X114300000Y-79037498D01*
X114528087Y-79017543D01*
X114533400Y-79016119D01*
X114533402Y-79016119D01*
X114743933Y-78959707D01*
X114743935Y-78959706D01*
X114749243Y-78958284D01*
X114754225Y-78955961D01*
X114951762Y-78863849D01*
X114951767Y-78863846D01*
X114956749Y-78861523D01*
X115061611Y-78788098D01*
X115139789Y-78733357D01*
X115139792Y-78733355D01*
X115144300Y-78730198D01*
X115306198Y-78568300D01*
X115315540Y-78554959D01*
X115412648Y-78416274D01*
X115437523Y-78380749D01*
X115439846Y-78375767D01*
X115439849Y-78375762D01*
X115531961Y-78178225D01*
X115531961Y-78178224D01*
X115534284Y-78173243D01*
X115593543Y-77952087D01*
X115613498Y-77724000D01*
X115593543Y-77495913D01*
X115534284Y-77274757D01*
X115531961Y-77269775D01*
X115439849Y-77072238D01*
X115439846Y-77072233D01*
X115437523Y-77067251D01*
X115340370Y-76928502D01*
X115309357Y-76884211D01*
X115309355Y-76884208D01*
X115306198Y-76879700D01*
X115144300Y-76717802D01*
X115139792Y-76714645D01*
X115139789Y-76714643D01*
X114982324Y-76604385D01*
X114956749Y-76586477D01*
X114951767Y-76584154D01*
X114951762Y-76584151D01*
X114754225Y-76492039D01*
X114754224Y-76492039D01*
X114749243Y-76489716D01*
X114743935Y-76488294D01*
X114743933Y-76488293D01*
X114533402Y-76431881D01*
X114533400Y-76431881D01*
X114528087Y-76430457D01*
X114300000Y-76410502D01*
X114071913Y-76430457D01*
X114066600Y-76431881D01*
X114066598Y-76431881D01*
X113856067Y-76488293D01*
X113856065Y-76488294D01*
X113850757Y-76489716D01*
X113845776Y-76492039D01*
X113845775Y-76492039D01*
X113648238Y-76584151D01*
X113648233Y-76584154D01*
X113643251Y-76586477D01*
X113617676Y-76604385D01*
X113460211Y-76714643D01*
X113460208Y-76714645D01*
X113455700Y-76717802D01*
X113393331Y-76780171D01*
X113331019Y-76814197D01*
X113260204Y-76809132D01*
X113215141Y-76780171D01*
X112154450Y-75719480D01*
X112148596Y-75713215D01*
X112148201Y-75712762D01*
X112110561Y-75669615D01*
X112058280Y-75632871D01*
X112052986Y-75628939D01*
X112008693Y-75594209D01*
X112002718Y-75589524D01*
X111995802Y-75586401D01*
X111993516Y-75585017D01*
X111978835Y-75576643D01*
X111976475Y-75575378D01*
X111970261Y-75571010D01*
X111963182Y-75568250D01*
X111963180Y-75568249D01*
X111910725Y-75547798D01*
X111904656Y-75545247D01*
X111846427Y-75518955D01*
X111838960Y-75517571D01*
X111836405Y-75516770D01*
X111820152Y-75512141D01*
X111817572Y-75511478D01*
X111810491Y-75508718D01*
X111802960Y-75507727D01*
X111802958Y-75507726D01*
X111773339Y-75503827D01*
X111747139Y-75500378D01*
X111740641Y-75499348D01*
X111677814Y-75487704D01*
X111670234Y-75488141D01*
X111670233Y-75488141D01*
X111615608Y-75491291D01*
X111608354Y-75491500D01*
X107941277Y-75491500D01*
X107873156Y-75471498D01*
X107826663Y-75417842D01*
X107816559Y-75347568D01*
X107827082Y-75312250D01*
X107911961Y-75130226D01*
X107911963Y-75130220D01*
X107914284Y-75125243D01*
X107923113Y-75092295D01*
X107972119Y-74909402D01*
X107972119Y-74909400D01*
X107973543Y-74904087D01*
X107993498Y-74676000D01*
X112986502Y-74676000D01*
X113006457Y-74904087D01*
X113007881Y-74909400D01*
X113007881Y-74909402D01*
X113056888Y-75092295D01*
X113065716Y-75125243D01*
X113068039Y-75130224D01*
X113068039Y-75130225D01*
X113160151Y-75327762D01*
X113160154Y-75327767D01*
X113162477Y-75332749D01*
X113194991Y-75379183D01*
X113290466Y-75515535D01*
X113293802Y-75520300D01*
X113455700Y-75682198D01*
X113460208Y-75685355D01*
X113460211Y-75685357D01*
X113500941Y-75713876D01*
X113643251Y-75813523D01*
X113648233Y-75815846D01*
X113648238Y-75815849D01*
X113845775Y-75907961D01*
X113850757Y-75910284D01*
X113856065Y-75911706D01*
X113856067Y-75911707D01*
X114066598Y-75968119D01*
X114066600Y-75968119D01*
X114071913Y-75969543D01*
X114300000Y-75989498D01*
X114528087Y-75969543D01*
X114533400Y-75968119D01*
X114533402Y-75968119D01*
X114743933Y-75911707D01*
X114743935Y-75911706D01*
X114749243Y-75910284D01*
X114754225Y-75907961D01*
X114951762Y-75815849D01*
X114951767Y-75815846D01*
X114956749Y-75813523D01*
X115099059Y-75713876D01*
X115139789Y-75685357D01*
X115139792Y-75685355D01*
X115144300Y-75682198D01*
X115306198Y-75520300D01*
X115309535Y-75515535D01*
X115405009Y-75379183D01*
X115437523Y-75332749D01*
X115439846Y-75327767D01*
X115439849Y-75327762D01*
X115531961Y-75130225D01*
X115531961Y-75130224D01*
X115534284Y-75125243D01*
X115543113Y-75092295D01*
X115592119Y-74909402D01*
X115592119Y-74909400D01*
X115593543Y-74904087D01*
X115613019Y-74681475D01*
X118147788Y-74681475D01*
X118165557Y-74884575D01*
X118167460Y-74895368D01*
X118220226Y-75092295D01*
X118223972Y-75102587D01*
X118310135Y-75287364D01*
X118315613Y-75296850D01*
X118339949Y-75331607D01*
X118350428Y-75339983D01*
X118363872Y-75332917D01*
X119007979Y-74688811D01*
X119014356Y-74677132D01*
X119744408Y-74677132D01*
X119744539Y-74678966D01*
X119748790Y-74685580D01*
X120396851Y-75333640D01*
X120408621Y-75340067D01*
X120420635Y-75330772D01*
X120444387Y-75296850D01*
X120449865Y-75287364D01*
X120536028Y-75102587D01*
X120539774Y-75092295D01*
X120592540Y-74895368D01*
X120594443Y-74884575D01*
X120612212Y-74681475D01*
X120612212Y-74670525D01*
X120594443Y-74467425D01*
X120592540Y-74456632D01*
X120539774Y-74259705D01*
X120536028Y-74249413D01*
X120449865Y-74064636D01*
X120444387Y-74055150D01*
X120420051Y-74020393D01*
X120409572Y-74012017D01*
X120396128Y-74019083D01*
X119752021Y-74663189D01*
X119744408Y-74677132D01*
X119014356Y-74677132D01*
X119015592Y-74674868D01*
X119015461Y-74673034D01*
X119011210Y-74666420D01*
X118363149Y-74018360D01*
X118351379Y-74011933D01*
X118339365Y-74021228D01*
X118315613Y-74055150D01*
X118310135Y-74064636D01*
X118223972Y-74249413D01*
X118220226Y-74259705D01*
X118167460Y-74456632D01*
X118165557Y-74467425D01*
X118147788Y-74670525D01*
X118147788Y-74681475D01*
X115613019Y-74681475D01*
X115613498Y-74676000D01*
X115593543Y-74447913D01*
X115556981Y-74311461D01*
X115535707Y-74232067D01*
X115535706Y-74232065D01*
X115534284Y-74226757D01*
X115477153Y-74104238D01*
X115439849Y-74024238D01*
X115439846Y-74024233D01*
X115437523Y-74019251D01*
X115306198Y-73831700D01*
X115144300Y-73669802D01*
X115139792Y-73666645D01*
X115139789Y-73666643D01*
X115110919Y-73646428D01*
X118716017Y-73646428D01*
X118723083Y-73659872D01*
X119367189Y-74303979D01*
X119381132Y-74311592D01*
X119382966Y-74311461D01*
X119389580Y-74307210D01*
X120037640Y-73659149D01*
X120044067Y-73647379D01*
X120034773Y-73635365D01*
X120000854Y-73611615D01*
X119991359Y-73606132D01*
X119806587Y-73519972D01*
X119796295Y-73516226D01*
X119599368Y-73463460D01*
X119588575Y-73461557D01*
X119385475Y-73443788D01*
X119374525Y-73443788D01*
X119171425Y-73461557D01*
X119160632Y-73463460D01*
X118963705Y-73516226D01*
X118953413Y-73519972D01*
X118768636Y-73606135D01*
X118759150Y-73611613D01*
X118724393Y-73635949D01*
X118716017Y-73646428D01*
X115110919Y-73646428D01*
X115053370Y-73606132D01*
X114956749Y-73538477D01*
X114951767Y-73536154D01*
X114951762Y-73536151D01*
X114754225Y-73444039D01*
X114754224Y-73444039D01*
X114749243Y-73441716D01*
X114743935Y-73440294D01*
X114743933Y-73440293D01*
X114533402Y-73383881D01*
X114533400Y-73383881D01*
X114528087Y-73382457D01*
X114300000Y-73362502D01*
X114071913Y-73382457D01*
X114066600Y-73383881D01*
X114066598Y-73383881D01*
X113856067Y-73440293D01*
X113856065Y-73440294D01*
X113850757Y-73441716D01*
X113845776Y-73444039D01*
X113845775Y-73444039D01*
X113648238Y-73536151D01*
X113648233Y-73536154D01*
X113643251Y-73538477D01*
X113546630Y-73606132D01*
X113460211Y-73666643D01*
X113460208Y-73666645D01*
X113455700Y-73669802D01*
X113293802Y-73831700D01*
X113162477Y-74019251D01*
X113160154Y-74024233D01*
X113160151Y-74024238D01*
X113122847Y-74104238D01*
X113065716Y-74226757D01*
X113064294Y-74232065D01*
X113064293Y-74232067D01*
X113043019Y-74311461D01*
X113006457Y-74447913D01*
X112986502Y-74676000D01*
X107993498Y-74676000D01*
X107973543Y-74447913D01*
X107936981Y-74311461D01*
X107915707Y-74232067D01*
X107915706Y-74232065D01*
X107914284Y-74226757D01*
X107857153Y-74104238D01*
X107819849Y-74024238D01*
X107819846Y-74024233D01*
X107817523Y-74019251D01*
X107686198Y-73831700D01*
X107524300Y-73669802D01*
X107519792Y-73666645D01*
X107519789Y-73666643D01*
X107433370Y-73606132D01*
X107336749Y-73538477D01*
X107331767Y-73536154D01*
X107331762Y-73536151D01*
X107134225Y-73444039D01*
X107134224Y-73444039D01*
X107129243Y-73441716D01*
X107123935Y-73440294D01*
X107123933Y-73440293D01*
X106913402Y-73383881D01*
X106913400Y-73383881D01*
X106908087Y-73382457D01*
X106680000Y-73362502D01*
X106451913Y-73382457D01*
X106446600Y-73383881D01*
X106446598Y-73383881D01*
X106236067Y-73440293D01*
X106236065Y-73440294D01*
X106230757Y-73441716D01*
X106225776Y-73444039D01*
X106225775Y-73444039D01*
X106028238Y-73536151D01*
X106028233Y-73536154D01*
X106023251Y-73538477D01*
X105926630Y-73606132D01*
X105840211Y-73666643D01*
X105840208Y-73666645D01*
X105835700Y-73669802D01*
X105673802Y-73831700D01*
X105542477Y-74019251D01*
X105540154Y-74024233D01*
X105540151Y-74024238D01*
X105502847Y-74104238D01*
X105445716Y-74226757D01*
X105444294Y-74232065D01*
X105444293Y-74232067D01*
X105423019Y-74311461D01*
X105386457Y-74447913D01*
X105366502Y-74676000D01*
X105386457Y-74904087D01*
X105387881Y-74909400D01*
X105387881Y-74909402D01*
X105436888Y-75092295D01*
X105445716Y-75125243D01*
X105448037Y-75130220D01*
X105448039Y-75130226D01*
X105532918Y-75312250D01*
X105543579Y-75382442D01*
X105514599Y-75447255D01*
X105455179Y-75486111D01*
X105418723Y-75491500D01*
X103897660Y-75491500D01*
X103829539Y-75471498D01*
X103808565Y-75454595D01*
X103437982Y-75084012D01*
X103403956Y-75021700D01*
X103401556Y-74983935D01*
X103409022Y-74898607D01*
X103421498Y-74756000D01*
X103401543Y-74527913D01*
X103342284Y-74306757D01*
X103339961Y-74301775D01*
X103247849Y-74104238D01*
X103247846Y-74104233D01*
X103245523Y-74099251D01*
X103114198Y-73911700D01*
X102952300Y-73749802D01*
X102947792Y-73746645D01*
X102947789Y-73746643D01*
X102804667Y-73646428D01*
X102764749Y-73618477D01*
X102759767Y-73616154D01*
X102759762Y-73616151D01*
X102562225Y-73524039D01*
X102562224Y-73524039D01*
X102557243Y-73521716D01*
X102551935Y-73520294D01*
X102551933Y-73520293D01*
X102341402Y-73463881D01*
X102341400Y-73463881D01*
X102336087Y-73462457D01*
X102108000Y-73442502D01*
X101879913Y-73462457D01*
X101874600Y-73463881D01*
X101874598Y-73463881D01*
X101664067Y-73520293D01*
X101664065Y-73520294D01*
X101658757Y-73521716D01*
X101653776Y-73524039D01*
X101653775Y-73524039D01*
X101456238Y-73616151D01*
X101456233Y-73616154D01*
X101451251Y-73618477D01*
X101411333Y-73646428D01*
X101268211Y-73746643D01*
X101268208Y-73746645D01*
X101263700Y-73749802D01*
X101101802Y-73911700D01*
X100970477Y-74099251D01*
X100968154Y-74104233D01*
X100968151Y-74104238D01*
X100876039Y-74301775D01*
X100873716Y-74306757D01*
X100814457Y-74527913D01*
X100794502Y-74756000D01*
X97325498Y-74756000D01*
X97305543Y-74527913D01*
X97246284Y-74306757D01*
X97243961Y-74301775D01*
X97151849Y-74104238D01*
X97151846Y-74104233D01*
X97149523Y-74099251D01*
X97018198Y-73911700D01*
X96856300Y-73749802D01*
X96851792Y-73746645D01*
X96851789Y-73746643D01*
X96708667Y-73646428D01*
X96668749Y-73618477D01*
X96663767Y-73616154D01*
X96663762Y-73616151D01*
X96466225Y-73524039D01*
X96466224Y-73524039D01*
X96461243Y-73521716D01*
X96455935Y-73520294D01*
X96455933Y-73520293D01*
X96245402Y-73463881D01*
X96245400Y-73463881D01*
X96240087Y-73462457D01*
X96012000Y-73442502D01*
X95783913Y-73462457D01*
X95778600Y-73463881D01*
X95778598Y-73463881D01*
X95568067Y-73520293D01*
X95568065Y-73520294D01*
X95562757Y-73521716D01*
X95557776Y-73524039D01*
X95557775Y-73524039D01*
X95360238Y-73616151D01*
X95360233Y-73616154D01*
X95355251Y-73618477D01*
X95315333Y-73646428D01*
X95172211Y-73746643D01*
X95172208Y-73746645D01*
X95167700Y-73749802D01*
X95005802Y-73911700D01*
X94874477Y-74099251D01*
X94872154Y-74104233D01*
X94872151Y-74104238D01*
X94780039Y-74301775D01*
X94777716Y-74306757D01*
X94718457Y-74527913D01*
X94698502Y-74756000D01*
X94710979Y-74898607D01*
X94718444Y-74983935D01*
X94704455Y-75053540D01*
X94682018Y-75084012D01*
X94311435Y-75454595D01*
X94249123Y-75488621D01*
X94222340Y-75491500D01*
X92741277Y-75491500D01*
X92673156Y-75471498D01*
X92626663Y-75417842D01*
X92616559Y-75347568D01*
X92627082Y-75312250D01*
X92711961Y-75130226D01*
X92711963Y-75130220D01*
X92714284Y-75125243D01*
X92723113Y-75092295D01*
X92772119Y-74909402D01*
X92772119Y-74909400D01*
X92773543Y-74904087D01*
X92793498Y-74676000D01*
X92773543Y-74447913D01*
X92736981Y-74311461D01*
X92715707Y-74232067D01*
X92715706Y-74232065D01*
X92714284Y-74226757D01*
X92657153Y-74104238D01*
X92619849Y-74024238D01*
X92619846Y-74024233D01*
X92617523Y-74019251D01*
X92486198Y-73831700D01*
X92324300Y-73669802D01*
X92319792Y-73666645D01*
X92319789Y-73666643D01*
X92233370Y-73606132D01*
X92136749Y-73538477D01*
X92131767Y-73536154D01*
X92131762Y-73536151D01*
X91934225Y-73444039D01*
X91934224Y-73444039D01*
X91929243Y-73441716D01*
X91923935Y-73440294D01*
X91923933Y-73440293D01*
X91713402Y-73383881D01*
X91713400Y-73383881D01*
X91708087Y-73382457D01*
X91480000Y-73362502D01*
X91251913Y-73382457D01*
X91246600Y-73383881D01*
X91246598Y-73383881D01*
X91036067Y-73440293D01*
X91036065Y-73440294D01*
X91030757Y-73441716D01*
X91025776Y-73444039D01*
X91025775Y-73444039D01*
X90828238Y-73536151D01*
X90828233Y-73536154D01*
X90823251Y-73538477D01*
X90726630Y-73606132D01*
X90640211Y-73666643D01*
X90640208Y-73666645D01*
X90635700Y-73669802D01*
X90473802Y-73831700D01*
X90342477Y-74019251D01*
X90340154Y-74024233D01*
X90340151Y-74024238D01*
X90302847Y-74104238D01*
X90245716Y-74226757D01*
X90244294Y-74232065D01*
X90244293Y-74232067D01*
X90223019Y-74311461D01*
X90186457Y-74447913D01*
X90166502Y-74676000D01*
X90186457Y-74904087D01*
X90187881Y-74909400D01*
X90187881Y-74909402D01*
X90236888Y-75092295D01*
X90245716Y-75125243D01*
X90248037Y-75130220D01*
X90248039Y-75130226D01*
X90332918Y-75312250D01*
X90343579Y-75382442D01*
X90314599Y-75447255D01*
X90255179Y-75486111D01*
X90218723Y-75491500D01*
X85412911Y-75491500D01*
X85404342Y-75491208D01*
X85354223Y-75487791D01*
X85354219Y-75487791D01*
X85346647Y-75487275D01*
X85283685Y-75498264D01*
X85277195Y-75499221D01*
X85213758Y-75506898D01*
X85206649Y-75509584D01*
X85204078Y-75510216D01*
X85187772Y-75514676D01*
X85185204Y-75515451D01*
X85177716Y-75516758D01*
X85170755Y-75519814D01*
X85170754Y-75519814D01*
X85143371Y-75531834D01*
X85072956Y-75540900D01*
X85008817Y-75510458D01*
X84971318Y-75450172D01*
X84972366Y-75379183D01*
X84989512Y-75344191D01*
X84994363Y-75337263D01*
X84994367Y-75337257D01*
X84997523Y-75332749D01*
X84999846Y-75327767D01*
X84999849Y-75327762D01*
X85091961Y-75130225D01*
X85091961Y-75130224D01*
X85094284Y-75125243D01*
X85103113Y-75092295D01*
X85152119Y-74909402D01*
X85152119Y-74909400D01*
X85153543Y-74904087D01*
X85173498Y-74676000D01*
X85153543Y-74447913D01*
X85116981Y-74311461D01*
X85095707Y-74232067D01*
X85095706Y-74232065D01*
X85094284Y-74226757D01*
X85037153Y-74104238D01*
X84999849Y-74024238D01*
X84999846Y-74024233D01*
X84997523Y-74019251D01*
X84866198Y-73831700D01*
X84704300Y-73669802D01*
X84699792Y-73666645D01*
X84699789Y-73666643D01*
X84613370Y-73606132D01*
X84516749Y-73538477D01*
X84511767Y-73536154D01*
X84511762Y-73536151D01*
X84314225Y-73444039D01*
X84314224Y-73444039D01*
X84309243Y-73441716D01*
X84303935Y-73440294D01*
X84303933Y-73440293D01*
X84093402Y-73383881D01*
X84093400Y-73383881D01*
X84088087Y-73382457D01*
X83860000Y-73362502D01*
X83631913Y-73382457D01*
X83626600Y-73383881D01*
X83626598Y-73383881D01*
X83416067Y-73440293D01*
X83416065Y-73440294D01*
X83410757Y-73441716D01*
X83405776Y-73444039D01*
X83405775Y-73444039D01*
X83208238Y-73536151D01*
X83208233Y-73536154D01*
X83203251Y-73538477D01*
X83106630Y-73606132D01*
X83020211Y-73666643D01*
X83020208Y-73666645D01*
X83015700Y-73669802D01*
X82853802Y-73831700D01*
X82722477Y-74019251D01*
X82720154Y-74024233D01*
X82720151Y-74024238D01*
X82682847Y-74104238D01*
X82625716Y-74226757D01*
X82624294Y-74232065D01*
X82624293Y-74232067D01*
X82603019Y-74311461D01*
X82566457Y-74447913D01*
X82546502Y-74676000D01*
X82566457Y-74904087D01*
X82567881Y-74909400D01*
X82567881Y-74909402D01*
X82616888Y-75092295D01*
X82625716Y-75125243D01*
X82628039Y-75130224D01*
X82628039Y-75130225D01*
X82720151Y-75327762D01*
X82720154Y-75327767D01*
X82722477Y-75332749D01*
X82754991Y-75379183D01*
X82850466Y-75515535D01*
X82853802Y-75520300D01*
X83015700Y-75682198D01*
X83020208Y-75685355D01*
X83020211Y-75685357D01*
X83060941Y-75713876D01*
X83203251Y-75813523D01*
X83208233Y-75815846D01*
X83208238Y-75815849D01*
X83405775Y-75907961D01*
X83410757Y-75910284D01*
X83416065Y-75911706D01*
X83416067Y-75911707D01*
X83626598Y-75968119D01*
X83626600Y-75968119D01*
X83631913Y-75969543D01*
X83860000Y-75989498D01*
X84088087Y-75969543D01*
X84093400Y-75968119D01*
X84093402Y-75968119D01*
X84303933Y-75911707D01*
X84303935Y-75911706D01*
X84309243Y-75910284D01*
X84314220Y-75907963D01*
X84314226Y-75907961D01*
X84340849Y-75895546D01*
X84411041Y-75884885D01*
X84475854Y-75913865D01*
X84514710Y-75973285D01*
X84515273Y-76044279D01*
X84483194Y-76098836D01*
X84188012Y-76394018D01*
X84125700Y-76428044D01*
X84087937Y-76430444D01*
X83860000Y-76410502D01*
X83631913Y-76430457D01*
X83626600Y-76431881D01*
X83626598Y-76431881D01*
X83416067Y-76488293D01*
X83416065Y-76488294D01*
X83410757Y-76489716D01*
X83405776Y-76492039D01*
X83405775Y-76492039D01*
X83208238Y-76584151D01*
X83208233Y-76584154D01*
X83203251Y-76586477D01*
X83177676Y-76604385D01*
X83020211Y-76714643D01*
X83020208Y-76714645D01*
X83015700Y-76717802D01*
X82853802Y-76879700D01*
X82850645Y-76884208D01*
X82850643Y-76884211D01*
X82819630Y-76928502D01*
X82722477Y-77067251D01*
X82720154Y-77072233D01*
X82720151Y-77072238D01*
X82628039Y-77269775D01*
X82625716Y-77274757D01*
X82566457Y-77495913D01*
X82546502Y-77724000D01*
X79858616Y-77724000D01*
X79896499Y-77642759D01*
X79896500Y-77642757D01*
X79898822Y-77637777D01*
X79954458Y-77430142D01*
X79973193Y-77216000D01*
X79954458Y-77001858D01*
X79953034Y-76996543D01*
X79900245Y-76799533D01*
X79900244Y-76799531D01*
X79898822Y-76794223D01*
X79896499Y-76789241D01*
X79810299Y-76604385D01*
X79810297Y-76604382D01*
X79807976Y-76599404D01*
X79684681Y-76423319D01*
X79532681Y-76271319D01*
X79356597Y-76148024D01*
X79351619Y-76145703D01*
X79351616Y-76145701D01*
X79167656Y-76059919D01*
X79114371Y-76013002D01*
X79094910Y-75944724D01*
X79115452Y-75876764D01*
X79167656Y-75831529D01*
X79351359Y-75745868D01*
X79360854Y-75740385D01*
X79395607Y-75716051D01*
X79403983Y-75705572D01*
X79396916Y-75692127D01*
X78752811Y-75048021D01*
X78738868Y-75040408D01*
X78737034Y-75040539D01*
X78730420Y-75044790D01*
X78082360Y-75692851D01*
X78075933Y-75704621D01*
X78085227Y-75716635D01*
X78119146Y-75740385D01*
X78128641Y-75745868D01*
X78312344Y-75831529D01*
X78365629Y-75878446D01*
X78385090Y-75946723D01*
X78364548Y-76014683D01*
X78312344Y-76059919D01*
X78128385Y-76145701D01*
X78128382Y-76145703D01*
X78123404Y-76148024D01*
X77947319Y-76271319D01*
X77795319Y-76423319D01*
X77672024Y-76599404D01*
X77669703Y-76604382D01*
X77669701Y-76604385D01*
X77583501Y-76789241D01*
X77581178Y-76794223D01*
X77579756Y-76799531D01*
X77579755Y-76799533D01*
X77526966Y-76996543D01*
X77525542Y-77001858D01*
X77506807Y-77216000D01*
X77525542Y-77430142D01*
X77581178Y-77637777D01*
X77583500Y-77642757D01*
X77583501Y-77642759D01*
X77623938Y-77729475D01*
X77672024Y-77832596D01*
X77795319Y-78008681D01*
X77947319Y-78160681D01*
X78123403Y-78283976D01*
X78128381Y-78286297D01*
X78128384Y-78286299D01*
X78311753Y-78371805D01*
X78365038Y-78418722D01*
X78384499Y-78487000D01*
X78363957Y-78554959D01*
X78311753Y-78600195D01*
X78128385Y-78685701D01*
X78128382Y-78685703D01*
X78123404Y-78688024D01*
X77947319Y-78811319D01*
X77795319Y-78963319D01*
X77672024Y-79139404D01*
X77669703Y-79144382D01*
X77669701Y-79144385D01*
X77591429Y-79312239D01*
X77581178Y-79334223D01*
X77579756Y-79339531D01*
X77579755Y-79339533D01*
X77527033Y-79536293D01*
X77525542Y-79541858D01*
X77506807Y-79756000D01*
X75259500Y-79756000D01*
X75259500Y-74681475D01*
X77507788Y-74681475D01*
X77525557Y-74884575D01*
X77527460Y-74895368D01*
X77580226Y-75092295D01*
X77583972Y-75102587D01*
X77670135Y-75287364D01*
X77675613Y-75296850D01*
X77699949Y-75331607D01*
X77710428Y-75339983D01*
X77723872Y-75332917D01*
X78367979Y-74688811D01*
X78374356Y-74677132D01*
X79104408Y-74677132D01*
X79104539Y-74678966D01*
X79108790Y-74685580D01*
X79756851Y-75333640D01*
X79768621Y-75340067D01*
X79780635Y-75330772D01*
X79804387Y-75296850D01*
X79809865Y-75287364D01*
X79896028Y-75102587D01*
X79899774Y-75092295D01*
X79952540Y-74895368D01*
X79954443Y-74884575D01*
X79972212Y-74681475D01*
X79972212Y-74670525D01*
X79954443Y-74467425D01*
X79952540Y-74456632D01*
X79899774Y-74259705D01*
X79896028Y-74249413D01*
X79809865Y-74064636D01*
X79804387Y-74055150D01*
X79780051Y-74020393D01*
X79769572Y-74012017D01*
X79756128Y-74019083D01*
X79112021Y-74663189D01*
X79104408Y-74677132D01*
X78374356Y-74677132D01*
X78375592Y-74674868D01*
X78375461Y-74673034D01*
X78371210Y-74666420D01*
X77723149Y-74018360D01*
X77711379Y-74011933D01*
X77699365Y-74021228D01*
X77675613Y-74055150D01*
X77670135Y-74064636D01*
X77583972Y-74249413D01*
X77580226Y-74259705D01*
X77527460Y-74456632D01*
X77525557Y-74467425D01*
X77507788Y-74670525D01*
X77507788Y-74681475D01*
X75259500Y-74681475D01*
X75259500Y-73646428D01*
X78076017Y-73646428D01*
X78083083Y-73659872D01*
X78727189Y-74303979D01*
X78741132Y-74311592D01*
X78742966Y-74311461D01*
X78749580Y-74307210D01*
X79397640Y-73659149D01*
X79404067Y-73647379D01*
X79394773Y-73635365D01*
X79360854Y-73611615D01*
X79351359Y-73606132D01*
X79166587Y-73519972D01*
X79156295Y-73516226D01*
X78959368Y-73463460D01*
X78948575Y-73461557D01*
X78745475Y-73443788D01*
X78734525Y-73443788D01*
X78531425Y-73461557D01*
X78520632Y-73463460D01*
X78323705Y-73516226D01*
X78313413Y-73519972D01*
X78128636Y-73606135D01*
X78119150Y-73611613D01*
X78084393Y-73635949D01*
X78076017Y-73646428D01*
X75259500Y-73646428D01*
X75259500Y-71628000D01*
X82546502Y-71628000D01*
X82566457Y-71856087D01*
X82567881Y-71861400D01*
X82567881Y-71861402D01*
X82570123Y-71869767D01*
X82625716Y-72077243D01*
X82628039Y-72082224D01*
X82628039Y-72082225D01*
X82720151Y-72279762D01*
X82720154Y-72279767D01*
X82722477Y-72284749D01*
X82853802Y-72472300D01*
X83015700Y-72634198D01*
X83020208Y-72637355D01*
X83020211Y-72637357D01*
X83098389Y-72692098D01*
X83203251Y-72765523D01*
X83208233Y-72767846D01*
X83208238Y-72767849D01*
X83405775Y-72859961D01*
X83410757Y-72862284D01*
X83416065Y-72863706D01*
X83416067Y-72863707D01*
X83626598Y-72920119D01*
X83626600Y-72920119D01*
X83631913Y-72921543D01*
X83860000Y-72941498D01*
X84088087Y-72921543D01*
X84093400Y-72920119D01*
X84093402Y-72920119D01*
X84303933Y-72863707D01*
X84303935Y-72863706D01*
X84309243Y-72862284D01*
X84314225Y-72859961D01*
X84511762Y-72767849D01*
X84511767Y-72767846D01*
X84516749Y-72765523D01*
X84621611Y-72692098D01*
X84699789Y-72637357D01*
X84699792Y-72637355D01*
X84704300Y-72634198D01*
X84866198Y-72472300D01*
X84997523Y-72284749D01*
X84999846Y-72279767D01*
X84999849Y-72279762D01*
X85091961Y-72082225D01*
X85091961Y-72082224D01*
X85094284Y-72077243D01*
X85149878Y-71869767D01*
X85152119Y-71861402D01*
X85152119Y-71861400D01*
X85153543Y-71856087D01*
X85173498Y-71628000D01*
X90166502Y-71628000D01*
X90186457Y-71856087D01*
X90187881Y-71861400D01*
X90187881Y-71861402D01*
X90190123Y-71869767D01*
X90245716Y-72077243D01*
X90248039Y-72082224D01*
X90248039Y-72082225D01*
X90340151Y-72279762D01*
X90340154Y-72279767D01*
X90342477Y-72284749D01*
X90473802Y-72472300D01*
X90635700Y-72634198D01*
X90640208Y-72637355D01*
X90640211Y-72637357D01*
X90718389Y-72692098D01*
X90823251Y-72765523D01*
X90828233Y-72767846D01*
X90828238Y-72767849D01*
X91025775Y-72859961D01*
X91030757Y-72862284D01*
X91036065Y-72863706D01*
X91036067Y-72863707D01*
X91246598Y-72920119D01*
X91246600Y-72920119D01*
X91251913Y-72921543D01*
X91480000Y-72941498D01*
X91708087Y-72921543D01*
X91713400Y-72920119D01*
X91713402Y-72920119D01*
X91923933Y-72863707D01*
X91923935Y-72863706D01*
X91929243Y-72862284D01*
X91934225Y-72859961D01*
X92131762Y-72767849D01*
X92131767Y-72767846D01*
X92136749Y-72765523D01*
X92241611Y-72692098D01*
X92319789Y-72637357D01*
X92319792Y-72637355D01*
X92324300Y-72634198D01*
X92486198Y-72472300D01*
X92617523Y-72284749D01*
X92619846Y-72279767D01*
X92619849Y-72279762D01*
X92711961Y-72082225D01*
X92711961Y-72082224D01*
X92714284Y-72077243D01*
X92769878Y-71869767D01*
X92772119Y-71861402D01*
X92772119Y-71861400D01*
X92773543Y-71856087D01*
X92793498Y-71628000D01*
X92773543Y-71399913D01*
X92727192Y-71226930D01*
X92715707Y-71184067D01*
X92715706Y-71184065D01*
X92714284Y-71178757D01*
X92711961Y-71173775D01*
X92619849Y-70976238D01*
X92619846Y-70976233D01*
X92617523Y-70971251D01*
X92486198Y-70783700D01*
X92324300Y-70621802D01*
X92319792Y-70618645D01*
X92319789Y-70618643D01*
X92160109Y-70506834D01*
X92136749Y-70490477D01*
X92131767Y-70488154D01*
X92131762Y-70488151D01*
X91934225Y-70396039D01*
X91934224Y-70396039D01*
X91929243Y-70393716D01*
X91923935Y-70392294D01*
X91923933Y-70392293D01*
X91713402Y-70335881D01*
X91713400Y-70335881D01*
X91708087Y-70334457D01*
X91480000Y-70314502D01*
X91251913Y-70334457D01*
X91246600Y-70335881D01*
X91246598Y-70335881D01*
X91036067Y-70392293D01*
X91036065Y-70392294D01*
X91030757Y-70393716D01*
X91025776Y-70396039D01*
X91025775Y-70396039D01*
X90828238Y-70488151D01*
X90828233Y-70488154D01*
X90823251Y-70490477D01*
X90799891Y-70506834D01*
X90640211Y-70618643D01*
X90640208Y-70618645D01*
X90635700Y-70621802D01*
X90473802Y-70783700D01*
X90342477Y-70971251D01*
X90340154Y-70976233D01*
X90340151Y-70976238D01*
X90248039Y-71173775D01*
X90245716Y-71178757D01*
X90244294Y-71184065D01*
X90244293Y-71184067D01*
X90232808Y-71226930D01*
X90186457Y-71399913D01*
X90166502Y-71628000D01*
X85173498Y-71628000D01*
X85153543Y-71399913D01*
X85107192Y-71226930D01*
X85095707Y-71184067D01*
X85095706Y-71184065D01*
X85094284Y-71178757D01*
X85091961Y-71173775D01*
X84999849Y-70976238D01*
X84999846Y-70976233D01*
X84997523Y-70971251D01*
X84866198Y-70783700D01*
X84704300Y-70621802D01*
X84699792Y-70618645D01*
X84699789Y-70618643D01*
X84540109Y-70506834D01*
X84516749Y-70490477D01*
X84511767Y-70488154D01*
X84511762Y-70488151D01*
X84314225Y-70396039D01*
X84314224Y-70396039D01*
X84309243Y-70393716D01*
X84303935Y-70392294D01*
X84303933Y-70392293D01*
X84093402Y-70335881D01*
X84093400Y-70335881D01*
X84088087Y-70334457D01*
X83860000Y-70314502D01*
X83631913Y-70334457D01*
X83626600Y-70335881D01*
X83626598Y-70335881D01*
X83416067Y-70392293D01*
X83416065Y-70392294D01*
X83410757Y-70393716D01*
X83405776Y-70396039D01*
X83405775Y-70396039D01*
X83208238Y-70488151D01*
X83208233Y-70488154D01*
X83203251Y-70490477D01*
X83179891Y-70506834D01*
X83020211Y-70618643D01*
X83020208Y-70618645D01*
X83015700Y-70621802D01*
X82853802Y-70783700D01*
X82722477Y-70971251D01*
X82720154Y-70976233D01*
X82720151Y-70976238D01*
X82628039Y-71173775D01*
X82625716Y-71178757D01*
X82624294Y-71184065D01*
X82624293Y-71184067D01*
X82612808Y-71226930D01*
X82566457Y-71399913D01*
X82546502Y-71628000D01*
X75259500Y-71628000D01*
X75259500Y-69955122D01*
X93454001Y-69955122D01*
X93454051Y-69956851D01*
X93455470Y-69966771D01*
X93492200Y-70125867D01*
X93496850Y-70139070D01*
X93567171Y-70284535D01*
X93574637Y-70296391D01*
X93675439Y-70422665D01*
X93685335Y-70432561D01*
X93811609Y-70533363D01*
X93823465Y-70540829D01*
X93968930Y-70611150D01*
X93982133Y-70615800D01*
X94141236Y-70652532D01*
X94151133Y-70653949D01*
X94152907Y-70654000D01*
X94589885Y-70654000D01*
X94605124Y-70649525D01*
X94606329Y-70648135D01*
X94608000Y-70640452D01*
X94608000Y-70635884D01*
X95116000Y-70635884D01*
X95120475Y-70651123D01*
X95121865Y-70652328D01*
X95129548Y-70653999D01*
X95397500Y-70653999D01*
X95465621Y-70674001D01*
X95512114Y-70727657D01*
X95523500Y-70779999D01*
X95523500Y-71464134D01*
X95530255Y-71526316D01*
X95581385Y-71662705D01*
X95668739Y-71779261D01*
X95785295Y-71866615D01*
X95921684Y-71917745D01*
X95983866Y-71924500D01*
X97880134Y-71924500D01*
X97942316Y-71917745D01*
X98078705Y-71866615D01*
X98195261Y-71779261D01*
X98282615Y-71662705D01*
X98333745Y-71526316D01*
X98340500Y-71464134D01*
X98340500Y-71226992D01*
X99779500Y-71226992D01*
X99779767Y-71231623D01*
X99819309Y-71402895D01*
X99822375Y-71409237D01*
X99875175Y-71518460D01*
X99895812Y-71561151D01*
X100005476Y-71698524D01*
X100142849Y-71808188D01*
X100301105Y-71884691D01*
X100472377Y-71924233D01*
X100477008Y-71924500D01*
X101898992Y-71924500D01*
X101903623Y-71924233D01*
X102074895Y-71884691D01*
X102233151Y-71808188D01*
X102370524Y-71698524D01*
X102426823Y-71628000D01*
X105366502Y-71628000D01*
X105386457Y-71856087D01*
X105387881Y-71861400D01*
X105387881Y-71861402D01*
X105390123Y-71869767D01*
X105445716Y-72077243D01*
X105448039Y-72082224D01*
X105448039Y-72082225D01*
X105540151Y-72279762D01*
X105540154Y-72279767D01*
X105542477Y-72284749D01*
X105673802Y-72472300D01*
X105835700Y-72634198D01*
X105840208Y-72637355D01*
X105840211Y-72637357D01*
X105918389Y-72692098D01*
X106023251Y-72765523D01*
X106028233Y-72767846D01*
X106028238Y-72767849D01*
X106225775Y-72859961D01*
X106230757Y-72862284D01*
X106236065Y-72863706D01*
X106236067Y-72863707D01*
X106446598Y-72920119D01*
X106446600Y-72920119D01*
X106451913Y-72921543D01*
X106680000Y-72941498D01*
X106908087Y-72921543D01*
X106913400Y-72920119D01*
X106913402Y-72920119D01*
X107123933Y-72863707D01*
X107123935Y-72863706D01*
X107129243Y-72862284D01*
X107134225Y-72859961D01*
X107331762Y-72767849D01*
X107331767Y-72767846D01*
X107336749Y-72765523D01*
X107441611Y-72692098D01*
X107519789Y-72637357D01*
X107519792Y-72637355D01*
X107524300Y-72634198D01*
X107686198Y-72472300D01*
X107817523Y-72284749D01*
X107819846Y-72279767D01*
X107819849Y-72279762D01*
X107911961Y-72082225D01*
X107911961Y-72082224D01*
X107914284Y-72077243D01*
X107969878Y-71869767D01*
X107972119Y-71861402D01*
X107972119Y-71861400D01*
X107973543Y-71856087D01*
X107993498Y-71628000D01*
X112986502Y-71628000D01*
X113006457Y-71856087D01*
X113007881Y-71861400D01*
X113007881Y-71861402D01*
X113010123Y-71869767D01*
X113065716Y-72077243D01*
X113068039Y-72082224D01*
X113068039Y-72082225D01*
X113160151Y-72279762D01*
X113160154Y-72279767D01*
X113162477Y-72284749D01*
X113293802Y-72472300D01*
X113455700Y-72634198D01*
X113460208Y-72637355D01*
X113460211Y-72637357D01*
X113538389Y-72692098D01*
X113643251Y-72765523D01*
X113648233Y-72767846D01*
X113648238Y-72767849D01*
X113845775Y-72859961D01*
X113850757Y-72862284D01*
X113856065Y-72863706D01*
X113856067Y-72863707D01*
X114066598Y-72920119D01*
X114066600Y-72920119D01*
X114071913Y-72921543D01*
X114300000Y-72941498D01*
X114528087Y-72921543D01*
X114533400Y-72920119D01*
X114533402Y-72920119D01*
X114743933Y-72863707D01*
X114743935Y-72863706D01*
X114749243Y-72862284D01*
X114754225Y-72859961D01*
X114951762Y-72767849D01*
X114951767Y-72767846D01*
X114956749Y-72765523D01*
X115061611Y-72692098D01*
X115139789Y-72637357D01*
X115139792Y-72637355D01*
X115144300Y-72634198D01*
X115306198Y-72472300D01*
X115437523Y-72284749D01*
X115439846Y-72279767D01*
X115439849Y-72279762D01*
X115531961Y-72082225D01*
X115531961Y-72082224D01*
X115534284Y-72077243D01*
X115589878Y-71869767D01*
X115592119Y-71861402D01*
X115592119Y-71861400D01*
X115593543Y-71856087D01*
X115613498Y-71628000D01*
X115593543Y-71399913D01*
X115547192Y-71226930D01*
X115535707Y-71184067D01*
X115535706Y-71184065D01*
X115534284Y-71178757D01*
X115531961Y-71173775D01*
X115439849Y-70976238D01*
X115439846Y-70976233D01*
X115437523Y-70971251D01*
X115306198Y-70783700D01*
X115144300Y-70621802D01*
X115139792Y-70618645D01*
X115139789Y-70618643D01*
X114980109Y-70506834D01*
X114956749Y-70490477D01*
X114951767Y-70488154D01*
X114951762Y-70488151D01*
X114754225Y-70396039D01*
X114754224Y-70396039D01*
X114749243Y-70393716D01*
X114743935Y-70392294D01*
X114743933Y-70392293D01*
X114533402Y-70335881D01*
X114533400Y-70335881D01*
X114528087Y-70334457D01*
X114300000Y-70314502D01*
X114071913Y-70334457D01*
X114066600Y-70335881D01*
X114066598Y-70335881D01*
X113856067Y-70392293D01*
X113856065Y-70392294D01*
X113850757Y-70393716D01*
X113845776Y-70396039D01*
X113845775Y-70396039D01*
X113648238Y-70488151D01*
X113648233Y-70488154D01*
X113643251Y-70490477D01*
X113619891Y-70506834D01*
X113460211Y-70618643D01*
X113460208Y-70618645D01*
X113455700Y-70621802D01*
X113293802Y-70783700D01*
X113162477Y-70971251D01*
X113160154Y-70976233D01*
X113160151Y-70976238D01*
X113068039Y-71173775D01*
X113065716Y-71178757D01*
X113064294Y-71184065D01*
X113064293Y-71184067D01*
X113052808Y-71226930D01*
X113006457Y-71399913D01*
X112986502Y-71628000D01*
X107993498Y-71628000D01*
X107973543Y-71399913D01*
X107927192Y-71226930D01*
X107915707Y-71184067D01*
X107915706Y-71184065D01*
X107914284Y-71178757D01*
X107911961Y-71173775D01*
X107819849Y-70976238D01*
X107819846Y-70976233D01*
X107817523Y-70971251D01*
X107686198Y-70783700D01*
X107524300Y-70621802D01*
X107519792Y-70618645D01*
X107519789Y-70618643D01*
X107360109Y-70506834D01*
X107336749Y-70490477D01*
X107331767Y-70488154D01*
X107331762Y-70488151D01*
X107134225Y-70396039D01*
X107134224Y-70396039D01*
X107129243Y-70393716D01*
X107123935Y-70392294D01*
X107123933Y-70392293D01*
X106913402Y-70335881D01*
X106913400Y-70335881D01*
X106908087Y-70334457D01*
X106680000Y-70314502D01*
X106451913Y-70334457D01*
X106446600Y-70335881D01*
X106446598Y-70335881D01*
X106236067Y-70392293D01*
X106236065Y-70392294D01*
X106230757Y-70393716D01*
X106225776Y-70396039D01*
X106225775Y-70396039D01*
X106028238Y-70488151D01*
X106028233Y-70488154D01*
X106023251Y-70490477D01*
X105999891Y-70506834D01*
X105840211Y-70618643D01*
X105840208Y-70618645D01*
X105835700Y-70621802D01*
X105673802Y-70783700D01*
X105542477Y-70971251D01*
X105540154Y-70976233D01*
X105540151Y-70976238D01*
X105448039Y-71173775D01*
X105445716Y-71178757D01*
X105444294Y-71184065D01*
X105444293Y-71184067D01*
X105432808Y-71226930D01*
X105386457Y-71399913D01*
X105366502Y-71628000D01*
X102426823Y-71628000D01*
X102480188Y-71561151D01*
X102500826Y-71518460D01*
X102553625Y-71409237D01*
X102556691Y-71402895D01*
X102596233Y-71231623D01*
X102596500Y-71226992D01*
X102596500Y-70779999D01*
X102616502Y-70711879D01*
X102670158Y-70665386D01*
X102722500Y-70654000D01*
X102985885Y-70654000D01*
X103001124Y-70649525D01*
X103002329Y-70648135D01*
X103004000Y-70640452D01*
X103004000Y-70635884D01*
X103512000Y-70635884D01*
X103516475Y-70651123D01*
X103517865Y-70652328D01*
X103525548Y-70653999D01*
X103967122Y-70653999D01*
X103968851Y-70653949D01*
X103978771Y-70652530D01*
X104137867Y-70615800D01*
X104151070Y-70611150D01*
X104296535Y-70540829D01*
X104308391Y-70533363D01*
X104434665Y-70432561D01*
X104444561Y-70422665D01*
X104545363Y-70296391D01*
X104552829Y-70284535D01*
X104623150Y-70139070D01*
X104627800Y-70125867D01*
X104664532Y-69966764D01*
X104665949Y-69956867D01*
X104666000Y-69955093D01*
X104666000Y-69868115D01*
X104661525Y-69852876D01*
X104660135Y-69851671D01*
X104652452Y-69850000D01*
X103530115Y-69850000D01*
X103514876Y-69854475D01*
X103513671Y-69855865D01*
X103512000Y-69863548D01*
X103512000Y-70635884D01*
X103004000Y-70635884D01*
X103004000Y-69868115D01*
X102999525Y-69852876D01*
X102998135Y-69851671D01*
X102990452Y-69850000D01*
X102100909Y-69850000D01*
X102072565Y-69846771D01*
X101943740Y-69817029D01*
X101903623Y-69807767D01*
X101898992Y-69807500D01*
X100477008Y-69807500D01*
X100472377Y-69807767D01*
X100301105Y-69847309D01*
X100142849Y-69923812D01*
X100005476Y-70033476D01*
X99895812Y-70170849D01*
X99892746Y-70177191D01*
X99892745Y-70177193D01*
X99854803Y-70255682D01*
X99819309Y-70329105D01*
X99779767Y-70500377D01*
X99779500Y-70505008D01*
X99779500Y-71226992D01*
X98340500Y-71226992D01*
X98340500Y-70267866D01*
X98333745Y-70205684D01*
X98282615Y-70069295D01*
X98195261Y-69952739D01*
X98078705Y-69865385D01*
X97942316Y-69814255D01*
X97880134Y-69807500D01*
X95983866Y-69807500D01*
X95980469Y-69807869D01*
X95929534Y-69813402D01*
X95929532Y-69813402D01*
X95921684Y-69814255D01*
X95914291Y-69817027D01*
X95914289Y-69817027D01*
X95847722Y-69841982D01*
X95803493Y-69850000D01*
X95134115Y-69850000D01*
X95118876Y-69854475D01*
X95117671Y-69855865D01*
X95116000Y-69863548D01*
X95116000Y-70635884D01*
X94608000Y-70635884D01*
X94608000Y-69868115D01*
X94603525Y-69852876D01*
X94602135Y-69851671D01*
X94594452Y-69850000D01*
X93472116Y-69850000D01*
X93456877Y-69854475D01*
X93455672Y-69855865D01*
X93454001Y-69863548D01*
X93454001Y-69955122D01*
X75259500Y-69955122D01*
X75259500Y-68072000D01*
X83562502Y-68072000D01*
X83582457Y-68300087D01*
X83583881Y-68305400D01*
X83583881Y-68305402D01*
X83626470Y-68464343D01*
X83641716Y-68521243D01*
X83644039Y-68526224D01*
X83644039Y-68526225D01*
X83736151Y-68723762D01*
X83736154Y-68723767D01*
X83738477Y-68728749D01*
X83766896Y-68769335D01*
X83863616Y-68907465D01*
X83869802Y-68916300D01*
X84031700Y-69078198D01*
X84036208Y-69081355D01*
X84036211Y-69081357D01*
X84095262Y-69122705D01*
X84219251Y-69209523D01*
X84224233Y-69211846D01*
X84224238Y-69211849D01*
X84421775Y-69303961D01*
X84426757Y-69306284D01*
X84432065Y-69307706D01*
X84432067Y-69307707D01*
X84642598Y-69364119D01*
X84642600Y-69364119D01*
X84647913Y-69365543D01*
X84876000Y-69385498D01*
X85104087Y-69365543D01*
X85109400Y-69364119D01*
X85109402Y-69364119D01*
X85319933Y-69307707D01*
X85319935Y-69307706D01*
X85325243Y-69306284D01*
X85330225Y-69303961D01*
X85527762Y-69211849D01*
X85527767Y-69211846D01*
X85532749Y-69209523D01*
X85656738Y-69122705D01*
X85715789Y-69081357D01*
X85715792Y-69081355D01*
X85720300Y-69078198D01*
X85882198Y-68916300D01*
X85888385Y-68907465D01*
X85985104Y-68769335D01*
X86013523Y-68728749D01*
X86015846Y-68723767D01*
X86015849Y-68723762D01*
X86107961Y-68526225D01*
X86107961Y-68526224D01*
X86110284Y-68521243D01*
X86125531Y-68464343D01*
X86168119Y-68305402D01*
X86168119Y-68305400D01*
X86169543Y-68300087D01*
X86189498Y-68072000D01*
X88562502Y-68072000D01*
X88582457Y-68300087D01*
X88583881Y-68305400D01*
X88583881Y-68305402D01*
X88626470Y-68464343D01*
X88641716Y-68521243D01*
X88644039Y-68526224D01*
X88644039Y-68526225D01*
X88736151Y-68723762D01*
X88736154Y-68723767D01*
X88738477Y-68728749D01*
X88766896Y-68769335D01*
X88863616Y-68907465D01*
X88869802Y-68916300D01*
X89031700Y-69078198D01*
X89036208Y-69081355D01*
X89036211Y-69081357D01*
X89095262Y-69122705D01*
X89219251Y-69209523D01*
X89224233Y-69211846D01*
X89224238Y-69211849D01*
X89421775Y-69303961D01*
X89426757Y-69306284D01*
X89432065Y-69307706D01*
X89432067Y-69307707D01*
X89642598Y-69364119D01*
X89642600Y-69364119D01*
X89647913Y-69365543D01*
X89876000Y-69385498D01*
X90104087Y-69365543D01*
X90109400Y-69364119D01*
X90109402Y-69364119D01*
X90259556Y-69323885D01*
X93454000Y-69323885D01*
X93458475Y-69339124D01*
X93459865Y-69340329D01*
X93467548Y-69342000D01*
X94589885Y-69342000D01*
X94605124Y-69337525D01*
X94606329Y-69336135D01*
X94608000Y-69328452D01*
X94608000Y-69323885D01*
X95116000Y-69323885D01*
X95120475Y-69339124D01*
X95121865Y-69340329D01*
X95129548Y-69342000D01*
X96019091Y-69342000D01*
X96047436Y-69345229D01*
X96216377Y-69384233D01*
X96221008Y-69384500D01*
X97642992Y-69384500D01*
X97647623Y-69384233D01*
X97818895Y-69344691D01*
X97977151Y-69268188D01*
X98114524Y-69158524D01*
X98224188Y-69021151D01*
X98244826Y-68978460D01*
X98271087Y-68924134D01*
X99779500Y-68924134D01*
X99786255Y-68986316D01*
X99837385Y-69122705D01*
X99924739Y-69239261D01*
X100041295Y-69326615D01*
X100177684Y-69377745D01*
X100239866Y-69384500D01*
X102136134Y-69384500D01*
X102139531Y-69384131D01*
X102190466Y-69378598D01*
X102190468Y-69378598D01*
X102198316Y-69377745D01*
X102205709Y-69374973D01*
X102205711Y-69374973D01*
X102272278Y-69350018D01*
X102316507Y-69342000D01*
X102985885Y-69342000D01*
X103001124Y-69337525D01*
X103002329Y-69336135D01*
X103004000Y-69328452D01*
X103004000Y-69323885D01*
X103512000Y-69323885D01*
X103516475Y-69339124D01*
X103517865Y-69340329D01*
X103525548Y-69342000D01*
X104647884Y-69342000D01*
X104663123Y-69337525D01*
X104664328Y-69336135D01*
X104665999Y-69328452D01*
X104665999Y-69236878D01*
X104665949Y-69235149D01*
X104664530Y-69225229D01*
X104627800Y-69066133D01*
X104623150Y-69052930D01*
X104552829Y-68907465D01*
X104545363Y-68895609D01*
X104444561Y-68769335D01*
X104434665Y-68759439D01*
X104308391Y-68658637D01*
X104296535Y-68651171D01*
X104151070Y-68580850D01*
X104137867Y-68576200D01*
X103978764Y-68539468D01*
X103968867Y-68538051D01*
X103967093Y-68538000D01*
X103530115Y-68538000D01*
X103514876Y-68542475D01*
X103513671Y-68543865D01*
X103512000Y-68551548D01*
X103512000Y-69323885D01*
X103004000Y-69323885D01*
X103004000Y-68556116D01*
X102999525Y-68540877D01*
X102998135Y-68539672D01*
X102990452Y-68538001D01*
X102722500Y-68538001D01*
X102654379Y-68517999D01*
X102607886Y-68464343D01*
X102596500Y-68412001D01*
X102596500Y-68072000D01*
X106676502Y-68072000D01*
X106696457Y-68300087D01*
X106697881Y-68305400D01*
X106697881Y-68305402D01*
X106740470Y-68464343D01*
X106755716Y-68521243D01*
X106758039Y-68526224D01*
X106758039Y-68526225D01*
X106850151Y-68723762D01*
X106850154Y-68723767D01*
X106852477Y-68728749D01*
X106880896Y-68769335D01*
X106977616Y-68907465D01*
X106983802Y-68916300D01*
X107145700Y-69078198D01*
X107150208Y-69081355D01*
X107150211Y-69081357D01*
X107209262Y-69122705D01*
X107333251Y-69209523D01*
X107338233Y-69211846D01*
X107338238Y-69211849D01*
X107535775Y-69303961D01*
X107540757Y-69306284D01*
X107546065Y-69307706D01*
X107546067Y-69307707D01*
X107756598Y-69364119D01*
X107756600Y-69364119D01*
X107761913Y-69365543D01*
X107990000Y-69385498D01*
X108218087Y-69365543D01*
X108223400Y-69364119D01*
X108223402Y-69364119D01*
X108433933Y-69307707D01*
X108433935Y-69307706D01*
X108439243Y-69306284D01*
X108444225Y-69303961D01*
X108641762Y-69211849D01*
X108641767Y-69211846D01*
X108646749Y-69209523D01*
X108770738Y-69122705D01*
X108829789Y-69081357D01*
X108829792Y-69081355D01*
X108834300Y-69078198D01*
X108996198Y-68916300D01*
X109002385Y-68907465D01*
X109099104Y-68769335D01*
X109127523Y-68728749D01*
X109129846Y-68723767D01*
X109129849Y-68723762D01*
X109221961Y-68526225D01*
X109221961Y-68526224D01*
X109224284Y-68521243D01*
X109239531Y-68464343D01*
X109282119Y-68305402D01*
X109282119Y-68305400D01*
X109283543Y-68300087D01*
X109303498Y-68072000D01*
X111676502Y-68072000D01*
X111696457Y-68300087D01*
X111697881Y-68305400D01*
X111697881Y-68305402D01*
X111740470Y-68464343D01*
X111755716Y-68521243D01*
X111758039Y-68526224D01*
X111758039Y-68526225D01*
X111850151Y-68723762D01*
X111850154Y-68723767D01*
X111852477Y-68728749D01*
X111880896Y-68769335D01*
X111977616Y-68907465D01*
X111983802Y-68916300D01*
X112145700Y-69078198D01*
X112150208Y-69081355D01*
X112150211Y-69081357D01*
X112209262Y-69122705D01*
X112333251Y-69209523D01*
X112338233Y-69211846D01*
X112338238Y-69211849D01*
X112535775Y-69303961D01*
X112540757Y-69306284D01*
X112546065Y-69307706D01*
X112546067Y-69307707D01*
X112756598Y-69364119D01*
X112756600Y-69364119D01*
X112761913Y-69365543D01*
X112990000Y-69385498D01*
X113218087Y-69365543D01*
X113223400Y-69364119D01*
X113223402Y-69364119D01*
X113433933Y-69307707D01*
X113433935Y-69307706D01*
X113439243Y-69306284D01*
X113444225Y-69303961D01*
X113641762Y-69211849D01*
X113641767Y-69211846D01*
X113646749Y-69209523D01*
X113770738Y-69122705D01*
X113829789Y-69081357D01*
X113829792Y-69081355D01*
X113834300Y-69078198D01*
X113996198Y-68916300D01*
X114002385Y-68907465D01*
X114099104Y-68769335D01*
X114127523Y-68728749D01*
X114129846Y-68723767D01*
X114129849Y-68723762D01*
X114221961Y-68526225D01*
X114221961Y-68526224D01*
X114224284Y-68521243D01*
X114239531Y-68464343D01*
X114282119Y-68305402D01*
X114282119Y-68305400D01*
X114283543Y-68300087D01*
X114303498Y-68072000D01*
X114283543Y-67843913D01*
X114251538Y-67724469D01*
X114225707Y-67628067D01*
X114225706Y-67628065D01*
X114224284Y-67622757D01*
X114184623Y-67537703D01*
X114129849Y-67420238D01*
X114129846Y-67420233D01*
X114127523Y-67415251D01*
X114024102Y-67267551D01*
X113999357Y-67232211D01*
X113999355Y-67232208D01*
X113996198Y-67227700D01*
X113834300Y-67065802D01*
X113829792Y-67062645D01*
X113829789Y-67062643D01*
X113700730Y-66972275D01*
X113646749Y-66934477D01*
X113641767Y-66932154D01*
X113641762Y-66932151D01*
X113444225Y-66840039D01*
X113444224Y-66840039D01*
X113439243Y-66837716D01*
X113433935Y-66836294D01*
X113433933Y-66836293D01*
X113223402Y-66779881D01*
X113223400Y-66779881D01*
X113218087Y-66778457D01*
X112990000Y-66758502D01*
X112761913Y-66778457D01*
X112756600Y-66779881D01*
X112756598Y-66779881D01*
X112546067Y-66836293D01*
X112546065Y-66836294D01*
X112540757Y-66837716D01*
X112535776Y-66840039D01*
X112535775Y-66840039D01*
X112338238Y-66932151D01*
X112338233Y-66932154D01*
X112333251Y-66934477D01*
X112279270Y-66972275D01*
X112150211Y-67062643D01*
X112150208Y-67062645D01*
X112145700Y-67065802D01*
X111983802Y-67227700D01*
X111980645Y-67232208D01*
X111980643Y-67232211D01*
X111955898Y-67267551D01*
X111852477Y-67415251D01*
X111850154Y-67420233D01*
X111850151Y-67420238D01*
X111795377Y-67537703D01*
X111755716Y-67622757D01*
X111754294Y-67628065D01*
X111754293Y-67628067D01*
X111728462Y-67724469D01*
X111696457Y-67843913D01*
X111676502Y-68072000D01*
X109303498Y-68072000D01*
X109283543Y-67843913D01*
X109251538Y-67724469D01*
X109225707Y-67628067D01*
X109225706Y-67628065D01*
X109224284Y-67622757D01*
X109184623Y-67537703D01*
X109129849Y-67420238D01*
X109129846Y-67420233D01*
X109127523Y-67415251D01*
X109024102Y-67267551D01*
X108999357Y-67232211D01*
X108999355Y-67232208D01*
X108996198Y-67227700D01*
X108834300Y-67065802D01*
X108829792Y-67062645D01*
X108829789Y-67062643D01*
X108700730Y-66972275D01*
X108646749Y-66934477D01*
X108641767Y-66932154D01*
X108641762Y-66932151D01*
X108444225Y-66840039D01*
X108444224Y-66840039D01*
X108439243Y-66837716D01*
X108433935Y-66836294D01*
X108433933Y-66836293D01*
X108223402Y-66779881D01*
X108223400Y-66779881D01*
X108218087Y-66778457D01*
X107990000Y-66758502D01*
X107761913Y-66778457D01*
X107756600Y-66779881D01*
X107756598Y-66779881D01*
X107546067Y-66836293D01*
X107546065Y-66836294D01*
X107540757Y-66837716D01*
X107535776Y-66840039D01*
X107535775Y-66840039D01*
X107338238Y-66932151D01*
X107338233Y-66932154D01*
X107333251Y-66934477D01*
X107279270Y-66972275D01*
X107150211Y-67062643D01*
X107150208Y-67062645D01*
X107145700Y-67065802D01*
X106983802Y-67227700D01*
X106980645Y-67232208D01*
X106980643Y-67232211D01*
X106955898Y-67267551D01*
X106852477Y-67415251D01*
X106850154Y-67420233D01*
X106850151Y-67420238D01*
X106795377Y-67537703D01*
X106755716Y-67622757D01*
X106754294Y-67628065D01*
X106754293Y-67628067D01*
X106728462Y-67724469D01*
X106696457Y-67843913D01*
X106676502Y-68072000D01*
X102596500Y-68072000D01*
X102596500Y-67727866D01*
X102589745Y-67665684D01*
X102538615Y-67529295D01*
X102451261Y-67412739D01*
X102334705Y-67325385D01*
X102198316Y-67274255D01*
X102136134Y-67267500D01*
X100239866Y-67267500D01*
X100177684Y-67274255D01*
X100041295Y-67325385D01*
X99924739Y-67412739D01*
X99837385Y-67529295D01*
X99786255Y-67665684D01*
X99779500Y-67727866D01*
X99779500Y-68924134D01*
X98271087Y-68924134D01*
X98297625Y-68869237D01*
X98300691Y-68862895D01*
X98340233Y-68691623D01*
X98340500Y-68686992D01*
X98340500Y-67965008D01*
X98340233Y-67960377D01*
X98300691Y-67789105D01*
X98265197Y-67715682D01*
X98227255Y-67637193D01*
X98227254Y-67637191D01*
X98224188Y-67630849D01*
X98114524Y-67493476D01*
X97977151Y-67383812D01*
X97818895Y-67307309D01*
X97647623Y-67267767D01*
X97642992Y-67267500D01*
X96221008Y-67267500D01*
X96216377Y-67267767D01*
X96045105Y-67307309D01*
X95886849Y-67383812D01*
X95749476Y-67493476D01*
X95639812Y-67630849D01*
X95636746Y-67637191D01*
X95636745Y-67637193D01*
X95598803Y-67715682D01*
X95563309Y-67789105D01*
X95523767Y-67960377D01*
X95523500Y-67965008D01*
X95523500Y-68412000D01*
X95503498Y-68480121D01*
X95449842Y-68526614D01*
X95397500Y-68538000D01*
X95134115Y-68538000D01*
X95118876Y-68542475D01*
X95117671Y-68543865D01*
X95116000Y-68551548D01*
X95116000Y-69323885D01*
X94608000Y-69323885D01*
X94608000Y-68556116D01*
X94603525Y-68540877D01*
X94602135Y-68539672D01*
X94594452Y-68538001D01*
X94152878Y-68538001D01*
X94151149Y-68538051D01*
X94141229Y-68539470D01*
X93982133Y-68576200D01*
X93968930Y-68580850D01*
X93823465Y-68651171D01*
X93811609Y-68658637D01*
X93685335Y-68759439D01*
X93675439Y-68769335D01*
X93574637Y-68895609D01*
X93567171Y-68907465D01*
X93496850Y-69052930D01*
X93492200Y-69066133D01*
X93455468Y-69225236D01*
X93454051Y-69235133D01*
X93454000Y-69236907D01*
X93454000Y-69323885D01*
X90259556Y-69323885D01*
X90319933Y-69307707D01*
X90319935Y-69307706D01*
X90325243Y-69306284D01*
X90330225Y-69303961D01*
X90527762Y-69211849D01*
X90527767Y-69211846D01*
X90532749Y-69209523D01*
X90656738Y-69122705D01*
X90715789Y-69081357D01*
X90715792Y-69081355D01*
X90720300Y-69078198D01*
X90882198Y-68916300D01*
X90888385Y-68907465D01*
X90985104Y-68769335D01*
X91013523Y-68728749D01*
X91015846Y-68723767D01*
X91015849Y-68723762D01*
X91107961Y-68526225D01*
X91107961Y-68526224D01*
X91110284Y-68521243D01*
X91125531Y-68464343D01*
X91168119Y-68305402D01*
X91168119Y-68305400D01*
X91169543Y-68300087D01*
X91189498Y-68072000D01*
X91169543Y-67843913D01*
X91137538Y-67724469D01*
X91111707Y-67628067D01*
X91111706Y-67628065D01*
X91110284Y-67622757D01*
X91070623Y-67537703D01*
X91015849Y-67420238D01*
X91015846Y-67420233D01*
X91013523Y-67415251D01*
X90910102Y-67267551D01*
X90885357Y-67232211D01*
X90885355Y-67232208D01*
X90882198Y-67227700D01*
X90720300Y-67065802D01*
X90715792Y-67062645D01*
X90715789Y-67062643D01*
X90586730Y-66972275D01*
X90532749Y-66934477D01*
X90527767Y-66932154D01*
X90527762Y-66932151D01*
X90330225Y-66840039D01*
X90330224Y-66840039D01*
X90325243Y-66837716D01*
X90319935Y-66836294D01*
X90319933Y-66836293D01*
X90109402Y-66779881D01*
X90109400Y-66779881D01*
X90104087Y-66778457D01*
X89876000Y-66758502D01*
X89647913Y-66778457D01*
X89642600Y-66779881D01*
X89642598Y-66779881D01*
X89432067Y-66836293D01*
X89432065Y-66836294D01*
X89426757Y-66837716D01*
X89421776Y-66840039D01*
X89421775Y-66840039D01*
X89224238Y-66932151D01*
X89224233Y-66932154D01*
X89219251Y-66934477D01*
X89165270Y-66972275D01*
X89036211Y-67062643D01*
X89036208Y-67062645D01*
X89031700Y-67065802D01*
X88869802Y-67227700D01*
X88866645Y-67232208D01*
X88866643Y-67232211D01*
X88841898Y-67267551D01*
X88738477Y-67415251D01*
X88736154Y-67420233D01*
X88736151Y-67420238D01*
X88681377Y-67537703D01*
X88641716Y-67622757D01*
X88640294Y-67628065D01*
X88640293Y-67628067D01*
X88614462Y-67724469D01*
X88582457Y-67843913D01*
X88562502Y-68072000D01*
X86189498Y-68072000D01*
X86169543Y-67843913D01*
X86137538Y-67724469D01*
X86111707Y-67628067D01*
X86111706Y-67628065D01*
X86110284Y-67622757D01*
X86070623Y-67537703D01*
X86015849Y-67420238D01*
X86015846Y-67420233D01*
X86013523Y-67415251D01*
X85910102Y-67267551D01*
X85885357Y-67232211D01*
X85885355Y-67232208D01*
X85882198Y-67227700D01*
X85720300Y-67065802D01*
X85715792Y-67062645D01*
X85715789Y-67062643D01*
X85586730Y-66972275D01*
X85532749Y-66934477D01*
X85527767Y-66932154D01*
X85527762Y-66932151D01*
X85330225Y-66840039D01*
X85330224Y-66840039D01*
X85325243Y-66837716D01*
X85319935Y-66836294D01*
X85319933Y-66836293D01*
X85109402Y-66779881D01*
X85109400Y-66779881D01*
X85104087Y-66778457D01*
X84876000Y-66758502D01*
X84647913Y-66778457D01*
X84642600Y-66779881D01*
X84642598Y-66779881D01*
X84432067Y-66836293D01*
X84432065Y-66836294D01*
X84426757Y-66837716D01*
X84421776Y-66840039D01*
X84421775Y-66840039D01*
X84224238Y-66932151D01*
X84224233Y-66932154D01*
X84219251Y-66934477D01*
X84165270Y-66972275D01*
X84036211Y-67062643D01*
X84036208Y-67062645D01*
X84031700Y-67065802D01*
X83869802Y-67227700D01*
X83866645Y-67232208D01*
X83866643Y-67232211D01*
X83841898Y-67267551D01*
X83738477Y-67415251D01*
X83736154Y-67420233D01*
X83736151Y-67420238D01*
X83681377Y-67537703D01*
X83641716Y-67622757D01*
X83640294Y-67628065D01*
X83640293Y-67628067D01*
X83614462Y-67724469D01*
X83582457Y-67843913D01*
X83562502Y-68072000D01*
X75259500Y-68072000D01*
X75259500Y-66692670D01*
X77872160Y-66692670D01*
X77877887Y-66700320D01*
X78049042Y-66805205D01*
X78057837Y-66809687D01*
X78267988Y-66896734D01*
X78277373Y-66899783D01*
X78498554Y-66952885D01*
X78508301Y-66954428D01*
X78735070Y-66972275D01*
X78744930Y-66972275D01*
X78971699Y-66954428D01*
X78981446Y-66952885D01*
X79202627Y-66899783D01*
X79212012Y-66896734D01*
X79422163Y-66809687D01*
X79430958Y-66805205D01*
X79598445Y-66702568D01*
X79607400Y-66692670D01*
X118512160Y-66692670D01*
X118517887Y-66700320D01*
X118689042Y-66805205D01*
X118697837Y-66809687D01*
X118907988Y-66896734D01*
X118917373Y-66899783D01*
X119138554Y-66952885D01*
X119148301Y-66954428D01*
X119375070Y-66972275D01*
X119384930Y-66972275D01*
X119611699Y-66954428D01*
X119621446Y-66952885D01*
X119842627Y-66899783D01*
X119852012Y-66896734D01*
X120062163Y-66809687D01*
X120070958Y-66805205D01*
X120238445Y-66702568D01*
X120247907Y-66692110D01*
X120244124Y-66683334D01*
X119392812Y-65832022D01*
X119378868Y-65824408D01*
X119377035Y-65824539D01*
X119370420Y-65828790D01*
X118518920Y-66680290D01*
X118512160Y-66692670D01*
X79607400Y-66692670D01*
X79607907Y-66692110D01*
X79604124Y-66683334D01*
X78752812Y-65832022D01*
X78738868Y-65824408D01*
X78737035Y-65824539D01*
X78730420Y-65828790D01*
X77878920Y-66680290D01*
X77872160Y-66692670D01*
X75259500Y-66692670D01*
X75259500Y-65464930D01*
X77227725Y-65464930D01*
X77245572Y-65691699D01*
X77247115Y-65701446D01*
X77300217Y-65922627D01*
X77303266Y-65932012D01*
X77390313Y-66142163D01*
X77394795Y-66150958D01*
X77497432Y-66318445D01*
X77507890Y-66327907D01*
X77516666Y-66324124D01*
X78367978Y-65472812D01*
X78374356Y-65461132D01*
X79104408Y-65461132D01*
X79104539Y-65462965D01*
X79108790Y-65469580D01*
X79960290Y-66321080D01*
X79972670Y-66327840D01*
X79980320Y-66322113D01*
X80085205Y-66150958D01*
X80089687Y-66142163D01*
X80176734Y-65932012D01*
X80179783Y-65922627D01*
X80232885Y-65701446D01*
X80234428Y-65691699D01*
X80252275Y-65464930D01*
X80252275Y-65455070D01*
X80234428Y-65228301D01*
X80232885Y-65218554D01*
X80179783Y-64997373D01*
X80176734Y-64987988D01*
X80089687Y-64777837D01*
X80085205Y-64769042D01*
X79982568Y-64601555D01*
X79972110Y-64592093D01*
X79963334Y-64595876D01*
X79112022Y-65447188D01*
X79104408Y-65461132D01*
X78374356Y-65461132D01*
X78375592Y-65458868D01*
X78375461Y-65457035D01*
X78371210Y-65450420D01*
X77519710Y-64598920D01*
X77507330Y-64592160D01*
X77499680Y-64597887D01*
X77394795Y-64769042D01*
X77390313Y-64777837D01*
X77303266Y-64987988D01*
X77300217Y-64997373D01*
X77247115Y-65218554D01*
X77245572Y-65228301D01*
X77227725Y-65455070D01*
X77227725Y-65464930D01*
X75259500Y-65464930D01*
X75259500Y-64227890D01*
X77872093Y-64227890D01*
X77875876Y-64236666D01*
X78727188Y-65087978D01*
X78741132Y-65095592D01*
X78742965Y-65095461D01*
X78749580Y-65091210D01*
X79324790Y-64516000D01*
X82506502Y-64516000D01*
X82526457Y-64744087D01*
X82527881Y-64749400D01*
X82527881Y-64749402D01*
X82543717Y-64808500D01*
X82585716Y-64965243D01*
X82588039Y-64970224D01*
X82588039Y-64970225D01*
X82680151Y-65167762D01*
X82680154Y-65167767D01*
X82682477Y-65172749D01*
X82813802Y-65360300D01*
X82975700Y-65522198D01*
X82980208Y-65525355D01*
X82980211Y-65525357D01*
X83058389Y-65580098D01*
X83163251Y-65653523D01*
X83168233Y-65655846D01*
X83168238Y-65655849D01*
X83365775Y-65747961D01*
X83370757Y-65750284D01*
X83376065Y-65751706D01*
X83376067Y-65751707D01*
X83586598Y-65808119D01*
X83586600Y-65808119D01*
X83591913Y-65809543D01*
X83820000Y-65829498D01*
X84048087Y-65809543D01*
X84053400Y-65808119D01*
X84053402Y-65808119D01*
X84263933Y-65751707D01*
X84263935Y-65751706D01*
X84269243Y-65750284D01*
X84274225Y-65747961D01*
X84471762Y-65655849D01*
X84471767Y-65655846D01*
X84476749Y-65653523D01*
X84581611Y-65580098D01*
X84659789Y-65525357D01*
X84659792Y-65525355D01*
X84664300Y-65522198D01*
X84826198Y-65360300D01*
X84957523Y-65172749D01*
X84959846Y-65167767D01*
X84959849Y-65167762D01*
X85051961Y-64970225D01*
X85051961Y-64970224D01*
X85054284Y-64965243D01*
X85096284Y-64808500D01*
X85112119Y-64749402D01*
X85112119Y-64749400D01*
X85113543Y-64744087D01*
X85133498Y-64516000D01*
X90126502Y-64516000D01*
X90146457Y-64744087D01*
X90147881Y-64749400D01*
X90147881Y-64749402D01*
X90163717Y-64808500D01*
X90205716Y-64965243D01*
X90208039Y-64970224D01*
X90208039Y-64970225D01*
X90300151Y-65167762D01*
X90300154Y-65167767D01*
X90302477Y-65172749D01*
X90433802Y-65360300D01*
X90595700Y-65522198D01*
X90600208Y-65525355D01*
X90600211Y-65525357D01*
X90678389Y-65580098D01*
X90783251Y-65653523D01*
X90788233Y-65655846D01*
X90788238Y-65655849D01*
X90985775Y-65747961D01*
X90990757Y-65750284D01*
X90996065Y-65751706D01*
X90996067Y-65751707D01*
X91206598Y-65808119D01*
X91206600Y-65808119D01*
X91211913Y-65809543D01*
X91440000Y-65829498D01*
X91668087Y-65809543D01*
X91673400Y-65808119D01*
X91673402Y-65808119D01*
X91883933Y-65751707D01*
X91883935Y-65751706D01*
X91889243Y-65750284D01*
X91894225Y-65747961D01*
X92091762Y-65655849D01*
X92091767Y-65655846D01*
X92096749Y-65653523D01*
X92201611Y-65580098D01*
X92279789Y-65525357D01*
X92279792Y-65525355D01*
X92284300Y-65522198D01*
X92446198Y-65360300D01*
X92577523Y-65172749D01*
X92579846Y-65167767D01*
X92579849Y-65167762D01*
X92671961Y-64970225D01*
X92671961Y-64970224D01*
X92674284Y-64965243D01*
X92716284Y-64808500D01*
X92732119Y-64749402D01*
X92732119Y-64749400D01*
X92733543Y-64744087D01*
X92753498Y-64516000D01*
X92733543Y-64287913D01*
X92714658Y-64217432D01*
X92675707Y-64072067D01*
X92675706Y-64072065D01*
X92674284Y-64066757D01*
X92652582Y-64020217D01*
X92579849Y-63864238D01*
X92579846Y-63864233D01*
X92577523Y-63859251D01*
X92512593Y-63766522D01*
X93552273Y-63766522D01*
X93599764Y-63943761D01*
X93603510Y-63954053D01*
X93695586Y-64151511D01*
X93701069Y-64161007D01*
X93826028Y-64339467D01*
X93833084Y-64347875D01*
X93987125Y-64501916D01*
X93995533Y-64508972D01*
X94173993Y-64633931D01*
X94183489Y-64639414D01*
X94380947Y-64731490D01*
X94391239Y-64735236D01*
X94601688Y-64791625D01*
X94612481Y-64793528D01*
X94775170Y-64807762D01*
X94780635Y-64808000D01*
X94962885Y-64808000D01*
X94978124Y-64803525D01*
X94979329Y-64802135D01*
X94981000Y-64794452D01*
X94981000Y-64789885D01*
X95489000Y-64789885D01*
X95493475Y-64805124D01*
X95494865Y-64806329D01*
X95502548Y-64808000D01*
X95689365Y-64808000D01*
X95694830Y-64807762D01*
X95857519Y-64793528D01*
X95868312Y-64791625D01*
X96078761Y-64735236D01*
X96089053Y-64731490D01*
X96286511Y-64639414D01*
X96296007Y-64633931D01*
X96474467Y-64508972D01*
X96482875Y-64501916D01*
X96636916Y-64347875D01*
X96643972Y-64339467D01*
X96768931Y-64161007D01*
X96774414Y-64151511D01*
X96866490Y-63954053D01*
X96870236Y-63943761D01*
X96916394Y-63771497D01*
X96916058Y-63757401D01*
X96908116Y-63754000D01*
X95507115Y-63754000D01*
X95491876Y-63758475D01*
X95490671Y-63759865D01*
X95489000Y-63767548D01*
X95489000Y-64789885D01*
X94981000Y-64789885D01*
X94981000Y-63772115D01*
X94976525Y-63756876D01*
X94975135Y-63755671D01*
X94967452Y-63754000D01*
X93567033Y-63754000D01*
X93553502Y-63757973D01*
X93552273Y-63766522D01*
X92512593Y-63766522D01*
X92446198Y-63671700D01*
X92284300Y-63509802D01*
X92279792Y-63506645D01*
X92279789Y-63506643D01*
X92270302Y-63500000D01*
X101141502Y-63500000D01*
X101161457Y-63728087D01*
X101162881Y-63733400D01*
X101162881Y-63733402D01*
X101196603Y-63859251D01*
X101220716Y-63949243D01*
X101223039Y-63954224D01*
X101223039Y-63954225D01*
X101315151Y-64151762D01*
X101315154Y-64151767D01*
X101317477Y-64156749D01*
X101448802Y-64344300D01*
X101610700Y-64506198D01*
X101615208Y-64509355D01*
X101615211Y-64509357D01*
X101693389Y-64564098D01*
X101798251Y-64637523D01*
X101803233Y-64639846D01*
X101803238Y-64639849D01*
X101999765Y-64731490D01*
X102005757Y-64734284D01*
X102011065Y-64735706D01*
X102011067Y-64735707D01*
X102221598Y-64792119D01*
X102221600Y-64792119D01*
X102226913Y-64793543D01*
X102325120Y-64802135D01*
X102395149Y-64808262D01*
X102395156Y-64808262D01*
X102397873Y-64808500D01*
X103312127Y-64808500D01*
X103314844Y-64808262D01*
X103314851Y-64808262D01*
X103384880Y-64802135D01*
X103483087Y-64793543D01*
X103488400Y-64792119D01*
X103488402Y-64792119D01*
X103698933Y-64735707D01*
X103698935Y-64735706D01*
X103704243Y-64734284D01*
X103710235Y-64731490D01*
X103906762Y-64639849D01*
X103906767Y-64639846D01*
X103911749Y-64637523D01*
X104016611Y-64564098D01*
X104085302Y-64516000D01*
X105366502Y-64516000D01*
X105386457Y-64744087D01*
X105387881Y-64749400D01*
X105387881Y-64749402D01*
X105403717Y-64808500D01*
X105445716Y-64965243D01*
X105448039Y-64970224D01*
X105448039Y-64970225D01*
X105540151Y-65167762D01*
X105540154Y-65167767D01*
X105542477Y-65172749D01*
X105673802Y-65360300D01*
X105835700Y-65522198D01*
X105840208Y-65525355D01*
X105840211Y-65525357D01*
X105918389Y-65580098D01*
X106023251Y-65653523D01*
X106028233Y-65655846D01*
X106028238Y-65655849D01*
X106225775Y-65747961D01*
X106230757Y-65750284D01*
X106236065Y-65751706D01*
X106236067Y-65751707D01*
X106446598Y-65808119D01*
X106446600Y-65808119D01*
X106451913Y-65809543D01*
X106680000Y-65829498D01*
X106908087Y-65809543D01*
X106913400Y-65808119D01*
X106913402Y-65808119D01*
X107123933Y-65751707D01*
X107123935Y-65751706D01*
X107129243Y-65750284D01*
X107134225Y-65747961D01*
X107331762Y-65655849D01*
X107331767Y-65655846D01*
X107336749Y-65653523D01*
X107441611Y-65580098D01*
X107519789Y-65525357D01*
X107519792Y-65525355D01*
X107524300Y-65522198D01*
X107686198Y-65360300D01*
X107817523Y-65172749D01*
X107819846Y-65167767D01*
X107819849Y-65167762D01*
X107911961Y-64970225D01*
X107911961Y-64970224D01*
X107914284Y-64965243D01*
X107956284Y-64808500D01*
X107972119Y-64749402D01*
X107972119Y-64749400D01*
X107973543Y-64744087D01*
X107993498Y-64516000D01*
X112986502Y-64516000D01*
X113006457Y-64744087D01*
X113007881Y-64749400D01*
X113007881Y-64749402D01*
X113023717Y-64808500D01*
X113065716Y-64965243D01*
X113068039Y-64970224D01*
X113068039Y-64970225D01*
X113160151Y-65167762D01*
X113160154Y-65167767D01*
X113162477Y-65172749D01*
X113293802Y-65360300D01*
X113455700Y-65522198D01*
X113460208Y-65525355D01*
X113460211Y-65525357D01*
X113538389Y-65580098D01*
X113643251Y-65653523D01*
X113648233Y-65655846D01*
X113648238Y-65655849D01*
X113845775Y-65747961D01*
X113850757Y-65750284D01*
X113856065Y-65751706D01*
X113856067Y-65751707D01*
X114066598Y-65808119D01*
X114066600Y-65808119D01*
X114071913Y-65809543D01*
X114300000Y-65829498D01*
X114528087Y-65809543D01*
X114533400Y-65808119D01*
X114533402Y-65808119D01*
X114743933Y-65751707D01*
X114743935Y-65751706D01*
X114749243Y-65750284D01*
X114754225Y-65747961D01*
X114951762Y-65655849D01*
X114951767Y-65655846D01*
X114956749Y-65653523D01*
X115061611Y-65580098D01*
X115139789Y-65525357D01*
X115139792Y-65525355D01*
X115144300Y-65522198D01*
X115201568Y-65464930D01*
X117867725Y-65464930D01*
X117885572Y-65691699D01*
X117887115Y-65701446D01*
X117940217Y-65922627D01*
X117943266Y-65932012D01*
X118030313Y-66142163D01*
X118034795Y-66150958D01*
X118137432Y-66318445D01*
X118147890Y-66327907D01*
X118156666Y-66324124D01*
X119007978Y-65472812D01*
X119014356Y-65461132D01*
X119744408Y-65461132D01*
X119744539Y-65462965D01*
X119748790Y-65469580D01*
X120600290Y-66321080D01*
X120612670Y-66327840D01*
X120620320Y-66322113D01*
X120725205Y-66150958D01*
X120729687Y-66142163D01*
X120816734Y-65932012D01*
X120819783Y-65922627D01*
X120872885Y-65701446D01*
X120874428Y-65691699D01*
X120892275Y-65464930D01*
X120892275Y-65455070D01*
X120874428Y-65228301D01*
X120872885Y-65218554D01*
X120819783Y-64997373D01*
X120816734Y-64987988D01*
X120729687Y-64777837D01*
X120725205Y-64769042D01*
X120622568Y-64601555D01*
X120612110Y-64592093D01*
X120603334Y-64595876D01*
X119752022Y-65447188D01*
X119744408Y-65461132D01*
X119014356Y-65461132D01*
X119015592Y-65458868D01*
X119015461Y-65457035D01*
X119011210Y-65450420D01*
X118159710Y-64598920D01*
X118147330Y-64592160D01*
X118139680Y-64597887D01*
X118034795Y-64769042D01*
X118030313Y-64777837D01*
X117943266Y-64987988D01*
X117940217Y-64997373D01*
X117887115Y-65218554D01*
X117885572Y-65228301D01*
X117867725Y-65455070D01*
X117867725Y-65464930D01*
X115201568Y-65464930D01*
X115306198Y-65360300D01*
X115437523Y-65172749D01*
X115439846Y-65167767D01*
X115439849Y-65167762D01*
X115531961Y-64970225D01*
X115531961Y-64970224D01*
X115534284Y-64965243D01*
X115576284Y-64808500D01*
X115592119Y-64749402D01*
X115592119Y-64749400D01*
X115593543Y-64744087D01*
X115613498Y-64516000D01*
X115593543Y-64287913D01*
X115577460Y-64227890D01*
X118512093Y-64227890D01*
X118515876Y-64236666D01*
X119367188Y-65087978D01*
X119381132Y-65095592D01*
X119382965Y-65095461D01*
X119389580Y-65091210D01*
X120241080Y-64239710D01*
X120247840Y-64227330D01*
X120242113Y-64219680D01*
X120070958Y-64114795D01*
X120062163Y-64110313D01*
X119852012Y-64023266D01*
X119842627Y-64020217D01*
X119621446Y-63967115D01*
X119611699Y-63965572D01*
X119384930Y-63947725D01*
X119375070Y-63947725D01*
X119148301Y-63965572D01*
X119138554Y-63967115D01*
X118917373Y-64020217D01*
X118907988Y-64023266D01*
X118697837Y-64110313D01*
X118689042Y-64114795D01*
X118521555Y-64217432D01*
X118512093Y-64227890D01*
X115577460Y-64227890D01*
X115574658Y-64217432D01*
X115535707Y-64072067D01*
X115535706Y-64072065D01*
X115534284Y-64066757D01*
X115512582Y-64020217D01*
X115439849Y-63864238D01*
X115439846Y-63864233D01*
X115437523Y-63859251D01*
X115306198Y-63671700D01*
X115144300Y-63509802D01*
X115139792Y-63506645D01*
X115139789Y-63506643D01*
X115061611Y-63451902D01*
X114956749Y-63378477D01*
X114951767Y-63376154D01*
X114951762Y-63376151D01*
X114754225Y-63284039D01*
X114754224Y-63284039D01*
X114749243Y-63281716D01*
X114743935Y-63280294D01*
X114743933Y-63280293D01*
X114533402Y-63223881D01*
X114533400Y-63223881D01*
X114528087Y-63222457D01*
X114300000Y-63202502D01*
X114071913Y-63222457D01*
X114066600Y-63223881D01*
X114066598Y-63223881D01*
X113856067Y-63280293D01*
X113856065Y-63280294D01*
X113850757Y-63281716D01*
X113845776Y-63284039D01*
X113845775Y-63284039D01*
X113648238Y-63376151D01*
X113648233Y-63376154D01*
X113643251Y-63378477D01*
X113538389Y-63451902D01*
X113460211Y-63506643D01*
X113460208Y-63506645D01*
X113455700Y-63509802D01*
X113293802Y-63671700D01*
X113162477Y-63859251D01*
X113160154Y-63864233D01*
X113160151Y-63864238D01*
X113087418Y-64020217D01*
X113065716Y-64066757D01*
X113064294Y-64072065D01*
X113064293Y-64072067D01*
X113025342Y-64217432D01*
X113006457Y-64287913D01*
X112986502Y-64516000D01*
X107993498Y-64516000D01*
X107973543Y-64287913D01*
X107954658Y-64217432D01*
X107915707Y-64072067D01*
X107915706Y-64072065D01*
X107914284Y-64066757D01*
X107892582Y-64020217D01*
X107819849Y-63864238D01*
X107819846Y-63864233D01*
X107817523Y-63859251D01*
X107686198Y-63671700D01*
X107524300Y-63509802D01*
X107519792Y-63506645D01*
X107519789Y-63506643D01*
X107441611Y-63451902D01*
X107336749Y-63378477D01*
X107331767Y-63376154D01*
X107331762Y-63376151D01*
X107134225Y-63284039D01*
X107134224Y-63284039D01*
X107129243Y-63281716D01*
X107123935Y-63280294D01*
X107123933Y-63280293D01*
X106913402Y-63223881D01*
X106913400Y-63223881D01*
X106908087Y-63222457D01*
X106680000Y-63202502D01*
X106451913Y-63222457D01*
X106446600Y-63223881D01*
X106446598Y-63223881D01*
X106236067Y-63280293D01*
X106236065Y-63280294D01*
X106230757Y-63281716D01*
X106225776Y-63284039D01*
X106225775Y-63284039D01*
X106028238Y-63376151D01*
X106028233Y-63376154D01*
X106023251Y-63378477D01*
X105918389Y-63451902D01*
X105840211Y-63506643D01*
X105840208Y-63506645D01*
X105835700Y-63509802D01*
X105673802Y-63671700D01*
X105542477Y-63859251D01*
X105540154Y-63864233D01*
X105540151Y-63864238D01*
X105467418Y-64020217D01*
X105445716Y-64066757D01*
X105444294Y-64072065D01*
X105444293Y-64072067D01*
X105405342Y-64217432D01*
X105386457Y-64287913D01*
X105366502Y-64516000D01*
X104085302Y-64516000D01*
X104094789Y-64509357D01*
X104094792Y-64509355D01*
X104099300Y-64506198D01*
X104261198Y-64344300D01*
X104392523Y-64156749D01*
X104394846Y-64151767D01*
X104394849Y-64151762D01*
X104486961Y-63954225D01*
X104486961Y-63954224D01*
X104489284Y-63949243D01*
X104513398Y-63859251D01*
X104547119Y-63733402D01*
X104547119Y-63733400D01*
X104548543Y-63728087D01*
X104568498Y-63500000D01*
X104548543Y-63271913D01*
X104489284Y-63050757D01*
X104394966Y-62848489D01*
X104394849Y-62848238D01*
X104394846Y-62848233D01*
X104392523Y-62843251D01*
X104261198Y-62655700D01*
X104099300Y-62493802D01*
X104094792Y-62490645D01*
X104094789Y-62490643D01*
X104016611Y-62435902D01*
X103911749Y-62362477D01*
X103906767Y-62360154D01*
X103906762Y-62360151D01*
X103872543Y-62344195D01*
X103819258Y-62297278D01*
X103799797Y-62229001D01*
X103820339Y-62161041D01*
X103872543Y-62115805D01*
X103906762Y-62099849D01*
X103906767Y-62099846D01*
X103911749Y-62097523D01*
X104016611Y-62024098D01*
X104094789Y-61969357D01*
X104094792Y-61969355D01*
X104099300Y-61966198D01*
X104261198Y-61804300D01*
X104392523Y-61616749D01*
X104394846Y-61611767D01*
X104394849Y-61611762D01*
X104461886Y-61468000D01*
X105366502Y-61468000D01*
X105386457Y-61696087D01*
X105387881Y-61701400D01*
X105387881Y-61701402D01*
X105425025Y-61840022D01*
X105445716Y-61917243D01*
X105448039Y-61922224D01*
X105448039Y-61922225D01*
X105540151Y-62119762D01*
X105540154Y-62119767D01*
X105542477Y-62124749D01*
X105581312Y-62180211D01*
X105664654Y-62299235D01*
X105673802Y-62312300D01*
X105835700Y-62474198D01*
X105840208Y-62477355D01*
X105840211Y-62477357D01*
X105918389Y-62532098D01*
X106023251Y-62605523D01*
X106028233Y-62607846D01*
X106028238Y-62607849D01*
X106224765Y-62699490D01*
X106230757Y-62702284D01*
X106236065Y-62703706D01*
X106236067Y-62703707D01*
X106446598Y-62760119D01*
X106446600Y-62760119D01*
X106451913Y-62761543D01*
X106680000Y-62781498D01*
X106908087Y-62761543D01*
X106913400Y-62760119D01*
X106913402Y-62760119D01*
X107123933Y-62703707D01*
X107123935Y-62703706D01*
X107129243Y-62702284D01*
X107135235Y-62699490D01*
X107331762Y-62607849D01*
X107331767Y-62607846D01*
X107336749Y-62605523D01*
X107410243Y-62554062D01*
X113578493Y-62554062D01*
X113587789Y-62566077D01*
X113638994Y-62601931D01*
X113648489Y-62607414D01*
X113845947Y-62699490D01*
X113856239Y-62703236D01*
X114066688Y-62759625D01*
X114077481Y-62761528D01*
X114294525Y-62780517D01*
X114305475Y-62780517D01*
X114522519Y-62761528D01*
X114533312Y-62759625D01*
X114743761Y-62703236D01*
X114754053Y-62699490D01*
X114951511Y-62607414D01*
X114961006Y-62601931D01*
X115013048Y-62565491D01*
X115021424Y-62555012D01*
X115014356Y-62541566D01*
X114312812Y-61840022D01*
X114298868Y-61832408D01*
X114297035Y-61832539D01*
X114290420Y-61836790D01*
X113584923Y-62542287D01*
X113578493Y-62554062D01*
X107410243Y-62554062D01*
X107441611Y-62532098D01*
X107519789Y-62477357D01*
X107519792Y-62477355D01*
X107524300Y-62474198D01*
X107686198Y-62312300D01*
X107695347Y-62299235D01*
X107778688Y-62180211D01*
X107817523Y-62124749D01*
X107819846Y-62119767D01*
X107819849Y-62119762D01*
X107911961Y-61922225D01*
X107911961Y-61922224D01*
X107914284Y-61917243D01*
X107934976Y-61840022D01*
X107972119Y-61701402D01*
X107972119Y-61701400D01*
X107973543Y-61696087D01*
X107993019Y-61473475D01*
X112987483Y-61473475D01*
X113006472Y-61690519D01*
X113008375Y-61701312D01*
X113064764Y-61911761D01*
X113068510Y-61922053D01*
X113160586Y-62119511D01*
X113166069Y-62129006D01*
X113202509Y-62181048D01*
X113212988Y-62189424D01*
X113226434Y-62182356D01*
X113927978Y-61480812D01*
X113934356Y-61469132D01*
X114664408Y-61469132D01*
X114664539Y-61470965D01*
X114668790Y-61477580D01*
X115374287Y-62183077D01*
X115386062Y-62189507D01*
X115398077Y-62180211D01*
X115433931Y-62129006D01*
X115439414Y-62119511D01*
X115531490Y-61922053D01*
X115535236Y-61911761D01*
X115591625Y-61701312D01*
X115593528Y-61690519D01*
X115612517Y-61473475D01*
X115612517Y-61462525D01*
X115593528Y-61245481D01*
X115591625Y-61234688D01*
X115535236Y-61024239D01*
X115531490Y-61013947D01*
X115439414Y-60816489D01*
X115433931Y-60806994D01*
X115397491Y-60754952D01*
X115387012Y-60746576D01*
X115373566Y-60753644D01*
X114672022Y-61455188D01*
X114664408Y-61469132D01*
X113934356Y-61469132D01*
X113935592Y-61466868D01*
X113935461Y-61465035D01*
X113931210Y-61458420D01*
X113225713Y-60752923D01*
X113213938Y-60746493D01*
X113201923Y-60755789D01*
X113166069Y-60806994D01*
X113160586Y-60816489D01*
X113068510Y-61013947D01*
X113064764Y-61024239D01*
X113008375Y-61234688D01*
X113006472Y-61245481D01*
X112987483Y-61462525D01*
X112987483Y-61473475D01*
X107993019Y-61473475D01*
X107993498Y-61468000D01*
X107973543Y-61239913D01*
X107936981Y-61103461D01*
X107915707Y-61024067D01*
X107915706Y-61024065D01*
X107914284Y-61018757D01*
X107911961Y-61013775D01*
X107819849Y-60816238D01*
X107819846Y-60816233D01*
X107817523Y-60811251D01*
X107686198Y-60623700D01*
X107524300Y-60461802D01*
X107519792Y-60458645D01*
X107519789Y-60458643D01*
X107408886Y-60380988D01*
X113578576Y-60380988D01*
X113585644Y-60394434D01*
X114287188Y-61095978D01*
X114301132Y-61103592D01*
X114302965Y-61103461D01*
X114309580Y-61099210D01*
X115015077Y-60393713D01*
X115021507Y-60381938D01*
X115012211Y-60369923D01*
X114961006Y-60334069D01*
X114951511Y-60328586D01*
X114754053Y-60236510D01*
X114743761Y-60232764D01*
X114533312Y-60176375D01*
X114522519Y-60174472D01*
X114305475Y-60155483D01*
X114294525Y-60155483D01*
X114077481Y-60174472D01*
X114066688Y-60176375D01*
X113856239Y-60232764D01*
X113845947Y-60236510D01*
X113648489Y-60328586D01*
X113638994Y-60334069D01*
X113586952Y-60370509D01*
X113578576Y-60380988D01*
X107408886Y-60380988D01*
X107393920Y-60370509D01*
X107336749Y-60330477D01*
X107331767Y-60328154D01*
X107331762Y-60328151D01*
X107134225Y-60236039D01*
X107134224Y-60236039D01*
X107129243Y-60233716D01*
X107123935Y-60232294D01*
X107123933Y-60232293D01*
X106913402Y-60175881D01*
X106913400Y-60175881D01*
X106908087Y-60174457D01*
X106680000Y-60154502D01*
X106451913Y-60174457D01*
X106446600Y-60175881D01*
X106446598Y-60175881D01*
X106236067Y-60232293D01*
X106236065Y-60232294D01*
X106230757Y-60233716D01*
X106225776Y-60236039D01*
X106225775Y-60236039D01*
X106028238Y-60328151D01*
X106028233Y-60328154D01*
X106023251Y-60330477D01*
X105966080Y-60370509D01*
X105840211Y-60458643D01*
X105840208Y-60458645D01*
X105835700Y-60461802D01*
X105673802Y-60623700D01*
X105542477Y-60811251D01*
X105540154Y-60816233D01*
X105540151Y-60816238D01*
X105448039Y-61013775D01*
X105445716Y-61018757D01*
X105444294Y-61024065D01*
X105444293Y-61024067D01*
X105423019Y-61103461D01*
X105386457Y-61239913D01*
X105366502Y-61468000D01*
X104461886Y-61468000D01*
X104486961Y-61414225D01*
X104486961Y-61414224D01*
X104489284Y-61409243D01*
X104548543Y-61188087D01*
X104568498Y-60960000D01*
X104548543Y-60731913D01*
X104489284Y-60510757D01*
X104429215Y-60381938D01*
X104394849Y-60308238D01*
X104394846Y-60308233D01*
X104392523Y-60303251D01*
X104302005Y-60173978D01*
X104264357Y-60120211D01*
X104264355Y-60120208D01*
X104261198Y-60115700D01*
X104099300Y-59953802D01*
X104094792Y-59950645D01*
X104094789Y-59950643D01*
X104016611Y-59895902D01*
X103911749Y-59822477D01*
X103906767Y-59820154D01*
X103906762Y-59820151D01*
X103872543Y-59804195D01*
X103819258Y-59757278D01*
X103799797Y-59689001D01*
X103820339Y-59621041D01*
X103872543Y-59575805D01*
X103906762Y-59559849D01*
X103906767Y-59559846D01*
X103911749Y-59557523D01*
X104016611Y-59484098D01*
X104094789Y-59429357D01*
X104094792Y-59429355D01*
X104099300Y-59426198D01*
X104261198Y-59264300D01*
X104392523Y-59076749D01*
X104394846Y-59071767D01*
X104394849Y-59071762D01*
X104486961Y-58874225D01*
X104486961Y-58874224D01*
X104489284Y-58869243D01*
X104548543Y-58648087D01*
X104568498Y-58420000D01*
X104548543Y-58191913D01*
X104489284Y-57970757D01*
X104486959Y-57965770D01*
X104468351Y-57925864D01*
X104457690Y-57855672D01*
X104486671Y-57790860D01*
X104493451Y-57783520D01*
X104635566Y-57641405D01*
X104697878Y-57607379D01*
X104724661Y-57604500D01*
X105418723Y-57604500D01*
X105486844Y-57624502D01*
X105533337Y-57678158D01*
X105543441Y-57748432D01*
X105532918Y-57783750D01*
X105448039Y-57965774D01*
X105448039Y-57965775D01*
X105445716Y-57970757D01*
X105386457Y-58191913D01*
X105366502Y-58420000D01*
X105386457Y-58648087D01*
X105445716Y-58869243D01*
X105448039Y-58874224D01*
X105448039Y-58874225D01*
X105540151Y-59071762D01*
X105540154Y-59071767D01*
X105542477Y-59076749D01*
X105673802Y-59264300D01*
X105835700Y-59426198D01*
X105840208Y-59429355D01*
X105840211Y-59429357D01*
X105918389Y-59484098D01*
X106023251Y-59557523D01*
X106028233Y-59559846D01*
X106028238Y-59559849D01*
X106225775Y-59651961D01*
X106230757Y-59654284D01*
X106236065Y-59655706D01*
X106236067Y-59655707D01*
X106446598Y-59712119D01*
X106446600Y-59712119D01*
X106451913Y-59713543D01*
X106680000Y-59733498D01*
X106908087Y-59713543D01*
X106913400Y-59712119D01*
X106913402Y-59712119D01*
X107123933Y-59655707D01*
X107123935Y-59655706D01*
X107129243Y-59654284D01*
X107134225Y-59651961D01*
X107331762Y-59559849D01*
X107331767Y-59559846D01*
X107336749Y-59557523D01*
X107441611Y-59484098D01*
X107519789Y-59429357D01*
X107519792Y-59429355D01*
X107524300Y-59426198D01*
X107686198Y-59264300D01*
X107817523Y-59076749D01*
X107819846Y-59071767D01*
X107819849Y-59071762D01*
X107911961Y-58874225D01*
X107911961Y-58874224D01*
X107914284Y-58869243D01*
X107973543Y-58648087D01*
X107993498Y-58420000D01*
X107973543Y-58191913D01*
X107914284Y-57970757D01*
X107911961Y-57965775D01*
X107911961Y-57965774D01*
X107827082Y-57783750D01*
X107816421Y-57713558D01*
X107845401Y-57648745D01*
X107904821Y-57609889D01*
X107941277Y-57604500D01*
X113038723Y-57604500D01*
X113106844Y-57624502D01*
X113153337Y-57678158D01*
X113163441Y-57748432D01*
X113152918Y-57783750D01*
X113068039Y-57965774D01*
X113068039Y-57965775D01*
X113065716Y-57970757D01*
X113006457Y-58191913D01*
X112986502Y-58420000D01*
X113006457Y-58648087D01*
X113065716Y-58869243D01*
X113068039Y-58874224D01*
X113068039Y-58874225D01*
X113160151Y-59071762D01*
X113160154Y-59071767D01*
X113162477Y-59076749D01*
X113293802Y-59264300D01*
X113455700Y-59426198D01*
X113460208Y-59429355D01*
X113460211Y-59429357D01*
X113538389Y-59484098D01*
X113643251Y-59557523D01*
X113648233Y-59559846D01*
X113648238Y-59559849D01*
X113845775Y-59651961D01*
X113850757Y-59654284D01*
X113856065Y-59655706D01*
X113856067Y-59655707D01*
X114066598Y-59712119D01*
X114066600Y-59712119D01*
X114071913Y-59713543D01*
X114300000Y-59733498D01*
X114528087Y-59713543D01*
X114533400Y-59712119D01*
X114533402Y-59712119D01*
X114743933Y-59655707D01*
X114743935Y-59655706D01*
X114749243Y-59654284D01*
X114754225Y-59651961D01*
X114951762Y-59559849D01*
X114951767Y-59559846D01*
X114956749Y-59557523D01*
X115061611Y-59484098D01*
X115139789Y-59429357D01*
X115139792Y-59429355D01*
X115144300Y-59426198D01*
X115306198Y-59264300D01*
X115437523Y-59076749D01*
X115439846Y-59071767D01*
X115439849Y-59071762D01*
X115531961Y-58874225D01*
X115531961Y-58874224D01*
X115534284Y-58869243D01*
X115593543Y-58648087D01*
X115613498Y-58420000D01*
X115593543Y-58191913D01*
X115534284Y-57970757D01*
X115531961Y-57965775D01*
X115439849Y-57768238D01*
X115439846Y-57768233D01*
X115437523Y-57763251D01*
X115340370Y-57624502D01*
X115309357Y-57580211D01*
X115309355Y-57580208D01*
X115306198Y-57575700D01*
X115144300Y-57413802D01*
X115139792Y-57410645D01*
X115139789Y-57410643D01*
X115062229Y-57356335D01*
X115017901Y-57300878D01*
X115008500Y-57253122D01*
X115008500Y-56904762D01*
X115008502Y-56904102D01*
X115008951Y-56818372D01*
X115008951Y-56818371D01*
X115008974Y-56813969D01*
X115008610Y-56812452D01*
X115008500Y-56810550D01*
X115008500Y-56538878D01*
X115028502Y-56470757D01*
X115038841Y-56460000D01*
X117866835Y-56460000D01*
X117885465Y-56696711D01*
X117886619Y-56701518D01*
X117886620Y-56701524D01*
X117909714Y-56797715D01*
X117940895Y-56927594D01*
X117942788Y-56932165D01*
X117942789Y-56932167D01*
X118023068Y-57125978D01*
X118031760Y-57146963D01*
X118034346Y-57151183D01*
X118153241Y-57345202D01*
X118153245Y-57345208D01*
X118155824Y-57349416D01*
X118310031Y-57529969D01*
X118490584Y-57684176D01*
X118494792Y-57686755D01*
X118494798Y-57686759D01*
X118688817Y-57805654D01*
X118693037Y-57808240D01*
X118697607Y-57810133D01*
X118697611Y-57810135D01*
X118907833Y-57897211D01*
X118912406Y-57899105D01*
X118992609Y-57918360D01*
X119138476Y-57953380D01*
X119138482Y-57953381D01*
X119143289Y-57954535D01*
X119380000Y-57973165D01*
X119616711Y-57954535D01*
X119621518Y-57953381D01*
X119621524Y-57953380D01*
X119767391Y-57918360D01*
X119847594Y-57899105D01*
X119852167Y-57897211D01*
X120062389Y-57810135D01*
X120062393Y-57810133D01*
X120066963Y-57808240D01*
X120071183Y-57805654D01*
X120265202Y-57686759D01*
X120265208Y-57686755D01*
X120269416Y-57684176D01*
X120449969Y-57529969D01*
X120604176Y-57349416D01*
X120606755Y-57345208D01*
X120606759Y-57345202D01*
X120725654Y-57151183D01*
X120728240Y-57146963D01*
X120736933Y-57125978D01*
X120817211Y-56932167D01*
X120817212Y-56932165D01*
X120819105Y-56927594D01*
X120850286Y-56797715D01*
X120873380Y-56701524D01*
X120873381Y-56701518D01*
X120874535Y-56696711D01*
X120893165Y-56460000D01*
X120874535Y-56223289D01*
X120872858Y-56216300D01*
X120820260Y-55997218D01*
X120819105Y-55992406D01*
X120817211Y-55987833D01*
X120730135Y-55777611D01*
X120730133Y-55777607D01*
X120728240Y-55773037D01*
X120622256Y-55600087D01*
X120606759Y-55574798D01*
X120606755Y-55574792D01*
X120604176Y-55570584D01*
X120449969Y-55390031D01*
X120269416Y-55235824D01*
X120265208Y-55233245D01*
X120265202Y-55233241D01*
X120071183Y-55114346D01*
X120066963Y-55111760D01*
X120062393Y-55109867D01*
X120062389Y-55109865D01*
X119852167Y-55022789D01*
X119852165Y-55022788D01*
X119847594Y-55020895D01*
X119767391Y-55001640D01*
X119621524Y-54966620D01*
X119621518Y-54966619D01*
X119616711Y-54965465D01*
X119380000Y-54946835D01*
X119143289Y-54965465D01*
X119138482Y-54966619D01*
X119138476Y-54966620D01*
X118992609Y-55001640D01*
X118912406Y-55020895D01*
X118907835Y-55022788D01*
X118907833Y-55022789D01*
X118697611Y-55109865D01*
X118697607Y-55109867D01*
X118693037Y-55111760D01*
X118688817Y-55114346D01*
X118494798Y-55233241D01*
X118494792Y-55233245D01*
X118490584Y-55235824D01*
X118310031Y-55390031D01*
X118155824Y-55570584D01*
X118153245Y-55574792D01*
X118153241Y-55574798D01*
X118137744Y-55600087D01*
X118031760Y-55773037D01*
X118029867Y-55777607D01*
X118029865Y-55777611D01*
X117942789Y-55987833D01*
X117940895Y-55992406D01*
X117939740Y-55997218D01*
X117887143Y-56216300D01*
X117885465Y-56223289D01*
X117866835Y-56460000D01*
X115038841Y-56460000D01*
X115062229Y-56435665D01*
X115139789Y-56381357D01*
X115139792Y-56381355D01*
X115144300Y-56378198D01*
X115306198Y-56216300D01*
X115330138Y-56182111D01*
X115422279Y-56050519D01*
X115437523Y-56028749D01*
X115439846Y-56023767D01*
X115439849Y-56023762D01*
X115531961Y-55826225D01*
X115531961Y-55826224D01*
X115534284Y-55821243D01*
X115593543Y-55600087D01*
X115613498Y-55372000D01*
X115593543Y-55143913D01*
X115592119Y-55138598D01*
X115535707Y-54928067D01*
X115535706Y-54928065D01*
X115534284Y-54922757D01*
X115496488Y-54841703D01*
X115439849Y-54720238D01*
X115439846Y-54720233D01*
X115437523Y-54715251D01*
X115347005Y-54585978D01*
X115309357Y-54532211D01*
X115309355Y-54532208D01*
X115306198Y-54527700D01*
X115144300Y-54365802D01*
X115139792Y-54362645D01*
X115139789Y-54362643D01*
X115061611Y-54307902D01*
X114956749Y-54234477D01*
X114951767Y-54232154D01*
X114951762Y-54232151D01*
X114754225Y-54140039D01*
X114754224Y-54140039D01*
X114749243Y-54137716D01*
X114743935Y-54136294D01*
X114743933Y-54136293D01*
X114533402Y-54079881D01*
X114533400Y-54079881D01*
X114528087Y-54078457D01*
X114300000Y-54058502D01*
X114071913Y-54078457D01*
X114066600Y-54079881D01*
X114066598Y-54079881D01*
X113856067Y-54136293D01*
X113856065Y-54136294D01*
X113850757Y-54137716D01*
X113845776Y-54140039D01*
X113845775Y-54140039D01*
X113648238Y-54232151D01*
X113648233Y-54232154D01*
X113643251Y-54234477D01*
X113538389Y-54307902D01*
X113460211Y-54362643D01*
X113460208Y-54362645D01*
X113455700Y-54365802D01*
X113293802Y-54527700D01*
X113290645Y-54532208D01*
X113290643Y-54532211D01*
X113252995Y-54585978D01*
X113162477Y-54715251D01*
X113160154Y-54720233D01*
X113160151Y-54720238D01*
X113103512Y-54841703D01*
X113065716Y-54922757D01*
X113064294Y-54928065D01*
X113064293Y-54928067D01*
X113007881Y-55138598D01*
X113006457Y-55143913D01*
X112986502Y-55372000D01*
X113006457Y-55600087D01*
X113065716Y-55821243D01*
X113068037Y-55826220D01*
X113068039Y-55826226D01*
X113152918Y-56008250D01*
X113163579Y-56078442D01*
X113134599Y-56143255D01*
X113075179Y-56182111D01*
X113038723Y-56187500D01*
X107941277Y-56187500D01*
X107873156Y-56167498D01*
X107826663Y-56113842D01*
X107816559Y-56043568D01*
X107827082Y-56008250D01*
X107911961Y-55826226D01*
X107911963Y-55826220D01*
X107914284Y-55821243D01*
X107973543Y-55600087D01*
X107993498Y-55372000D01*
X107973543Y-55143913D01*
X107972119Y-55138598D01*
X107915707Y-54928067D01*
X107915706Y-54928065D01*
X107914284Y-54922757D01*
X107876488Y-54841703D01*
X107819849Y-54720238D01*
X107819846Y-54720233D01*
X107817523Y-54715251D01*
X107727005Y-54585978D01*
X107689357Y-54532211D01*
X107689355Y-54532208D01*
X107686198Y-54527700D01*
X107524300Y-54365802D01*
X107519792Y-54362645D01*
X107519789Y-54362643D01*
X107441611Y-54307902D01*
X107336749Y-54234477D01*
X107331767Y-54232154D01*
X107331762Y-54232151D01*
X107134225Y-54140039D01*
X107134224Y-54140039D01*
X107129243Y-54137716D01*
X107123935Y-54136294D01*
X107123933Y-54136293D01*
X106913402Y-54079881D01*
X106913400Y-54079881D01*
X106908087Y-54078457D01*
X106680000Y-54058502D01*
X106451913Y-54078457D01*
X106446600Y-54079881D01*
X106446598Y-54079881D01*
X106236067Y-54136293D01*
X106236065Y-54136294D01*
X106230757Y-54137716D01*
X106225776Y-54140039D01*
X106225775Y-54140039D01*
X106028238Y-54232151D01*
X106028233Y-54232154D01*
X106023251Y-54234477D01*
X105918389Y-54307902D01*
X105840211Y-54362643D01*
X105840208Y-54362645D01*
X105835700Y-54365802D01*
X105673802Y-54527700D01*
X105670645Y-54532208D01*
X105670643Y-54532211D01*
X105632995Y-54585978D01*
X105542477Y-54715251D01*
X105540154Y-54720233D01*
X105540151Y-54720238D01*
X105483512Y-54841703D01*
X105445716Y-54922757D01*
X105444294Y-54928065D01*
X105444293Y-54928067D01*
X105387881Y-55138598D01*
X105386457Y-55143913D01*
X105366502Y-55372000D01*
X105386457Y-55600087D01*
X105445716Y-55821243D01*
X105448037Y-55826220D01*
X105448039Y-55826226D01*
X105532918Y-56008250D01*
X105543579Y-56078442D01*
X105514599Y-56143255D01*
X105455179Y-56182111D01*
X105418723Y-56187500D01*
X104679101Y-56187500D01*
X104610980Y-56167498D01*
X104564487Y-56113842D01*
X104553580Y-56050519D01*
X104568019Y-55885476D01*
X104568019Y-55885475D01*
X104568498Y-55880000D01*
X104548543Y-55651913D01*
X104534656Y-55600087D01*
X104490707Y-55436067D01*
X104490706Y-55436065D01*
X104489284Y-55430757D01*
X104470293Y-55390031D01*
X104394849Y-55228238D01*
X104394846Y-55228233D01*
X104392523Y-55223251D01*
X104261198Y-55035700D01*
X104099300Y-54873802D01*
X104094792Y-54870645D01*
X104094789Y-54870643D01*
X104016611Y-54815902D01*
X103911749Y-54742477D01*
X103906767Y-54740154D01*
X103906762Y-54740151D01*
X103709225Y-54648039D01*
X103709224Y-54648039D01*
X103704243Y-54645716D01*
X103698935Y-54644294D01*
X103698933Y-54644293D01*
X103488402Y-54587881D01*
X103488400Y-54587881D01*
X103483087Y-54586457D01*
X103383520Y-54577746D01*
X103314851Y-54571738D01*
X103314844Y-54571738D01*
X103312127Y-54571500D01*
X102397873Y-54571500D01*
X102395156Y-54571738D01*
X102395149Y-54571738D01*
X102326480Y-54577746D01*
X102226913Y-54586457D01*
X102221600Y-54587881D01*
X102221598Y-54587881D01*
X102011067Y-54644293D01*
X102011065Y-54644294D01*
X102005757Y-54645716D01*
X102000776Y-54648039D01*
X102000775Y-54648039D01*
X101803238Y-54740151D01*
X101803233Y-54740154D01*
X101798251Y-54742477D01*
X101693389Y-54815902D01*
X101615211Y-54870643D01*
X101615208Y-54870645D01*
X101610700Y-54873802D01*
X101448802Y-55035700D01*
X101317477Y-55223251D01*
X101315154Y-55228233D01*
X101315151Y-55228238D01*
X101239707Y-55390031D01*
X101220716Y-55430757D01*
X101219294Y-55436065D01*
X101219293Y-55436067D01*
X101175344Y-55600087D01*
X101161457Y-55651913D01*
X101141502Y-55880000D01*
X101161457Y-56108087D01*
X101162881Y-56113400D01*
X101162881Y-56113402D01*
X101193648Y-56228223D01*
X101220716Y-56329243D01*
X101223039Y-56334224D01*
X101223039Y-56334225D01*
X101315151Y-56531762D01*
X101315154Y-56531767D01*
X101317477Y-56536749D01*
X101390902Y-56641611D01*
X101433175Y-56701982D01*
X101448802Y-56724300D01*
X101610700Y-56886198D01*
X101615208Y-56889355D01*
X101615211Y-56889357D01*
X101636269Y-56904102D01*
X101798251Y-57017523D01*
X101803233Y-57019846D01*
X101803238Y-57019849D01*
X101837457Y-57035805D01*
X101890742Y-57082722D01*
X101910203Y-57150999D01*
X101889661Y-57218959D01*
X101837457Y-57264195D01*
X101803238Y-57280151D01*
X101803233Y-57280154D01*
X101798251Y-57282477D01*
X101697284Y-57353175D01*
X101615211Y-57410643D01*
X101615208Y-57410645D01*
X101610700Y-57413802D01*
X101448802Y-57575700D01*
X101445645Y-57580208D01*
X101445643Y-57580211D01*
X101414630Y-57624502D01*
X101317477Y-57763251D01*
X101315154Y-57768233D01*
X101315151Y-57768238D01*
X101223039Y-57965775D01*
X101220716Y-57970757D01*
X101161457Y-58191913D01*
X101141502Y-58420000D01*
X101161457Y-58648087D01*
X101220716Y-58869243D01*
X101223039Y-58874224D01*
X101223039Y-58874225D01*
X101315151Y-59071762D01*
X101315154Y-59071767D01*
X101317477Y-59076749D01*
X101448802Y-59264300D01*
X101610700Y-59426198D01*
X101615208Y-59429355D01*
X101615211Y-59429357D01*
X101693389Y-59484098D01*
X101798251Y-59557523D01*
X101803233Y-59559846D01*
X101803238Y-59559849D01*
X101837457Y-59575805D01*
X101890742Y-59622722D01*
X101910203Y-59690999D01*
X101889661Y-59758959D01*
X101837457Y-59804195D01*
X101803238Y-59820151D01*
X101803233Y-59820154D01*
X101798251Y-59822477D01*
X101693389Y-59895902D01*
X101615211Y-59950643D01*
X101615208Y-59950645D01*
X101610700Y-59953802D01*
X101448802Y-60115700D01*
X101445645Y-60120208D01*
X101445643Y-60120211D01*
X101407995Y-60173978D01*
X101317477Y-60303251D01*
X101315154Y-60308233D01*
X101315151Y-60308238D01*
X101280785Y-60381938D01*
X101220716Y-60510757D01*
X101161457Y-60731913D01*
X101141502Y-60960000D01*
X101161457Y-61188087D01*
X101220716Y-61409243D01*
X101223039Y-61414224D01*
X101223039Y-61414225D01*
X101315151Y-61611762D01*
X101315154Y-61611767D01*
X101317477Y-61616749D01*
X101448802Y-61804300D01*
X101610700Y-61966198D01*
X101615208Y-61969355D01*
X101615211Y-61969357D01*
X101693389Y-62024098D01*
X101798251Y-62097523D01*
X101803233Y-62099846D01*
X101803238Y-62099849D01*
X101837457Y-62115805D01*
X101890742Y-62162722D01*
X101910203Y-62230999D01*
X101889661Y-62298959D01*
X101837457Y-62344195D01*
X101803238Y-62360151D01*
X101803233Y-62360154D01*
X101798251Y-62362477D01*
X101693389Y-62435902D01*
X101615211Y-62490643D01*
X101615208Y-62490645D01*
X101610700Y-62493802D01*
X101448802Y-62655700D01*
X101317477Y-62843251D01*
X101315154Y-62848233D01*
X101315151Y-62848238D01*
X101315034Y-62848489D01*
X101220716Y-63050757D01*
X101161457Y-63271913D01*
X101141502Y-63500000D01*
X92270302Y-63500000D01*
X92201611Y-63451902D01*
X92096749Y-63378477D01*
X92091767Y-63376154D01*
X92091762Y-63376151D01*
X91894225Y-63284039D01*
X91894224Y-63284039D01*
X91889243Y-63281716D01*
X91883935Y-63280294D01*
X91883933Y-63280293D01*
X91673402Y-63223881D01*
X91673400Y-63223881D01*
X91668087Y-63222457D01*
X91440000Y-63202502D01*
X91211913Y-63222457D01*
X91206600Y-63223881D01*
X91206598Y-63223881D01*
X90996067Y-63280293D01*
X90996065Y-63280294D01*
X90990757Y-63281716D01*
X90985776Y-63284039D01*
X90985775Y-63284039D01*
X90788238Y-63376151D01*
X90788233Y-63376154D01*
X90783251Y-63378477D01*
X90678389Y-63451902D01*
X90600211Y-63506643D01*
X90600208Y-63506645D01*
X90595700Y-63509802D01*
X90433802Y-63671700D01*
X90302477Y-63859251D01*
X90300154Y-63864233D01*
X90300151Y-63864238D01*
X90227418Y-64020217D01*
X90205716Y-64066757D01*
X90204294Y-64072065D01*
X90204293Y-64072067D01*
X90165342Y-64217432D01*
X90146457Y-64287913D01*
X90126502Y-64516000D01*
X85133498Y-64516000D01*
X85113543Y-64287913D01*
X85094658Y-64217432D01*
X85055707Y-64072067D01*
X85055706Y-64072065D01*
X85054284Y-64066757D01*
X85032582Y-64020217D01*
X84959849Y-63864238D01*
X84959846Y-63864233D01*
X84957523Y-63859251D01*
X84826198Y-63671700D01*
X84664300Y-63509802D01*
X84659792Y-63506645D01*
X84659789Y-63506643D01*
X84581611Y-63451902D01*
X84476749Y-63378477D01*
X84471767Y-63376154D01*
X84471762Y-63376151D01*
X84274225Y-63284039D01*
X84274224Y-63284039D01*
X84269243Y-63281716D01*
X84263935Y-63280294D01*
X84263933Y-63280293D01*
X84053402Y-63223881D01*
X84053400Y-63223881D01*
X84048087Y-63222457D01*
X83820000Y-63202502D01*
X83591913Y-63222457D01*
X83586600Y-63223881D01*
X83586598Y-63223881D01*
X83376067Y-63280293D01*
X83376065Y-63280294D01*
X83370757Y-63281716D01*
X83365776Y-63284039D01*
X83365775Y-63284039D01*
X83168238Y-63376151D01*
X83168233Y-63376154D01*
X83163251Y-63378477D01*
X83058389Y-63451902D01*
X82980211Y-63506643D01*
X82980208Y-63506645D01*
X82975700Y-63509802D01*
X82813802Y-63671700D01*
X82682477Y-63859251D01*
X82680154Y-63864233D01*
X82680151Y-63864238D01*
X82607418Y-64020217D01*
X82585716Y-64066757D01*
X82584294Y-64072065D01*
X82584293Y-64072067D01*
X82545342Y-64217432D01*
X82526457Y-64287913D01*
X82506502Y-64516000D01*
X79324790Y-64516000D01*
X79601080Y-64239710D01*
X79607840Y-64227330D01*
X79602113Y-64219680D01*
X79430958Y-64114795D01*
X79422163Y-64110313D01*
X79212012Y-64023266D01*
X79202627Y-64020217D01*
X78981446Y-63967115D01*
X78971699Y-63965572D01*
X78744930Y-63947725D01*
X78735070Y-63947725D01*
X78508301Y-63965572D01*
X78498554Y-63967115D01*
X78277373Y-64020217D01*
X78267988Y-64023266D01*
X78057837Y-64110313D01*
X78049042Y-64114795D01*
X77881555Y-64217432D01*
X77872093Y-64227890D01*
X75259500Y-64227890D01*
X75259500Y-61468000D01*
X82506502Y-61468000D01*
X82526457Y-61696087D01*
X82527881Y-61701400D01*
X82527881Y-61701402D01*
X82565025Y-61840022D01*
X82585716Y-61917243D01*
X82588039Y-61922224D01*
X82588039Y-61922225D01*
X82680151Y-62119762D01*
X82680154Y-62119767D01*
X82682477Y-62124749D01*
X82721312Y-62180211D01*
X82804654Y-62299235D01*
X82813802Y-62312300D01*
X82975700Y-62474198D01*
X82980208Y-62477355D01*
X82980211Y-62477357D01*
X83058389Y-62532098D01*
X83163251Y-62605523D01*
X83168233Y-62607846D01*
X83168238Y-62607849D01*
X83364765Y-62699490D01*
X83370757Y-62702284D01*
X83376065Y-62703706D01*
X83376067Y-62703707D01*
X83586598Y-62760119D01*
X83586600Y-62760119D01*
X83591913Y-62761543D01*
X83820000Y-62781498D01*
X84048087Y-62761543D01*
X84053400Y-62760119D01*
X84053402Y-62760119D01*
X84263933Y-62703707D01*
X84263935Y-62703706D01*
X84269243Y-62702284D01*
X84275235Y-62699490D01*
X84471762Y-62607849D01*
X84471767Y-62607846D01*
X84476749Y-62605523D01*
X84550243Y-62554062D01*
X90718493Y-62554062D01*
X90727789Y-62566077D01*
X90778994Y-62601931D01*
X90788489Y-62607414D01*
X90985947Y-62699490D01*
X90996239Y-62703236D01*
X91206688Y-62759625D01*
X91217481Y-62761528D01*
X91434525Y-62780517D01*
X91445475Y-62780517D01*
X91662519Y-62761528D01*
X91673312Y-62759625D01*
X91883761Y-62703236D01*
X91894053Y-62699490D01*
X92091511Y-62607414D01*
X92101006Y-62601931D01*
X92153048Y-62565491D01*
X92161424Y-62555012D01*
X92154356Y-62541566D01*
X91452812Y-61840022D01*
X91438868Y-61832408D01*
X91437035Y-61832539D01*
X91430420Y-61836790D01*
X90724923Y-62542287D01*
X90718493Y-62554062D01*
X84550243Y-62554062D01*
X84581611Y-62532098D01*
X84659789Y-62477357D01*
X84659792Y-62477355D01*
X84664300Y-62474198D01*
X84826198Y-62312300D01*
X84835347Y-62299235D01*
X84918688Y-62180211D01*
X84957523Y-62124749D01*
X84959846Y-62119767D01*
X84959849Y-62119762D01*
X85051961Y-61922225D01*
X85051961Y-61922224D01*
X85054284Y-61917243D01*
X85074976Y-61840022D01*
X85112119Y-61701402D01*
X85112119Y-61701400D01*
X85113543Y-61696087D01*
X85133019Y-61473475D01*
X90127483Y-61473475D01*
X90146472Y-61690519D01*
X90148375Y-61701312D01*
X90204764Y-61911761D01*
X90208510Y-61922053D01*
X90300586Y-62119511D01*
X90306069Y-62129006D01*
X90342509Y-62181048D01*
X90352988Y-62189424D01*
X90366434Y-62182356D01*
X91067978Y-61480812D01*
X91074356Y-61469132D01*
X91804408Y-61469132D01*
X91804539Y-61470965D01*
X91808790Y-61477580D01*
X92514287Y-62183077D01*
X92526062Y-62189507D01*
X92538077Y-62180211D01*
X92573931Y-62129006D01*
X92579414Y-62119511D01*
X92671490Y-61922053D01*
X92675236Y-61911761D01*
X92731625Y-61701312D01*
X92733528Y-61690519D01*
X92752517Y-61473475D01*
X92752517Y-61462525D01*
X92733528Y-61245481D01*
X92731625Y-61234688D01*
X92675236Y-61024239D01*
X92671490Y-61013947D01*
X92646334Y-60960000D01*
X93521502Y-60960000D01*
X93541457Y-61188087D01*
X93600716Y-61409243D01*
X93603039Y-61414224D01*
X93603039Y-61414225D01*
X93695151Y-61611762D01*
X93695154Y-61611767D01*
X93697477Y-61616749D01*
X93828802Y-61804300D01*
X93990700Y-61966198D01*
X93995208Y-61969355D01*
X93995211Y-61969357D01*
X94073389Y-62024098D01*
X94178251Y-62097523D01*
X94183233Y-62099846D01*
X94183238Y-62099849D01*
X94218049Y-62116081D01*
X94271334Y-62162998D01*
X94290795Y-62231275D01*
X94270253Y-62299235D01*
X94218049Y-62344471D01*
X94183489Y-62360586D01*
X94173993Y-62366069D01*
X93995533Y-62491028D01*
X93987125Y-62498084D01*
X93833084Y-62652125D01*
X93826028Y-62660533D01*
X93701069Y-62838993D01*
X93695586Y-62848489D01*
X93603510Y-63045947D01*
X93599764Y-63056239D01*
X93553606Y-63228503D01*
X93553942Y-63242599D01*
X93561884Y-63246000D01*
X96902967Y-63246000D01*
X96916498Y-63242027D01*
X96917727Y-63233478D01*
X96870236Y-63056239D01*
X96866490Y-63045947D01*
X96774414Y-62848489D01*
X96768931Y-62838993D01*
X96643972Y-62660533D01*
X96636916Y-62652125D01*
X96482875Y-62498084D01*
X96474467Y-62491028D01*
X96296007Y-62366069D01*
X96286511Y-62360586D01*
X96251951Y-62344471D01*
X96198666Y-62297554D01*
X96179205Y-62229277D01*
X96199747Y-62161317D01*
X96251951Y-62116081D01*
X96286762Y-62099849D01*
X96286767Y-62099846D01*
X96291749Y-62097523D01*
X96396611Y-62024098D01*
X96474789Y-61969357D01*
X96474792Y-61969355D01*
X96479300Y-61966198D01*
X96641198Y-61804300D01*
X96772523Y-61616749D01*
X96774846Y-61611767D01*
X96774849Y-61611762D01*
X96866961Y-61414225D01*
X96866961Y-61414224D01*
X96869284Y-61409243D01*
X96928543Y-61188087D01*
X96948498Y-60960000D01*
X96928543Y-60731913D01*
X96869284Y-60510757D01*
X96809215Y-60381938D01*
X96774849Y-60308238D01*
X96774846Y-60308233D01*
X96772523Y-60303251D01*
X96682005Y-60173978D01*
X96644357Y-60120211D01*
X96644355Y-60120208D01*
X96641198Y-60115700D01*
X96479300Y-59953802D01*
X96474792Y-59950645D01*
X96474789Y-59950643D01*
X96396611Y-59895902D01*
X96291749Y-59822477D01*
X96286767Y-59820154D01*
X96286762Y-59820151D01*
X96252543Y-59804195D01*
X96199258Y-59757278D01*
X96179797Y-59689001D01*
X96200339Y-59621041D01*
X96252543Y-59575805D01*
X96286762Y-59559849D01*
X96286767Y-59559846D01*
X96291749Y-59557523D01*
X96396611Y-59484098D01*
X96474789Y-59429357D01*
X96474792Y-59429355D01*
X96479300Y-59426198D01*
X96641198Y-59264300D01*
X96772523Y-59076749D01*
X96774846Y-59071767D01*
X96774849Y-59071762D01*
X96866961Y-58874225D01*
X96866961Y-58874224D01*
X96869284Y-58869243D01*
X96928543Y-58648087D01*
X96948498Y-58420000D01*
X96928543Y-58191913D01*
X96869284Y-57970757D01*
X96866961Y-57965775D01*
X96774849Y-57768238D01*
X96774846Y-57768233D01*
X96772523Y-57763251D01*
X96675370Y-57624502D01*
X96644357Y-57580211D01*
X96644355Y-57580208D01*
X96641198Y-57575700D01*
X96479300Y-57413802D01*
X96474789Y-57410643D01*
X96470576Y-57407108D01*
X96471527Y-57405974D01*
X96431529Y-57355929D01*
X96424224Y-57285310D01*
X96456258Y-57221951D01*
X96517462Y-57185970D01*
X96534517Y-57182918D01*
X96545316Y-57181745D01*
X96681705Y-57130615D01*
X96798261Y-57043261D01*
X96885615Y-56926705D01*
X96936745Y-56790316D01*
X96943500Y-56728134D01*
X96943500Y-55031866D01*
X96936745Y-54969684D01*
X96885615Y-54833295D01*
X96798261Y-54716739D01*
X96681705Y-54629385D01*
X96545316Y-54578255D01*
X96483134Y-54571500D01*
X93986866Y-54571500D01*
X93924684Y-54578255D01*
X93788295Y-54629385D01*
X93671739Y-54716739D01*
X93584385Y-54833295D01*
X93533255Y-54969684D01*
X93526500Y-55031866D01*
X93526500Y-56728134D01*
X93533255Y-56790316D01*
X93584385Y-56926705D01*
X93671739Y-57043261D01*
X93788295Y-57130615D01*
X93924684Y-57181745D01*
X93935474Y-57182917D01*
X93937606Y-57183803D01*
X93940222Y-57184425D01*
X93940121Y-57184848D01*
X94001035Y-57210155D01*
X94041463Y-57268517D01*
X94043922Y-57339471D01*
X94007629Y-57400490D01*
X93998969Y-57407489D01*
X93995207Y-57410646D01*
X93990700Y-57413802D01*
X93828802Y-57575700D01*
X93825645Y-57580208D01*
X93825643Y-57580211D01*
X93794630Y-57624502D01*
X93697477Y-57763251D01*
X93695154Y-57768233D01*
X93695151Y-57768238D01*
X93603039Y-57965775D01*
X93600716Y-57970757D01*
X93541457Y-58191913D01*
X93521502Y-58420000D01*
X93541457Y-58648087D01*
X93600716Y-58869243D01*
X93603039Y-58874224D01*
X93603039Y-58874225D01*
X93695151Y-59071762D01*
X93695154Y-59071767D01*
X93697477Y-59076749D01*
X93828802Y-59264300D01*
X93990700Y-59426198D01*
X93995208Y-59429355D01*
X93995211Y-59429357D01*
X94073389Y-59484098D01*
X94178251Y-59557523D01*
X94183233Y-59559846D01*
X94183238Y-59559849D01*
X94217457Y-59575805D01*
X94270742Y-59622722D01*
X94290203Y-59690999D01*
X94269661Y-59758959D01*
X94217457Y-59804195D01*
X94183238Y-59820151D01*
X94183233Y-59820154D01*
X94178251Y-59822477D01*
X94073389Y-59895902D01*
X93995211Y-59950643D01*
X93995208Y-59950645D01*
X93990700Y-59953802D01*
X93828802Y-60115700D01*
X93825645Y-60120208D01*
X93825643Y-60120211D01*
X93787995Y-60173978D01*
X93697477Y-60303251D01*
X93695154Y-60308233D01*
X93695151Y-60308238D01*
X93660785Y-60381938D01*
X93600716Y-60510757D01*
X93541457Y-60731913D01*
X93521502Y-60960000D01*
X92646334Y-60960000D01*
X92579414Y-60816489D01*
X92573931Y-60806994D01*
X92537491Y-60754952D01*
X92527012Y-60746576D01*
X92513566Y-60753644D01*
X91812022Y-61455188D01*
X91804408Y-61469132D01*
X91074356Y-61469132D01*
X91075592Y-61466868D01*
X91075461Y-61465035D01*
X91071210Y-61458420D01*
X90365713Y-60752923D01*
X90353938Y-60746493D01*
X90341923Y-60755789D01*
X90306069Y-60806994D01*
X90300586Y-60816489D01*
X90208510Y-61013947D01*
X90204764Y-61024239D01*
X90148375Y-61234688D01*
X90146472Y-61245481D01*
X90127483Y-61462525D01*
X90127483Y-61473475D01*
X85133019Y-61473475D01*
X85133498Y-61468000D01*
X85113543Y-61239913D01*
X85076981Y-61103461D01*
X85055707Y-61024067D01*
X85055706Y-61024065D01*
X85054284Y-61018757D01*
X85051961Y-61013775D01*
X84959849Y-60816238D01*
X84959846Y-60816233D01*
X84957523Y-60811251D01*
X84826198Y-60623700D01*
X84664300Y-60461802D01*
X84659792Y-60458645D01*
X84659789Y-60458643D01*
X84548886Y-60380988D01*
X90718576Y-60380988D01*
X90725644Y-60394434D01*
X91427188Y-61095978D01*
X91441132Y-61103592D01*
X91442965Y-61103461D01*
X91449580Y-61099210D01*
X92155077Y-60393713D01*
X92161507Y-60381938D01*
X92152211Y-60369923D01*
X92101006Y-60334069D01*
X92091511Y-60328586D01*
X91894053Y-60236510D01*
X91883761Y-60232764D01*
X91673312Y-60176375D01*
X91662519Y-60174472D01*
X91445475Y-60155483D01*
X91434525Y-60155483D01*
X91217481Y-60174472D01*
X91206688Y-60176375D01*
X90996239Y-60232764D01*
X90985947Y-60236510D01*
X90788489Y-60328586D01*
X90778994Y-60334069D01*
X90726952Y-60370509D01*
X90718576Y-60380988D01*
X84548886Y-60380988D01*
X84533920Y-60370509D01*
X84476749Y-60330477D01*
X84471767Y-60328154D01*
X84471762Y-60328151D01*
X84274225Y-60236039D01*
X84274224Y-60236039D01*
X84269243Y-60233716D01*
X84263935Y-60232294D01*
X84263933Y-60232293D01*
X84053402Y-60175881D01*
X84053400Y-60175881D01*
X84048087Y-60174457D01*
X83820000Y-60154502D01*
X83591913Y-60174457D01*
X83586600Y-60175881D01*
X83586598Y-60175881D01*
X83376067Y-60232293D01*
X83376065Y-60232294D01*
X83370757Y-60233716D01*
X83365776Y-60236039D01*
X83365775Y-60236039D01*
X83168238Y-60328151D01*
X83168233Y-60328154D01*
X83163251Y-60330477D01*
X83106080Y-60370509D01*
X82980211Y-60458643D01*
X82980208Y-60458645D01*
X82975700Y-60461802D01*
X82813802Y-60623700D01*
X82682477Y-60811251D01*
X82680154Y-60816233D01*
X82680151Y-60816238D01*
X82588039Y-61013775D01*
X82585716Y-61018757D01*
X82584294Y-61024065D01*
X82584293Y-61024067D01*
X82563019Y-61103461D01*
X82526457Y-61239913D01*
X82506502Y-61468000D01*
X75259500Y-61468000D01*
X75259500Y-58420000D01*
X82506502Y-58420000D01*
X82526457Y-58648087D01*
X82585716Y-58869243D01*
X82588039Y-58874224D01*
X82588039Y-58874225D01*
X82680151Y-59071762D01*
X82680154Y-59071767D01*
X82682477Y-59076749D01*
X82813802Y-59264300D01*
X82975700Y-59426198D01*
X82980208Y-59429355D01*
X82980211Y-59429357D01*
X83058389Y-59484098D01*
X83163251Y-59557523D01*
X83168233Y-59559846D01*
X83168238Y-59559849D01*
X83365775Y-59651961D01*
X83370757Y-59654284D01*
X83376065Y-59655706D01*
X83376067Y-59655707D01*
X83586598Y-59712119D01*
X83586600Y-59712119D01*
X83591913Y-59713543D01*
X83820000Y-59733498D01*
X84048087Y-59713543D01*
X84053400Y-59712119D01*
X84053402Y-59712119D01*
X84263933Y-59655707D01*
X84263935Y-59655706D01*
X84269243Y-59654284D01*
X84274225Y-59651961D01*
X84471762Y-59559849D01*
X84471767Y-59559846D01*
X84476749Y-59557523D01*
X84581611Y-59484098D01*
X84659789Y-59429357D01*
X84659792Y-59429355D01*
X84664300Y-59426198D01*
X84826198Y-59264300D01*
X84883665Y-59182229D01*
X84939122Y-59137901D01*
X84986878Y-59128500D01*
X88363088Y-59128500D01*
X88371658Y-59128792D01*
X88421776Y-59132209D01*
X88421780Y-59132209D01*
X88429352Y-59132725D01*
X88436829Y-59131420D01*
X88436830Y-59131420D01*
X88463308Y-59126799D01*
X88492303Y-59121738D01*
X88498821Y-59120777D01*
X88562242Y-59113102D01*
X88569343Y-59110419D01*
X88571952Y-59109778D01*
X88588262Y-59105315D01*
X88590798Y-59104550D01*
X88598284Y-59103243D01*
X88656800Y-59077556D01*
X88662904Y-59075065D01*
X88671646Y-59071762D01*
X88722656Y-59052487D01*
X88728919Y-59048183D01*
X88731285Y-59046946D01*
X88746097Y-59038701D01*
X88748351Y-59037368D01*
X88755305Y-59034315D01*
X88806002Y-58995413D01*
X88811332Y-58991541D01*
X88857720Y-58959661D01*
X88857725Y-58959656D01*
X88863981Y-58955357D01*
X88905436Y-58908829D01*
X88910416Y-58903554D01*
X90017164Y-57796806D01*
X90079476Y-57762780D01*
X90150291Y-57767845D01*
X90207127Y-57810392D01*
X90231938Y-57876912D01*
X90220454Y-57939151D01*
X90208039Y-57965774D01*
X90208039Y-57965775D01*
X90205716Y-57970757D01*
X90146457Y-58191913D01*
X90126502Y-58420000D01*
X90146457Y-58648087D01*
X90205716Y-58869243D01*
X90208039Y-58874224D01*
X90208039Y-58874225D01*
X90300151Y-59071762D01*
X90300154Y-59071767D01*
X90302477Y-59076749D01*
X90433802Y-59264300D01*
X90595700Y-59426198D01*
X90600208Y-59429355D01*
X90600211Y-59429357D01*
X90678389Y-59484098D01*
X90783251Y-59557523D01*
X90788233Y-59559846D01*
X90788238Y-59559849D01*
X90985775Y-59651961D01*
X90990757Y-59654284D01*
X90996065Y-59655706D01*
X90996067Y-59655707D01*
X91206598Y-59712119D01*
X91206600Y-59712119D01*
X91211913Y-59713543D01*
X91440000Y-59733498D01*
X91668087Y-59713543D01*
X91673400Y-59712119D01*
X91673402Y-59712119D01*
X91883933Y-59655707D01*
X91883935Y-59655706D01*
X91889243Y-59654284D01*
X91894225Y-59651961D01*
X92091762Y-59559849D01*
X92091767Y-59559846D01*
X92096749Y-59557523D01*
X92201611Y-59484098D01*
X92279789Y-59429357D01*
X92279792Y-59429355D01*
X92284300Y-59426198D01*
X92446198Y-59264300D01*
X92577523Y-59076749D01*
X92579846Y-59071767D01*
X92579849Y-59071762D01*
X92671961Y-58874225D01*
X92671961Y-58874224D01*
X92674284Y-58869243D01*
X92733543Y-58648087D01*
X92753498Y-58420000D01*
X92733543Y-58191913D01*
X92674284Y-57970757D01*
X92671961Y-57965775D01*
X92579849Y-57768238D01*
X92579846Y-57768233D01*
X92577523Y-57763251D01*
X92480370Y-57624502D01*
X92449357Y-57580211D01*
X92449355Y-57580208D01*
X92446198Y-57575700D01*
X92284300Y-57413802D01*
X92279792Y-57410645D01*
X92279789Y-57410643D01*
X92197716Y-57353175D01*
X92096749Y-57282477D01*
X92091767Y-57280154D01*
X92091762Y-57280151D01*
X91894225Y-57188039D01*
X91894224Y-57188039D01*
X91889243Y-57185716D01*
X91883935Y-57184294D01*
X91883933Y-57184293D01*
X91673402Y-57127881D01*
X91673400Y-57127881D01*
X91668087Y-57126457D01*
X91440000Y-57106502D01*
X91211913Y-57126457D01*
X91206600Y-57127881D01*
X91206598Y-57127881D01*
X90996067Y-57184293D01*
X90996065Y-57184294D01*
X90990757Y-57185716D01*
X90985780Y-57188037D01*
X90985774Y-57188039D01*
X90959151Y-57200454D01*
X90888959Y-57211115D01*
X90824146Y-57182135D01*
X90785290Y-57122715D01*
X90784727Y-57051721D01*
X90816806Y-56997164D01*
X91111988Y-56701982D01*
X91174300Y-56667956D01*
X91212063Y-56665556D01*
X91440000Y-56685498D01*
X91668087Y-56665543D01*
X91673400Y-56664119D01*
X91673402Y-56664119D01*
X91883933Y-56607707D01*
X91883935Y-56607706D01*
X91889243Y-56606284D01*
X91894225Y-56603961D01*
X92091762Y-56511849D01*
X92091767Y-56511846D01*
X92096749Y-56509523D01*
X92202229Y-56435665D01*
X92279789Y-56381357D01*
X92279792Y-56381355D01*
X92284300Y-56378198D01*
X92446198Y-56216300D01*
X92470138Y-56182111D01*
X92562279Y-56050519D01*
X92577523Y-56028749D01*
X92579846Y-56023767D01*
X92579849Y-56023762D01*
X92671961Y-55826225D01*
X92671961Y-55826224D01*
X92674284Y-55821243D01*
X92733543Y-55600087D01*
X92753498Y-55372000D01*
X92733543Y-55143913D01*
X92732119Y-55138598D01*
X92675707Y-54928067D01*
X92675706Y-54928065D01*
X92674284Y-54922757D01*
X92636488Y-54841703D01*
X92579849Y-54720238D01*
X92579846Y-54720233D01*
X92577523Y-54715251D01*
X92487005Y-54585978D01*
X92449357Y-54532211D01*
X92449355Y-54532208D01*
X92446198Y-54527700D01*
X92284300Y-54365802D01*
X92279792Y-54362645D01*
X92279789Y-54362643D01*
X92201611Y-54307902D01*
X92096749Y-54234477D01*
X92091767Y-54232154D01*
X92091762Y-54232151D01*
X91894225Y-54140039D01*
X91894224Y-54140039D01*
X91889243Y-54137716D01*
X91883935Y-54136294D01*
X91883933Y-54136293D01*
X91673402Y-54079881D01*
X91673400Y-54079881D01*
X91668087Y-54078457D01*
X91440000Y-54058502D01*
X91211913Y-54078457D01*
X91206600Y-54079881D01*
X91206598Y-54079881D01*
X90996067Y-54136293D01*
X90996065Y-54136294D01*
X90990757Y-54137716D01*
X90985776Y-54140039D01*
X90985775Y-54140039D01*
X90788238Y-54232151D01*
X90788233Y-54232154D01*
X90783251Y-54234477D01*
X90678389Y-54307902D01*
X90600211Y-54362643D01*
X90600208Y-54362645D01*
X90595700Y-54365802D01*
X90433802Y-54527700D01*
X90430645Y-54532208D01*
X90430643Y-54532211D01*
X90392995Y-54585978D01*
X90302477Y-54715251D01*
X90300154Y-54720233D01*
X90300151Y-54720238D01*
X90243512Y-54841703D01*
X90205716Y-54922757D01*
X90204294Y-54928065D01*
X90204293Y-54928067D01*
X90147881Y-55138598D01*
X90146457Y-55143913D01*
X90126502Y-55372000D01*
X90126981Y-55377475D01*
X90146444Y-55599935D01*
X90132455Y-55669540D01*
X90110018Y-55700012D01*
X88135435Y-57674595D01*
X88073123Y-57708621D01*
X88046340Y-57711500D01*
X84986878Y-57711500D01*
X84918757Y-57691498D01*
X84883665Y-57657771D01*
X84829357Y-57580211D01*
X84829355Y-57580208D01*
X84826198Y-57575700D01*
X84664300Y-57413802D01*
X84659792Y-57410645D01*
X84659789Y-57410643D01*
X84577716Y-57353175D01*
X84476749Y-57282477D01*
X84471767Y-57280154D01*
X84471762Y-57280151D01*
X84274225Y-57188039D01*
X84274224Y-57188039D01*
X84269243Y-57185716D01*
X84263935Y-57184294D01*
X84263933Y-57184293D01*
X84053402Y-57127881D01*
X84053400Y-57127881D01*
X84048087Y-57126457D01*
X83820000Y-57106502D01*
X83591913Y-57126457D01*
X83586600Y-57127881D01*
X83586598Y-57127881D01*
X83376067Y-57184293D01*
X83376065Y-57184294D01*
X83370757Y-57185716D01*
X83365776Y-57188039D01*
X83365775Y-57188039D01*
X83168238Y-57280151D01*
X83168233Y-57280154D01*
X83163251Y-57282477D01*
X83062284Y-57353175D01*
X82980211Y-57410643D01*
X82980208Y-57410645D01*
X82975700Y-57413802D01*
X82813802Y-57575700D01*
X82810645Y-57580208D01*
X82810643Y-57580211D01*
X82779630Y-57624502D01*
X82682477Y-57763251D01*
X82680154Y-57768233D01*
X82680151Y-57768238D01*
X82588039Y-57965775D01*
X82585716Y-57970757D01*
X82526457Y-58191913D01*
X82506502Y-58420000D01*
X75259500Y-58420000D01*
X75259500Y-56460000D01*
X77226835Y-56460000D01*
X77245465Y-56696711D01*
X77246619Y-56701518D01*
X77246620Y-56701524D01*
X77269714Y-56797715D01*
X77300895Y-56927594D01*
X77302788Y-56932165D01*
X77302789Y-56932167D01*
X77383068Y-57125978D01*
X77391760Y-57146963D01*
X77394346Y-57151183D01*
X77513241Y-57345202D01*
X77513245Y-57345208D01*
X77515824Y-57349416D01*
X77670031Y-57529969D01*
X77850584Y-57684176D01*
X77854792Y-57686755D01*
X77854798Y-57686759D01*
X78048817Y-57805654D01*
X78053037Y-57808240D01*
X78057607Y-57810133D01*
X78057611Y-57810135D01*
X78267833Y-57897211D01*
X78272406Y-57899105D01*
X78352609Y-57918360D01*
X78498476Y-57953380D01*
X78498482Y-57953381D01*
X78503289Y-57954535D01*
X78740000Y-57973165D01*
X78976711Y-57954535D01*
X78981518Y-57953381D01*
X78981524Y-57953380D01*
X79127391Y-57918360D01*
X79207594Y-57899105D01*
X79212167Y-57897211D01*
X79422389Y-57810135D01*
X79422393Y-57810133D01*
X79426963Y-57808240D01*
X79431183Y-57805654D01*
X79625202Y-57686759D01*
X79625208Y-57686755D01*
X79629416Y-57684176D01*
X79809969Y-57529969D01*
X79964176Y-57349416D01*
X79966755Y-57345208D01*
X79966759Y-57345202D01*
X80085654Y-57151183D01*
X80088240Y-57146963D01*
X80096933Y-57125978D01*
X80177211Y-56932167D01*
X80177212Y-56932165D01*
X80179105Y-56927594D01*
X80210286Y-56797715D01*
X80233380Y-56701524D01*
X80233381Y-56701518D01*
X80234535Y-56696711D01*
X80253165Y-56460000D01*
X80234535Y-56223289D01*
X80232858Y-56216300D01*
X80180260Y-55997218D01*
X80179105Y-55992406D01*
X80177211Y-55987833D01*
X80090135Y-55777611D01*
X80090133Y-55777607D01*
X80088240Y-55773037D01*
X79982256Y-55600087D01*
X79966759Y-55574798D01*
X79966755Y-55574792D01*
X79964176Y-55570584D01*
X79809969Y-55390031D01*
X79788857Y-55372000D01*
X82506502Y-55372000D01*
X82526457Y-55600087D01*
X82585716Y-55821243D01*
X82588039Y-55826224D01*
X82588039Y-55826225D01*
X82680151Y-56023762D01*
X82680154Y-56023767D01*
X82682477Y-56028749D01*
X82697721Y-56050519D01*
X82789863Y-56182111D01*
X82813802Y-56216300D01*
X82975700Y-56378198D01*
X82980208Y-56381355D01*
X82980211Y-56381357D01*
X83057771Y-56435665D01*
X83163251Y-56509523D01*
X83168233Y-56511846D01*
X83168238Y-56511849D01*
X83365775Y-56603961D01*
X83370757Y-56606284D01*
X83376065Y-56607706D01*
X83376067Y-56607707D01*
X83586598Y-56664119D01*
X83586600Y-56664119D01*
X83591913Y-56665543D01*
X83820000Y-56685498D01*
X84048087Y-56665543D01*
X84053400Y-56664119D01*
X84053402Y-56664119D01*
X84263933Y-56607707D01*
X84263935Y-56607706D01*
X84269243Y-56606284D01*
X84274225Y-56603961D01*
X84471762Y-56511849D01*
X84471767Y-56511846D01*
X84476749Y-56509523D01*
X84582229Y-56435665D01*
X84659789Y-56381357D01*
X84659792Y-56381355D01*
X84664300Y-56378198D01*
X84826198Y-56216300D01*
X84850138Y-56182111D01*
X84942279Y-56050519D01*
X84957523Y-56028749D01*
X84959846Y-56023767D01*
X84959849Y-56023762D01*
X85051961Y-55826225D01*
X85051961Y-55826224D01*
X85054284Y-55821243D01*
X85113543Y-55600087D01*
X85133498Y-55372000D01*
X85113543Y-55143913D01*
X85112119Y-55138598D01*
X85055707Y-54928067D01*
X85055706Y-54928065D01*
X85054284Y-54922757D01*
X85016488Y-54841703D01*
X84959849Y-54720238D01*
X84959846Y-54720233D01*
X84957523Y-54715251D01*
X84867005Y-54585978D01*
X84829357Y-54532211D01*
X84829355Y-54532208D01*
X84826198Y-54527700D01*
X84664300Y-54365802D01*
X84659792Y-54362645D01*
X84659789Y-54362643D01*
X84581611Y-54307902D01*
X84476749Y-54234477D01*
X84471767Y-54232154D01*
X84471762Y-54232151D01*
X84274225Y-54140039D01*
X84274224Y-54140039D01*
X84269243Y-54137716D01*
X84263935Y-54136294D01*
X84263933Y-54136293D01*
X84053402Y-54079881D01*
X84053400Y-54079881D01*
X84048087Y-54078457D01*
X83820000Y-54058502D01*
X83591913Y-54078457D01*
X83586600Y-54079881D01*
X83586598Y-54079881D01*
X83376067Y-54136293D01*
X83376065Y-54136294D01*
X83370757Y-54137716D01*
X83365776Y-54140039D01*
X83365775Y-54140039D01*
X83168238Y-54232151D01*
X83168233Y-54232154D01*
X83163251Y-54234477D01*
X83058389Y-54307902D01*
X82980211Y-54362643D01*
X82980208Y-54362645D01*
X82975700Y-54365802D01*
X82813802Y-54527700D01*
X82810645Y-54532208D01*
X82810643Y-54532211D01*
X82772995Y-54585978D01*
X82682477Y-54715251D01*
X82680154Y-54720233D01*
X82680151Y-54720238D01*
X82623512Y-54841703D01*
X82585716Y-54922757D01*
X82584294Y-54928065D01*
X82584293Y-54928067D01*
X82527881Y-55138598D01*
X82526457Y-55143913D01*
X82506502Y-55372000D01*
X79788857Y-55372000D01*
X79629416Y-55235824D01*
X79625208Y-55233245D01*
X79625202Y-55233241D01*
X79431183Y-55114346D01*
X79426963Y-55111760D01*
X79422393Y-55109867D01*
X79422389Y-55109865D01*
X79212167Y-55022789D01*
X79212165Y-55022788D01*
X79207594Y-55020895D01*
X79127391Y-55001640D01*
X78981524Y-54966620D01*
X78981518Y-54966619D01*
X78976711Y-54965465D01*
X78740000Y-54946835D01*
X78503289Y-54965465D01*
X78498482Y-54966619D01*
X78498476Y-54966620D01*
X78352609Y-55001640D01*
X78272406Y-55020895D01*
X78267835Y-55022788D01*
X78267833Y-55022789D01*
X78057611Y-55109865D01*
X78057607Y-55109867D01*
X78053037Y-55111760D01*
X78048817Y-55114346D01*
X77854798Y-55233241D01*
X77854792Y-55233245D01*
X77850584Y-55235824D01*
X77670031Y-55390031D01*
X77515824Y-55570584D01*
X77513245Y-55574792D01*
X77513241Y-55574798D01*
X77497744Y-55600087D01*
X77391760Y-55773037D01*
X77389867Y-55777607D01*
X77389865Y-55777611D01*
X77302789Y-55987833D01*
X77300895Y-55992406D01*
X77299740Y-55997218D01*
X77247143Y-56216300D01*
X77245465Y-56223289D01*
X77226835Y-56460000D01*
X75259500Y-56460000D01*
X75259500Y-52902062D01*
X95838493Y-52902062D01*
X95847789Y-52914077D01*
X95898994Y-52949931D01*
X95908489Y-52955414D01*
X96105947Y-53047490D01*
X96116239Y-53051236D01*
X96326688Y-53107625D01*
X96337481Y-53109528D01*
X96554525Y-53128517D01*
X96565475Y-53128517D01*
X96782519Y-53109528D01*
X96793312Y-53107625D01*
X97003761Y-53051236D01*
X97014053Y-53047490D01*
X97211511Y-52955414D01*
X97221006Y-52949931D01*
X97273048Y-52913491D01*
X97281424Y-52903012D01*
X97274356Y-52889566D01*
X96572812Y-52188022D01*
X96558868Y-52180408D01*
X96557035Y-52180539D01*
X96550420Y-52184790D01*
X95844923Y-52890287D01*
X95838493Y-52902062D01*
X75259500Y-52902062D01*
X75259500Y-50900744D01*
X75279502Y-50832623D01*
X75333158Y-50786130D01*
X75403432Y-50776026D01*
X75468012Y-50805520D01*
X75497767Y-50843541D01*
X75606115Y-51056185D01*
X75617597Y-51078720D01*
X75823137Y-51395225D01*
X76060635Y-51688511D01*
X76327489Y-51955365D01*
X76620775Y-52192863D01*
X76937280Y-52398403D01*
X76940214Y-52399898D01*
X76940221Y-52399902D01*
X77210123Y-52537424D01*
X77273535Y-52569734D01*
X77487959Y-52652044D01*
X77497716Y-52655789D01*
X77625857Y-52704978D01*
X77990387Y-52802653D01*
X78188353Y-52834008D01*
X78359881Y-52861176D01*
X78359889Y-52861177D01*
X78363129Y-52861690D01*
X78645720Y-52876500D01*
X78834280Y-52876500D01*
X79116871Y-52861690D01*
X79120111Y-52861177D01*
X79120119Y-52861176D01*
X79291647Y-52834008D01*
X79489613Y-52802653D01*
X79854143Y-52704978D01*
X79982285Y-52655789D01*
X79992041Y-52652044D01*
X80206465Y-52569734D01*
X80269877Y-52537424D01*
X80539779Y-52399902D01*
X80539786Y-52399898D01*
X80542720Y-52398403D01*
X80859225Y-52192863D01*
X81152511Y-51955365D01*
X81330742Y-51777134D01*
X84899000Y-51777134D01*
X84905755Y-51839316D01*
X84956885Y-51975705D01*
X85044239Y-52092261D01*
X85160795Y-52179615D01*
X85297184Y-52230745D01*
X85359366Y-52237500D01*
X87360634Y-52237500D01*
X87422816Y-52230745D01*
X87559205Y-52179615D01*
X87675761Y-52092261D01*
X87763115Y-51975705D01*
X87770573Y-51955811D01*
X87813213Y-51899047D01*
X87879774Y-51874346D01*
X87949123Y-51889553D01*
X87966647Y-51901158D01*
X88084670Y-51994367D01*
X88084675Y-51994370D01*
X88088724Y-51997568D01*
X88093240Y-52000061D01*
X88093243Y-52000063D01*
X88294526Y-52111177D01*
X88294530Y-52111179D01*
X88299050Y-52113674D01*
X88303919Y-52115398D01*
X88303923Y-52115400D01*
X88520640Y-52192144D01*
X88520644Y-52192145D01*
X88525515Y-52193870D01*
X88530608Y-52194777D01*
X88530611Y-52194778D01*
X88756948Y-52235095D01*
X88756954Y-52235096D01*
X88762037Y-52236001D01*
X88849400Y-52237068D01*
X88997093Y-52238873D01*
X88997095Y-52238873D01*
X89002263Y-52238936D01*
X89239744Y-52202596D01*
X89351997Y-52165906D01*
X89463183Y-52129566D01*
X89463189Y-52129563D01*
X89468101Y-52127958D01*
X89472687Y-52125571D01*
X89472691Y-52125569D01*
X89676607Y-52019416D01*
X89681200Y-52017025D01*
X89873320Y-51872777D01*
X90039301Y-51699088D01*
X90064535Y-51662097D01*
X90119444Y-51617096D01*
X90189968Y-51608925D01*
X90253716Y-51640179D01*
X90274411Y-51664660D01*
X90278498Y-51670977D01*
X90440186Y-51848670D01*
X90517017Y-51909347D01*
X90624670Y-51994367D01*
X90624675Y-51994370D01*
X90628724Y-51997568D01*
X90633240Y-52000061D01*
X90633243Y-52000063D01*
X90834526Y-52111177D01*
X90834530Y-52111179D01*
X90839050Y-52113674D01*
X90843919Y-52115398D01*
X90843923Y-52115400D01*
X91060640Y-52192144D01*
X91060644Y-52192145D01*
X91065515Y-52193870D01*
X91070608Y-52194777D01*
X91070611Y-52194778D01*
X91296948Y-52235095D01*
X91296954Y-52235096D01*
X91302037Y-52236001D01*
X91389400Y-52237068D01*
X91537093Y-52238873D01*
X91537095Y-52238873D01*
X91542263Y-52238936D01*
X91779744Y-52202596D01*
X91891997Y-52165906D01*
X92003183Y-52129566D01*
X92003189Y-52129563D01*
X92008101Y-52127958D01*
X92012687Y-52125571D01*
X92012691Y-52125569D01*
X92216607Y-52019416D01*
X92221200Y-52017025D01*
X92413320Y-51872777D01*
X92462345Y-51821475D01*
X95247483Y-51821475D01*
X95266472Y-52038519D01*
X95268375Y-52049312D01*
X95324764Y-52259761D01*
X95328510Y-52270053D01*
X95420586Y-52467511D01*
X95426069Y-52477006D01*
X95462509Y-52529048D01*
X95472988Y-52537424D01*
X95486434Y-52530356D01*
X96187978Y-51828812D01*
X96194356Y-51817132D01*
X96924408Y-51817132D01*
X96924539Y-51818965D01*
X96928790Y-51825580D01*
X97634287Y-52531077D01*
X97646062Y-52537507D01*
X97658077Y-52528211D01*
X97693931Y-52477006D01*
X97699414Y-52467511D01*
X97791490Y-52270053D01*
X97795236Y-52259761D01*
X97851625Y-52049312D01*
X97853528Y-52038519D01*
X97872517Y-51821475D01*
X97872517Y-51816000D01*
X100246502Y-51816000D01*
X100266457Y-52044087D01*
X100267881Y-52049400D01*
X100267881Y-52049402D01*
X100317881Y-52236001D01*
X100325716Y-52265243D01*
X100328039Y-52270224D01*
X100328039Y-52270225D01*
X100420151Y-52467762D01*
X100420154Y-52467767D01*
X100422477Y-52472749D01*
X100553802Y-52660300D01*
X100715700Y-52822198D01*
X100720208Y-52825355D01*
X100720211Y-52825357D01*
X100771366Y-52861176D01*
X100903251Y-52953523D01*
X100908233Y-52955846D01*
X100908238Y-52955849D01*
X101104765Y-53047490D01*
X101110757Y-53050284D01*
X101116065Y-53051706D01*
X101116067Y-53051707D01*
X101326598Y-53108119D01*
X101326600Y-53108119D01*
X101331913Y-53109543D01*
X101560000Y-53129498D01*
X101788087Y-53109543D01*
X101793400Y-53108119D01*
X101793402Y-53108119D01*
X102003933Y-53051707D01*
X102003935Y-53051706D01*
X102009243Y-53050284D01*
X102015235Y-53047490D01*
X102211762Y-52955849D01*
X102211767Y-52955846D01*
X102216749Y-52953523D01*
X102348634Y-52861176D01*
X102399789Y-52825357D01*
X102399792Y-52825355D01*
X102404300Y-52822198D01*
X102566198Y-52660300D01*
X102697523Y-52472749D01*
X102699846Y-52467767D01*
X102699849Y-52467762D01*
X102791961Y-52270225D01*
X102791961Y-52270224D01*
X102794284Y-52265243D01*
X102802120Y-52236001D01*
X102852119Y-52049402D01*
X102852119Y-52049400D01*
X102853543Y-52044087D01*
X102873498Y-51816000D01*
X102870098Y-51777134D01*
X105219000Y-51777134D01*
X105225755Y-51839316D01*
X105276885Y-51975705D01*
X105364239Y-52092261D01*
X105480795Y-52179615D01*
X105617184Y-52230745D01*
X105679366Y-52237500D01*
X107680634Y-52237500D01*
X107742816Y-52230745D01*
X107879205Y-52179615D01*
X107995761Y-52092261D01*
X108083115Y-51975705D01*
X108090573Y-51955811D01*
X108133213Y-51899047D01*
X108199774Y-51874346D01*
X108269123Y-51889553D01*
X108286647Y-51901158D01*
X108404670Y-51994367D01*
X108404675Y-51994370D01*
X108408724Y-51997568D01*
X108413240Y-52000061D01*
X108413243Y-52000063D01*
X108614526Y-52111177D01*
X108614530Y-52111179D01*
X108619050Y-52113674D01*
X108623919Y-52115398D01*
X108623923Y-52115400D01*
X108840640Y-52192144D01*
X108840644Y-52192145D01*
X108845515Y-52193870D01*
X108850608Y-52194777D01*
X108850611Y-52194778D01*
X109076948Y-52235095D01*
X109076954Y-52235096D01*
X109082037Y-52236001D01*
X109169400Y-52237068D01*
X109317093Y-52238873D01*
X109317095Y-52238873D01*
X109322263Y-52238936D01*
X109559744Y-52202596D01*
X109671997Y-52165906D01*
X109783183Y-52129566D01*
X109783189Y-52129563D01*
X109788101Y-52127958D01*
X109792687Y-52125571D01*
X109792691Y-52125569D01*
X109996607Y-52019416D01*
X110001200Y-52017025D01*
X110193320Y-51872777D01*
X110359301Y-51699088D01*
X110384535Y-51662097D01*
X110439444Y-51617096D01*
X110509968Y-51608925D01*
X110573716Y-51640179D01*
X110594411Y-51664660D01*
X110598498Y-51670977D01*
X110760186Y-51848670D01*
X110837017Y-51909347D01*
X110944670Y-51994367D01*
X110944675Y-51994370D01*
X110948724Y-51997568D01*
X110953240Y-52000061D01*
X110953243Y-52000063D01*
X111154526Y-52111177D01*
X111154530Y-52111179D01*
X111159050Y-52113674D01*
X111163919Y-52115398D01*
X111163923Y-52115400D01*
X111380640Y-52192144D01*
X111380644Y-52192145D01*
X111385515Y-52193870D01*
X111390608Y-52194777D01*
X111390611Y-52194778D01*
X111616948Y-52235095D01*
X111616954Y-52235096D01*
X111622037Y-52236001D01*
X111709400Y-52237068D01*
X111857093Y-52238873D01*
X111857095Y-52238873D01*
X111862263Y-52238936D01*
X112099744Y-52202596D01*
X112211997Y-52165906D01*
X112323183Y-52129566D01*
X112323189Y-52129563D01*
X112328101Y-52127958D01*
X112332687Y-52125571D01*
X112332691Y-52125569D01*
X112536607Y-52019416D01*
X112541200Y-52017025D01*
X112733320Y-51872777D01*
X112899301Y-51699088D01*
X112978765Y-51582598D01*
X113031774Y-51504891D01*
X113031775Y-51504890D01*
X113034686Y-51500622D01*
X113060980Y-51443978D01*
X113133658Y-51287405D01*
X113133659Y-51287401D01*
X113135837Y-51282710D01*
X113200040Y-51051202D01*
X113221000Y-50855072D01*
X113221000Y-50620598D01*
X113217995Y-50584039D01*
X113212487Y-50517054D01*
X113206322Y-50442063D01*
X113147794Y-50209056D01*
X113051997Y-49988737D01*
X112941426Y-49817821D01*
X112924310Y-49791363D01*
X112924308Y-49791360D01*
X112921502Y-49787023D01*
X112759814Y-49609330D01*
X112682983Y-49548653D01*
X112575330Y-49463633D01*
X112575325Y-49463630D01*
X112571276Y-49460432D01*
X112566760Y-49457939D01*
X112566757Y-49457937D01*
X112365474Y-49346823D01*
X112365470Y-49346821D01*
X112360950Y-49344326D01*
X112356081Y-49342602D01*
X112356077Y-49342600D01*
X112139360Y-49265856D01*
X112139356Y-49265855D01*
X112134485Y-49264130D01*
X112129392Y-49263223D01*
X112129389Y-49263222D01*
X111903052Y-49222905D01*
X111903046Y-49222904D01*
X111897963Y-49221999D01*
X111805474Y-49220869D01*
X111662907Y-49219127D01*
X111662905Y-49219127D01*
X111657737Y-49219064D01*
X111420256Y-49255404D01*
X111308003Y-49292094D01*
X111196817Y-49328434D01*
X111196811Y-49328437D01*
X111191899Y-49330042D01*
X111187313Y-49332429D01*
X111187309Y-49332431D01*
X110983393Y-49438584D01*
X110978800Y-49440975D01*
X110974657Y-49444085D01*
X110974658Y-49444085D01*
X110810514Y-49567328D01*
X110786680Y-49585223D01*
X110620699Y-49758912D01*
X110595465Y-49795903D01*
X110540556Y-49840904D01*
X110470032Y-49849075D01*
X110406284Y-49817821D01*
X110385589Y-49793340D01*
X110384311Y-49791365D01*
X110381502Y-49787023D01*
X110219814Y-49609330D01*
X110142983Y-49548653D01*
X110035330Y-49463633D01*
X110035325Y-49463630D01*
X110031276Y-49460432D01*
X110026760Y-49457939D01*
X110026757Y-49457937D01*
X109825474Y-49346823D01*
X109825470Y-49346821D01*
X109820950Y-49344326D01*
X109816081Y-49342602D01*
X109816077Y-49342600D01*
X109599360Y-49265856D01*
X109599356Y-49265855D01*
X109594485Y-49264130D01*
X109589392Y-49263223D01*
X109589389Y-49263222D01*
X109363052Y-49222905D01*
X109363046Y-49222904D01*
X109357963Y-49221999D01*
X109265474Y-49220869D01*
X109122907Y-49219127D01*
X109122905Y-49219127D01*
X109117737Y-49219064D01*
X108880256Y-49255404D01*
X108768003Y-49292094D01*
X108656817Y-49328434D01*
X108656811Y-49328437D01*
X108651899Y-49330042D01*
X108647313Y-49332429D01*
X108647309Y-49332431D01*
X108443393Y-49438584D01*
X108438800Y-49440975D01*
X108283717Y-49557415D01*
X108217235Y-49582320D01*
X108147839Y-49567328D01*
X108097565Y-49517198D01*
X108090085Y-49500885D01*
X108086269Y-49490707D01*
X108086267Y-49490703D01*
X108083115Y-49482295D01*
X107995761Y-49365739D01*
X107879205Y-49278385D01*
X107742816Y-49227255D01*
X107680634Y-49220500D01*
X105679366Y-49220500D01*
X105617184Y-49227255D01*
X105480795Y-49278385D01*
X105364239Y-49365739D01*
X105276885Y-49482295D01*
X105225755Y-49618684D01*
X105219000Y-49680866D01*
X105219000Y-51777134D01*
X102870098Y-51777134D01*
X102853543Y-51587913D01*
X102830153Y-51500622D01*
X102795707Y-51372067D01*
X102795706Y-51372065D01*
X102794284Y-51366757D01*
X102757282Y-51287405D01*
X102699849Y-51164238D01*
X102699846Y-51164233D01*
X102697523Y-51159251D01*
X102566198Y-50971700D01*
X102404300Y-50809802D01*
X102399792Y-50806645D01*
X102399789Y-50806643D01*
X102273920Y-50718509D01*
X102216749Y-50678477D01*
X102211767Y-50676154D01*
X102211762Y-50676151D01*
X102014225Y-50584039D01*
X102014224Y-50584039D01*
X102009243Y-50581716D01*
X102003935Y-50580294D01*
X102003933Y-50580293D01*
X101793402Y-50523881D01*
X101793400Y-50523881D01*
X101788087Y-50522457D01*
X101560000Y-50502502D01*
X101331913Y-50522457D01*
X101326600Y-50523881D01*
X101326598Y-50523881D01*
X101116067Y-50580293D01*
X101116065Y-50580294D01*
X101110757Y-50581716D01*
X101105776Y-50584039D01*
X101105775Y-50584039D01*
X100908238Y-50676151D01*
X100908233Y-50676154D01*
X100903251Y-50678477D01*
X100846080Y-50718509D01*
X100720211Y-50806643D01*
X100720208Y-50806645D01*
X100715700Y-50809802D01*
X100553802Y-50971700D01*
X100422477Y-51159251D01*
X100420154Y-51164233D01*
X100420151Y-51164238D01*
X100362718Y-51287405D01*
X100325716Y-51366757D01*
X100324294Y-51372065D01*
X100324293Y-51372067D01*
X100289847Y-51500622D01*
X100266457Y-51587913D01*
X100246502Y-51816000D01*
X97872517Y-51816000D01*
X97872517Y-51810525D01*
X97853528Y-51593481D01*
X97851625Y-51582688D01*
X97795236Y-51372239D01*
X97791490Y-51361947D01*
X97699414Y-51164489D01*
X97693931Y-51154994D01*
X97657491Y-51102952D01*
X97647012Y-51094576D01*
X97633566Y-51101644D01*
X96932022Y-51803188D01*
X96924408Y-51817132D01*
X96194356Y-51817132D01*
X96195592Y-51814868D01*
X96195461Y-51813035D01*
X96191210Y-51806420D01*
X95485713Y-51100923D01*
X95473938Y-51094493D01*
X95461923Y-51103789D01*
X95426069Y-51154994D01*
X95420586Y-51164489D01*
X95328510Y-51361947D01*
X95324764Y-51372239D01*
X95268375Y-51582688D01*
X95266472Y-51593481D01*
X95247483Y-51810525D01*
X95247483Y-51821475D01*
X92462345Y-51821475D01*
X92579301Y-51699088D01*
X92658765Y-51582598D01*
X92711774Y-51504891D01*
X92711775Y-51504890D01*
X92714686Y-51500622D01*
X92740980Y-51443978D01*
X92813658Y-51287405D01*
X92813659Y-51287401D01*
X92815837Y-51282710D01*
X92880040Y-51051202D01*
X92901000Y-50855072D01*
X92901000Y-50728988D01*
X95838576Y-50728988D01*
X95845644Y-50742434D01*
X96547188Y-51443978D01*
X96561132Y-51451592D01*
X96562965Y-51451461D01*
X96569580Y-51447210D01*
X97275077Y-50741713D01*
X97281507Y-50729938D01*
X97272211Y-50717923D01*
X97221006Y-50682069D01*
X97211511Y-50676586D01*
X97014053Y-50584510D01*
X97003761Y-50580764D01*
X96793312Y-50524375D01*
X96782519Y-50522472D01*
X96565475Y-50503483D01*
X96554525Y-50503483D01*
X96337481Y-50522472D01*
X96326688Y-50524375D01*
X96116239Y-50580764D01*
X96105947Y-50584510D01*
X95908489Y-50676586D01*
X95898994Y-50682069D01*
X95846952Y-50718509D01*
X95838576Y-50728988D01*
X92901000Y-50728988D01*
X92901000Y-50620598D01*
X92897995Y-50584039D01*
X92892487Y-50517054D01*
X92886322Y-50442063D01*
X92827794Y-50209056D01*
X92731997Y-49988737D01*
X92621426Y-49817821D01*
X92604310Y-49791363D01*
X92604308Y-49791360D01*
X92601502Y-49787023D01*
X92439814Y-49609330D01*
X92362983Y-49548653D01*
X92255330Y-49463633D01*
X92255325Y-49463630D01*
X92251276Y-49460432D01*
X92246760Y-49457939D01*
X92246757Y-49457937D01*
X92045474Y-49346823D01*
X92045470Y-49346821D01*
X92040950Y-49344326D01*
X92036081Y-49342602D01*
X92036077Y-49342600D01*
X91819360Y-49265856D01*
X91819356Y-49265855D01*
X91814485Y-49264130D01*
X91809392Y-49263223D01*
X91809389Y-49263222D01*
X91583052Y-49222905D01*
X91583046Y-49222904D01*
X91577963Y-49221999D01*
X91485474Y-49220869D01*
X91342907Y-49219127D01*
X91342905Y-49219127D01*
X91337737Y-49219064D01*
X91100256Y-49255404D01*
X90988003Y-49292094D01*
X90876817Y-49328434D01*
X90876811Y-49328437D01*
X90871899Y-49330042D01*
X90867313Y-49332429D01*
X90867309Y-49332431D01*
X90663393Y-49438584D01*
X90658800Y-49440975D01*
X90654657Y-49444085D01*
X90654658Y-49444085D01*
X90490514Y-49567328D01*
X90466680Y-49585223D01*
X90300699Y-49758912D01*
X90275465Y-49795903D01*
X90220556Y-49840904D01*
X90150032Y-49849075D01*
X90086284Y-49817821D01*
X90065589Y-49793340D01*
X90064311Y-49791365D01*
X90061502Y-49787023D01*
X89899814Y-49609330D01*
X89822983Y-49548653D01*
X89715330Y-49463633D01*
X89715325Y-49463630D01*
X89711276Y-49460432D01*
X89706760Y-49457939D01*
X89706757Y-49457937D01*
X89505474Y-49346823D01*
X89505470Y-49346821D01*
X89500950Y-49344326D01*
X89496081Y-49342602D01*
X89496077Y-49342600D01*
X89279360Y-49265856D01*
X89279356Y-49265855D01*
X89274485Y-49264130D01*
X89269392Y-49263223D01*
X89269389Y-49263222D01*
X89043052Y-49222905D01*
X89043046Y-49222904D01*
X89037963Y-49221999D01*
X88945474Y-49220869D01*
X88802907Y-49219127D01*
X88802905Y-49219127D01*
X88797737Y-49219064D01*
X88560256Y-49255404D01*
X88448003Y-49292094D01*
X88336817Y-49328434D01*
X88336811Y-49328437D01*
X88331899Y-49330042D01*
X88327313Y-49332429D01*
X88327309Y-49332431D01*
X88123393Y-49438584D01*
X88118800Y-49440975D01*
X87963717Y-49557415D01*
X87897235Y-49582320D01*
X87827839Y-49567328D01*
X87777565Y-49517198D01*
X87770085Y-49500885D01*
X87766269Y-49490707D01*
X87766267Y-49490703D01*
X87763115Y-49482295D01*
X87675761Y-49365739D01*
X87559205Y-49278385D01*
X87422816Y-49227255D01*
X87360634Y-49220500D01*
X85359366Y-49220500D01*
X85297184Y-49227255D01*
X85160795Y-49278385D01*
X85044239Y-49365739D01*
X84956885Y-49482295D01*
X84905755Y-49618684D01*
X84899000Y-49680866D01*
X84899000Y-51777134D01*
X81330742Y-51777134D01*
X81419365Y-51688511D01*
X81656863Y-51395225D01*
X81860606Y-51081489D01*
X81860607Y-51081487D01*
X81862403Y-51078721D01*
X81863903Y-51075779D01*
X82032236Y-50745405D01*
X82033734Y-50742465D01*
X82168978Y-50390143D01*
X82266653Y-50025613D01*
X82325690Y-49652871D01*
X82345441Y-49276000D01*
X82325690Y-48899129D01*
X82266653Y-48526387D01*
X82168978Y-48161857D01*
X82033734Y-47809535D01*
X81862403Y-47473280D01*
X81656863Y-47156775D01*
X81419365Y-46863489D01*
X81152511Y-46596635D01*
X80859225Y-46359137D01*
X80542720Y-46153597D01*
X80539786Y-46152102D01*
X80539779Y-46152098D01*
X80307541Y-46033767D01*
X80255926Y-45985019D01*
X80238860Y-45916104D01*
X80261761Y-45848902D01*
X80317358Y-45804750D01*
X80364744Y-45795500D01*
X117755256Y-45795500D01*
X117823377Y-45815502D01*
G37*
G04 #@! TD.AperFunction*
M02*
