G04 #@! TF.GenerationSoftware,KiCad,Pcbnew,6.0.7-f9a2dced07~116~ubuntu22.04.1*
G04 #@! TF.CreationDate,2022-09-20T02:39:39+03:00*
G04 #@! TF.ProjectId,double-electronic-load,646f7562-6c65-42d6-956c-656374726f6e,rev?*
G04 #@! TF.SameCoordinates,Original*
G04 #@! TF.FileFunction,Soldermask,Bot*
G04 #@! TF.FilePolarity,Negative*
%FSLAX46Y46*%
G04 Gerber Fmt 4.6, Leading zero omitted, Abs format (unit mm)*
G04 Created by KiCad (PCBNEW 6.0.7-f9a2dced07~116~ubuntu22.04.1) date 2022-09-20 02:39:39*
%MOMM*%
%LPD*%
G01*
G04 APERTURE LIST*
G04 Aperture macros list*
%AMRoundRect*
0 Rectangle with rounded corners*
0 $1 Rounding radius*
0 $2 $3 $4 $5 $6 $7 $8 $9 X,Y pos of 4 corners*
0 Add a 4 corners polygon primitive as box body*
4,1,4,$2,$3,$4,$5,$6,$7,$8,$9,$2,$3,0*
0 Add four circle primitives for the rounded corners*
1,1,$1+$1,$2,$3*
1,1,$1+$1,$4,$5*
1,1,$1+$1,$6,$7*
1,1,$1+$1,$8,$9*
0 Add four rect primitives between the rounded corners*
20,1,$1+$1,$2,$3,$4,$5,0*
20,1,$1+$1,$4,$5,$6,$7,0*
20,1,$1+$1,$6,$7,$8,$9,0*
20,1,$1+$1,$8,$9,$2,$3,0*%
G04 Aperture macros list end*
%ADD10R,1.905000X2.000000*%
%ADD11O,1.905000X2.000000*%
%ADD12C,1.600000*%
%ADD13O,1.600000X1.600000*%
%ADD14R,2.200000X2.200000*%
%ADD15C,2.200000*%
%ADD16C,3.200000*%
%ADD17C,1.440000*%
%ADD18C,2.000000*%
%ADD19R,1.800000X1.100000*%
%ADD20RoundRect,0.275000X-0.625000X0.275000X-0.625000X-0.275000X0.625000X-0.275000X0.625000X0.275000X0*%
%ADD21R,2.400000X1.600000*%
%ADD22O,2.400000X1.600000*%
%ADD23RoundRect,0.275000X0.625000X-0.275000X0.625000X0.275000X-0.625000X0.275000X-0.625000X-0.275000X0*%
G04 APERTURE END LIST*
D10*
X106680000Y-50729000D03*
D11*
X109220000Y-50729000D03*
X111760000Y-50729000D03*
D12*
X114300000Y-61468000D03*
D13*
X106680000Y-61468000D03*
D12*
X91480000Y-77724000D03*
D13*
X83860000Y-77724000D03*
D12*
X83860000Y-74676000D03*
D13*
X91480000Y-74676000D03*
D14*
X96545400Y-88823800D03*
D15*
X101625400Y-88823800D03*
D12*
X114300000Y-55372000D03*
D13*
X106680000Y-55372000D03*
D12*
X91440000Y-55372000D03*
D13*
X83820000Y-55372000D03*
D16*
X78740000Y-91948000D03*
D12*
X91440000Y-61468000D03*
D13*
X83820000Y-61468000D03*
D17*
X78740000Y-79756000D03*
X78740000Y-77216000D03*
X78740000Y-74676000D03*
D12*
X107990000Y-68072000D03*
X112990000Y-68072000D03*
X106680000Y-58420000D03*
D13*
X114300000Y-58420000D03*
D12*
X91480000Y-80772000D03*
D13*
X83860000Y-80772000D03*
D12*
X83860000Y-71628000D03*
D13*
X91480000Y-71628000D03*
D12*
X114300000Y-71628000D03*
D13*
X106680000Y-71628000D03*
D18*
X119380000Y-65460000D03*
X119380000Y-56460000D03*
D12*
X114300000Y-74676000D03*
D13*
X106680000Y-74676000D03*
D14*
X106680000Y-88823800D03*
D15*
X111760000Y-88823800D03*
D16*
X119380000Y-49276000D03*
D18*
X78740000Y-65460000D03*
X78740000Y-56460000D03*
D12*
X106680000Y-77724000D03*
D13*
X114300000Y-77724000D03*
D12*
X106680000Y-64516000D03*
D13*
X114300000Y-64516000D03*
D16*
X119380000Y-91948000D03*
X78740000Y-49276000D03*
D19*
X101188000Y-68326000D03*
D20*
X103258000Y-69596000D03*
X101188000Y-70866000D03*
D12*
X91440000Y-58420000D03*
D13*
X83820000Y-58420000D03*
D12*
X96012000Y-79756000D03*
X96012000Y-74756000D03*
X101560000Y-51816000D03*
X96560000Y-51816000D03*
X91440000Y-64516000D03*
D13*
X83820000Y-64516000D03*
D10*
X86360000Y-50729000D03*
D11*
X88900000Y-50729000D03*
X91440000Y-50729000D03*
D12*
X102108000Y-79756000D03*
X102108000Y-74756000D03*
X106680000Y-80772000D03*
D13*
X114300000Y-80772000D03*
D14*
X86360000Y-88823800D03*
D15*
X91440000Y-88823800D03*
D21*
X95235000Y-55880000D03*
D22*
X95235000Y-58420000D03*
X95235000Y-60960000D03*
X95235000Y-63500000D03*
X102855000Y-63500000D03*
X102855000Y-60960000D03*
X102855000Y-58420000D03*
X102855000Y-55880000D03*
D17*
X119380000Y-79756000D03*
X119380000Y-77216000D03*
X119380000Y-74676000D03*
D12*
X89876000Y-68072000D03*
X84876000Y-68072000D03*
D19*
X96932000Y-70866000D03*
D23*
X94862000Y-69596000D03*
X96932000Y-68326000D03*
M02*
