G04 #@! TF.GenerationSoftware,KiCad,Pcbnew,6.0.7-f9a2dced07~116~ubuntu22.04.1*
G04 #@! TF.CreationDate,2022-09-20T02:39:39+03:00*
G04 #@! TF.ProjectId,double-electronic-load,646f7562-6c65-42d6-956c-656374726f6e,rev?*
G04 #@! TF.SameCoordinates,Original*
G04 #@! TF.FileFunction,Legend,Bot*
G04 #@! TF.FilePolarity,Positive*
%FSLAX46Y46*%
G04 Gerber Fmt 4.6, Leading zero omitted, Abs format (unit mm)*
G04 Created by KiCad (PCBNEW 6.0.7-f9a2dced07~116~ubuntu22.04.1) date 2022-09-20 02:39:39*
%MOMM*%
%LPD*%
G01*
G04 APERTURE LIST*
G04 Aperture macros list*
%AMRoundRect*
0 Rectangle with rounded corners*
0 $1 Rounding radius*
0 $2 $3 $4 $5 $6 $7 $8 $9 X,Y pos of 4 corners*
0 Add a 4 corners polygon primitive as box body*
4,1,4,$2,$3,$4,$5,$6,$7,$8,$9,$2,$3,0*
0 Add four circle primitives for the rounded corners*
1,1,$1+$1,$2,$3*
1,1,$1+$1,$4,$5*
1,1,$1+$1,$6,$7*
1,1,$1+$1,$8,$9*
0 Add four rect primitives between the rounded corners*
20,1,$1+$1,$2,$3,$4,$5,0*
20,1,$1+$1,$4,$5,$6,$7,0*
20,1,$1+$1,$6,$7,$8,$9,0*
20,1,$1+$1,$8,$9,$2,$3,0*%
G04 Aperture macros list end*
%ADD10C,0.150000*%
%ADD11C,0.300000*%
%ADD12R,1.905000X2.000000*%
%ADD13O,1.905000X2.000000*%
%ADD14C,1.600000*%
%ADD15O,1.600000X1.600000*%
%ADD16R,2.200000X2.200000*%
%ADD17C,2.200000*%
%ADD18C,3.200000*%
%ADD19C,1.440000*%
%ADD20C,2.000000*%
%ADD21R,1.800000X1.100000*%
%ADD22RoundRect,0.275000X-0.625000X0.275000X-0.625000X-0.275000X0.625000X-0.275000X0.625000X0.275000X0*%
%ADD23R,2.400000X1.600000*%
%ADD24O,2.400000X1.600000*%
%ADD25RoundRect,0.275000X0.625000X-0.275000X0.625000X0.275000X-0.625000X0.275000X-0.625000X-0.275000X0*%
G04 APERTURE END LIST*
D10*
X85089809Y-94067380D02*
X84756476Y-95067380D01*
X84423142Y-94067380D01*
X83566000Y-95067380D02*
X84137428Y-95067380D01*
X83851714Y-95067380D02*
X83851714Y-94067380D01*
X83946952Y-94210238D01*
X84042190Y-94305476D01*
X84137428Y-94353095D01*
X83137428Y-94972142D02*
X83089809Y-95019761D01*
X83137428Y-95067380D01*
X83185047Y-95019761D01*
X83137428Y-94972142D01*
X83137428Y-95067380D01*
X82470761Y-94067380D02*
X82375523Y-94067380D01*
X82280285Y-94115000D01*
X82232666Y-94162619D01*
X82185047Y-94257857D01*
X82137428Y-94448333D01*
X82137428Y-94686428D01*
X82185047Y-94876904D01*
X82232666Y-94972142D01*
X82280285Y-95019761D01*
X82375523Y-95067380D01*
X82470761Y-95067380D01*
X82566000Y-95019761D01*
X82613619Y-94972142D01*
X82661238Y-94876904D01*
X82708857Y-94686428D01*
X82708857Y-94448333D01*
X82661238Y-94257857D01*
X82613619Y-94162619D01*
X82566000Y-94115000D01*
X82470761Y-94067380D01*
X97853333Y-90511380D02*
X97520000Y-91511380D01*
X97186666Y-90511380D01*
X96281904Y-91416142D02*
X96329523Y-91463761D01*
X96472380Y-91511380D01*
X96567619Y-91511380D01*
X96710476Y-91463761D01*
X96805714Y-91368523D01*
X96853333Y-91273285D01*
X96900952Y-91082809D01*
X96900952Y-90939952D01*
X96853333Y-90749476D01*
X96805714Y-90654238D01*
X96710476Y-90559000D01*
X96567619Y-90511380D01*
X96472380Y-90511380D01*
X96329523Y-90559000D01*
X96281904Y-90606619D01*
X95281904Y-91416142D02*
X95329523Y-91463761D01*
X95472380Y-91511380D01*
X95567619Y-91511380D01*
X95710476Y-91463761D01*
X95805714Y-91368523D01*
X95853333Y-91273285D01*
X95900952Y-91082809D01*
X95900952Y-90939952D01*
X95853333Y-90749476D01*
X95805714Y-90654238D01*
X95710476Y-90559000D01*
X95567619Y-90511380D01*
X95472380Y-90511380D01*
X95329523Y-90559000D01*
X95281904Y-90606619D01*
X75620666Y-88024690D02*
X75668285Y-88072309D01*
X75811142Y-88167547D01*
X75906380Y-88215166D01*
X76049238Y-88262785D01*
X76287333Y-88310404D01*
X76477809Y-88310404D01*
X76715904Y-88262785D01*
X76858761Y-88215166D01*
X76954000Y-88167547D01*
X77096857Y-88072309D01*
X77144476Y-88024690D01*
X76096857Y-87072309D02*
X76049238Y-87119928D01*
X76001619Y-87262785D01*
X76001619Y-87358023D01*
X76049238Y-87500880D01*
X76144476Y-87596119D01*
X76239714Y-87643738D01*
X76430190Y-87691357D01*
X76573047Y-87691357D01*
X76763523Y-87643738D01*
X76858761Y-87596119D01*
X76954000Y-87500880D01*
X77001619Y-87358023D01*
X77001619Y-87262785D01*
X76954000Y-87119928D01*
X76906380Y-87072309D01*
X75620666Y-86738976D02*
X75668285Y-86691357D01*
X75811142Y-86596119D01*
X75906380Y-86548500D01*
X76049238Y-86500880D01*
X76287333Y-86453261D01*
X76477809Y-86453261D01*
X76715904Y-86500880D01*
X76858761Y-86548500D01*
X76954000Y-86596119D01*
X77096857Y-86691357D01*
X77144476Y-86738976D01*
X76906380Y-85262785D02*
X76954000Y-85215166D01*
X77001619Y-85119928D01*
X77001619Y-84881833D01*
X76954000Y-84786595D01*
X76906380Y-84738976D01*
X76811142Y-84691357D01*
X76715904Y-84691357D01*
X76573047Y-84738976D01*
X76001619Y-85310404D01*
X76001619Y-84691357D01*
X77001619Y-84072309D02*
X77001619Y-83977071D01*
X76954000Y-83881833D01*
X76906380Y-83834214D01*
X76811142Y-83786595D01*
X76620666Y-83738976D01*
X76382571Y-83738976D01*
X76192095Y-83786595D01*
X76096857Y-83834214D01*
X76049238Y-83881833D01*
X76001619Y-83977071D01*
X76001619Y-84072309D01*
X76049238Y-84167547D01*
X76096857Y-84215166D01*
X76192095Y-84262785D01*
X76382571Y-84310404D01*
X76620666Y-84310404D01*
X76811142Y-84262785D01*
X76906380Y-84215166D01*
X76954000Y-84167547D01*
X77001619Y-84072309D01*
X76906380Y-83358023D02*
X76954000Y-83310404D01*
X77001619Y-83215166D01*
X77001619Y-82977071D01*
X76954000Y-82881833D01*
X76906380Y-82834214D01*
X76811142Y-82786595D01*
X76715904Y-82786595D01*
X76573047Y-82834214D01*
X76001619Y-83405642D01*
X76001619Y-82786595D01*
X76906380Y-82405642D02*
X76954000Y-82358023D01*
X77001619Y-82262785D01*
X77001619Y-82024690D01*
X76954000Y-81929452D01*
X76906380Y-81881833D01*
X76811142Y-81834214D01*
X76715904Y-81834214D01*
X76573047Y-81881833D01*
X76001619Y-82453261D01*
X76001619Y-81834214D01*
X77001619Y-80786595D02*
X76001619Y-80453261D01*
X77001619Y-80119928D01*
X76001619Y-79786595D02*
X77001619Y-79786595D01*
X76287333Y-79453261D01*
X77001619Y-79119928D01*
X76001619Y-79119928D01*
X76287333Y-78691357D02*
X76287333Y-78215166D01*
X76001619Y-78786595D02*
X77001619Y-78453261D01*
X76001619Y-78119928D01*
X76096857Y-77215166D02*
X76049238Y-77262785D01*
X76001619Y-77405642D01*
X76001619Y-77500880D01*
X76049238Y-77643738D01*
X76144476Y-77738976D01*
X76239714Y-77786595D01*
X76430190Y-77834214D01*
X76573047Y-77834214D01*
X76763523Y-77786595D01*
X76858761Y-77738976D01*
X76954000Y-77643738D01*
X77001619Y-77500880D01*
X77001619Y-77405642D01*
X76954000Y-77262785D01*
X76906380Y-77215166D01*
X76001619Y-76786595D02*
X77001619Y-76786595D01*
X76525428Y-76786595D02*
X76525428Y-76215166D01*
X76001619Y-76215166D02*
X77001619Y-76215166D01*
X76001619Y-75738976D02*
X77001619Y-75738976D01*
X76001619Y-75262785D02*
X77001619Y-75262785D01*
X76001619Y-74691357D01*
X77001619Y-74691357D01*
X76001619Y-74215166D02*
X77001619Y-74215166D01*
X76049238Y-73786595D02*
X76001619Y-73643738D01*
X76001619Y-73405642D01*
X76049238Y-73310404D01*
X76096857Y-73262785D01*
X76192095Y-73215166D01*
X76287333Y-73215166D01*
X76382571Y-73262785D01*
X76430190Y-73310404D01*
X76477809Y-73405642D01*
X76525428Y-73596119D01*
X76573047Y-73691357D01*
X76620666Y-73738976D01*
X76715904Y-73786595D01*
X76811142Y-73786595D01*
X76906380Y-73738976D01*
X76954000Y-73691357D01*
X77001619Y-73596119D01*
X77001619Y-73358023D01*
X76954000Y-73215166D01*
X77001619Y-72929452D02*
X77001619Y-72358023D01*
X76001619Y-72643738D02*
X77001619Y-72643738D01*
X76049238Y-71977071D02*
X76001619Y-71977071D01*
X75906380Y-72024690D01*
X75858761Y-72072309D01*
X76287333Y-70834214D02*
X76287333Y-70358023D01*
X76001619Y-70929452D02*
X77001619Y-70596119D01*
X76001619Y-70262785D01*
X76001619Y-69929452D02*
X77001619Y-69929452D01*
X76001619Y-69358023D02*
X76573047Y-69786595D01*
X77001619Y-69358023D02*
X76430190Y-69929452D01*
X76287333Y-68977071D02*
X76287333Y-68500880D01*
X76001619Y-69072309D02*
X77001619Y-68738976D01*
X76001619Y-68405642D01*
X76001619Y-67310404D02*
X77001619Y-67310404D01*
X76001619Y-66738976D02*
X76573047Y-67167547D01*
X77001619Y-66738976D02*
X76430190Y-67310404D01*
X76287333Y-66358023D02*
X76287333Y-65881833D01*
X76001619Y-66453261D02*
X77001619Y-66119928D01*
X76001619Y-65786595D01*
X76049238Y-65500880D02*
X76001619Y-65358023D01*
X76001619Y-65119928D01*
X76049238Y-65024690D01*
X76096857Y-64977071D01*
X76192095Y-64929452D01*
X76287333Y-64929452D01*
X76382571Y-64977071D01*
X76430190Y-65024690D01*
X76477809Y-65119928D01*
X76525428Y-65310404D01*
X76573047Y-65405642D01*
X76620666Y-65453261D01*
X76715904Y-65500880D01*
X76811142Y-65500880D01*
X76906380Y-65453261D01*
X76954000Y-65405642D01*
X77001619Y-65310404D01*
X77001619Y-65072309D01*
X76954000Y-64929452D01*
X76477809Y-64310404D02*
X76001619Y-64310404D01*
X77001619Y-64643738D02*
X76477809Y-64310404D01*
X77001619Y-63977071D01*
X76287333Y-63691357D02*
X76287333Y-63215166D01*
X76001619Y-63786595D02*
X77001619Y-63453261D01*
X76001619Y-63119928D01*
X76001619Y-62786595D02*
X77001619Y-62786595D01*
X76001619Y-62215166D01*
X77001619Y-62215166D01*
X91876523Y-91468380D02*
X92352714Y-91468380D01*
X92352714Y-90468380D01*
X91543190Y-91087428D02*
X90781285Y-91087428D01*
X112069523Y-91638380D02*
X112545714Y-91638380D01*
X112545714Y-90638380D01*
X111736190Y-91257428D02*
X110974285Y-91257428D01*
D11*
X113829857Y-47731071D02*
X113829857Y-46231071D01*
X113472714Y-46231071D01*
X113258428Y-46302500D01*
X113115571Y-46445357D01*
X113044142Y-46588214D01*
X112972714Y-46873928D01*
X112972714Y-47088214D01*
X113044142Y-47373928D01*
X113115571Y-47516785D01*
X113258428Y-47659642D01*
X113472714Y-47731071D01*
X113829857Y-47731071D01*
X112044142Y-46231071D02*
X111758428Y-46231071D01*
X111615571Y-46302500D01*
X111472714Y-46445357D01*
X111401285Y-46731071D01*
X111401285Y-47231071D01*
X111472714Y-47516785D01*
X111615571Y-47659642D01*
X111758428Y-47731071D01*
X112044142Y-47731071D01*
X112187000Y-47659642D01*
X112329857Y-47516785D01*
X112401285Y-47231071D01*
X112401285Y-46731071D01*
X112329857Y-46445357D01*
X112187000Y-46302500D01*
X112044142Y-46231071D01*
X110758428Y-46231071D02*
X110758428Y-47445357D01*
X110687000Y-47588214D01*
X110615571Y-47659642D01*
X110472714Y-47731071D01*
X110187000Y-47731071D01*
X110044142Y-47659642D01*
X109972714Y-47588214D01*
X109901285Y-47445357D01*
X109901285Y-46231071D01*
X108687000Y-46945357D02*
X108472714Y-47016785D01*
X108401285Y-47088214D01*
X108329857Y-47231071D01*
X108329857Y-47445357D01*
X108401285Y-47588214D01*
X108472714Y-47659642D01*
X108615571Y-47731071D01*
X109187000Y-47731071D01*
X109187000Y-46231071D01*
X108687000Y-46231071D01*
X108544142Y-46302500D01*
X108472714Y-46373928D01*
X108401285Y-46516785D01*
X108401285Y-46659642D01*
X108472714Y-46802500D01*
X108544142Y-46873928D01*
X108687000Y-46945357D01*
X109187000Y-46945357D01*
X106972714Y-47731071D02*
X107687000Y-47731071D01*
X107687000Y-46231071D01*
X106472714Y-46945357D02*
X105972714Y-46945357D01*
X105758428Y-47731071D02*
X106472714Y-47731071D01*
X106472714Y-46231071D01*
X105758428Y-46231071D01*
X103972714Y-46945357D02*
X103472714Y-46945357D01*
X103258428Y-47731071D02*
X103972714Y-47731071D01*
X103972714Y-46231071D01*
X103258428Y-46231071D01*
X101901285Y-47731071D02*
X102615571Y-47731071D01*
X102615571Y-46231071D01*
X101401285Y-46945357D02*
X100901285Y-46945357D01*
X100687000Y-47731071D02*
X101401285Y-47731071D01*
X101401285Y-46231071D01*
X100687000Y-46231071D01*
X99187000Y-47588214D02*
X99258428Y-47659642D01*
X99472714Y-47731071D01*
X99615571Y-47731071D01*
X99829857Y-47659642D01*
X99972714Y-47516785D01*
X100044142Y-47373928D01*
X100115571Y-47088214D01*
X100115571Y-46873928D01*
X100044142Y-46588214D01*
X99972714Y-46445357D01*
X99829857Y-46302500D01*
X99615571Y-46231071D01*
X99472714Y-46231071D01*
X99258428Y-46302500D01*
X99187000Y-46373928D01*
X98758428Y-46231071D02*
X97901285Y-46231071D01*
X98329857Y-47731071D02*
X98329857Y-46231071D01*
X96544142Y-47731071D02*
X97044142Y-47016785D01*
X97401285Y-47731071D02*
X97401285Y-46231071D01*
X96829857Y-46231071D01*
X96687000Y-46302500D01*
X96615571Y-46373928D01*
X96544142Y-46516785D01*
X96544142Y-46731071D01*
X96615571Y-46873928D01*
X96687000Y-46945357D01*
X96829857Y-47016785D01*
X97401285Y-47016785D01*
X95615571Y-46231071D02*
X95329857Y-46231071D01*
X95187000Y-46302500D01*
X95044142Y-46445357D01*
X94972714Y-46731071D01*
X94972714Y-47231071D01*
X95044142Y-47516785D01*
X95187000Y-47659642D01*
X95329857Y-47731071D01*
X95615571Y-47731071D01*
X95758428Y-47659642D01*
X95901285Y-47516785D01*
X95972714Y-47231071D01*
X95972714Y-46731071D01*
X95901285Y-46445357D01*
X95758428Y-46302500D01*
X95615571Y-46231071D01*
X94329857Y-47731071D02*
X94329857Y-46231071D01*
X93472714Y-47731071D01*
X93472714Y-46231071D01*
X92758428Y-47731071D02*
X92758428Y-46231071D01*
X91187000Y-47588214D02*
X91258428Y-47659642D01*
X91472714Y-47731071D01*
X91615571Y-47731071D01*
X91829857Y-47659642D01*
X91972714Y-47516785D01*
X92044142Y-47373928D01*
X92115571Y-47088214D01*
X92115571Y-46873928D01*
X92044142Y-46588214D01*
X91972714Y-46445357D01*
X91829857Y-46302500D01*
X91615571Y-46231071D01*
X91472714Y-46231071D01*
X91258428Y-46302500D01*
X91187000Y-46373928D01*
X88687000Y-47731071D02*
X89401285Y-47731071D01*
X89401285Y-46231071D01*
X87901285Y-46231071D02*
X87615571Y-46231071D01*
X87472714Y-46302500D01*
X87329857Y-46445357D01*
X87258428Y-46731071D01*
X87258428Y-47231071D01*
X87329857Y-47516785D01*
X87472714Y-47659642D01*
X87615571Y-47731071D01*
X87901285Y-47731071D01*
X88044142Y-47659642D01*
X88187000Y-47516785D01*
X88258428Y-47231071D01*
X88258428Y-46731071D01*
X88187000Y-46445357D01*
X88044142Y-46302500D01*
X87901285Y-46231071D01*
X86687000Y-47302500D02*
X85972714Y-47302500D01*
X86829857Y-47731071D02*
X86329857Y-46231071D01*
X85829857Y-47731071D01*
X85329857Y-47731071D02*
X85329857Y-46231071D01*
X84972714Y-46231071D01*
X84758428Y-46302500D01*
X84615571Y-46445357D01*
X84544142Y-46588214D01*
X84472714Y-46873928D01*
X84472714Y-47088214D01*
X84544142Y-47373928D01*
X84615571Y-47516785D01*
X84758428Y-47659642D01*
X84972714Y-47731071D01*
X85329857Y-47731071D01*
X102615571Y-48646071D02*
X102472714Y-48646071D01*
X102329857Y-48717500D01*
X102258428Y-48788928D01*
X102187000Y-48931785D01*
X102115571Y-49217500D01*
X102115571Y-49574642D01*
X102187000Y-49860357D01*
X102258428Y-50003214D01*
X102329857Y-50074642D01*
X102472714Y-50146071D01*
X102615571Y-50146071D01*
X102758428Y-50074642D01*
X102829857Y-50003214D01*
X102901285Y-49860357D01*
X102972714Y-49574642D01*
X102972714Y-49217500D01*
X102901285Y-48931785D01*
X102829857Y-48788928D01*
X102758428Y-48717500D01*
X102615571Y-48646071D01*
X101472714Y-49574642D02*
X100329857Y-49574642D01*
X98829857Y-50146071D02*
X99687000Y-50146071D01*
X99258428Y-50146071D02*
X99258428Y-48646071D01*
X99401285Y-48860357D01*
X99544142Y-49003214D01*
X99687000Y-49074642D01*
X98115571Y-50074642D02*
X98115571Y-50146071D01*
X98187000Y-50288928D01*
X98258428Y-50360357D01*
X96758428Y-48646071D02*
X97472714Y-48646071D01*
X97544142Y-49360357D01*
X97472714Y-49288928D01*
X97329857Y-49217500D01*
X96972714Y-49217500D01*
X96829857Y-49288928D01*
X96758428Y-49360357D01*
X96687000Y-49503214D01*
X96687000Y-49860357D01*
X96758428Y-50003214D01*
X96829857Y-50074642D01*
X96972714Y-50146071D01*
X97329857Y-50146071D01*
X97472714Y-50074642D01*
X97544142Y-50003214D01*
X96115571Y-49717500D02*
X95401285Y-49717500D01*
X96258428Y-50146071D02*
X95758428Y-48646071D01*
X95258428Y-50146071D01*
D10*
X101917142Y-86066380D02*
X101250476Y-86066380D01*
X101679047Y-87066380D01*
X100869523Y-86685428D02*
X100107619Y-86685428D01*
X99583809Y-87066380D02*
X99393333Y-87066380D01*
X99298095Y-87018761D01*
X99250476Y-86971142D01*
X99155238Y-86828285D01*
X99107619Y-86637809D01*
X99107619Y-86256857D01*
X99155238Y-86161619D01*
X99202857Y-86114000D01*
X99298095Y-86066380D01*
X99488571Y-86066380D01*
X99583809Y-86114000D01*
X99631428Y-86161619D01*
X99679047Y-86256857D01*
X99679047Y-86494952D01*
X99631428Y-86590190D01*
X99583809Y-86637809D01*
X99488571Y-86685428D01*
X99298095Y-86685428D01*
X99202857Y-86637809D01*
X99155238Y-86590190D01*
X99107619Y-86494952D01*
X98821904Y-86066380D02*
X98488571Y-87066380D01*
X98155238Y-86066380D01*
X97821904Y-87066380D02*
X97821904Y-86066380D01*
X97583809Y-86066380D01*
X97440952Y-86114000D01*
X97345714Y-86209238D01*
X97298095Y-86304476D01*
X97250476Y-86494952D01*
X97250476Y-86637809D01*
X97298095Y-86828285D01*
X97345714Y-86923523D01*
X97440952Y-87018761D01*
X97583809Y-87066380D01*
X97821904Y-87066380D01*
X96250476Y-86971142D02*
X96298095Y-87018761D01*
X96440952Y-87066380D01*
X96536190Y-87066380D01*
X96679047Y-87018761D01*
X96774285Y-86923523D01*
X96821904Y-86828285D01*
X96869523Y-86637809D01*
X96869523Y-86494952D01*
X96821904Y-86304476D01*
X96774285Y-86209238D01*
X96679047Y-86114000D01*
X96536190Y-86066380D01*
X96440952Y-86066380D01*
X96298095Y-86114000D01*
X96250476Y-86161619D01*
X102361904Y-90559000D02*
X102457142Y-90511380D01*
X102600000Y-90511380D01*
X102742857Y-90559000D01*
X102838095Y-90654238D01*
X102885714Y-90749476D01*
X102933333Y-90939952D01*
X102933333Y-91082809D01*
X102885714Y-91273285D01*
X102838095Y-91368523D01*
X102742857Y-91463761D01*
X102600000Y-91511380D01*
X102504761Y-91511380D01*
X102361904Y-91463761D01*
X102314285Y-91416142D01*
X102314285Y-91082809D01*
X102504761Y-91082809D01*
X101885714Y-91511380D02*
X101885714Y-90511380D01*
X101314285Y-91511380D01*
X101314285Y-90511380D01*
X100838095Y-91511380D02*
X100838095Y-90511380D01*
X100600000Y-90511380D01*
X100457142Y-90559000D01*
X100361904Y-90654238D01*
X100314285Y-90749476D01*
X100266666Y-90939952D01*
X100266666Y-91082809D01*
X100314285Y-91273285D01*
X100361904Y-91368523D01*
X100457142Y-91463761D01*
X100600000Y-91511380D01*
X100838095Y-91511380D01*
X106989523Y-91511380D02*
X107465714Y-91511380D01*
X107465714Y-90511380D01*
X106656190Y-91130428D02*
X105894285Y-91130428D01*
X106275238Y-91511380D02*
X106275238Y-90749476D01*
X86669523Y-91511380D02*
X87145714Y-91511380D01*
X87145714Y-90511380D01*
X86336190Y-91130428D02*
X85574285Y-91130428D01*
X85955238Y-91511380D02*
X85955238Y-90749476D01*
%LPC*%
D12*
X106680000Y-50729000D03*
D13*
X109220000Y-50729000D03*
X111760000Y-50729000D03*
D14*
X114300000Y-61468000D03*
D15*
X106680000Y-61468000D03*
D14*
X91480000Y-77724000D03*
D15*
X83860000Y-77724000D03*
D14*
X83860000Y-74676000D03*
D15*
X91480000Y-74676000D03*
D16*
X96545400Y-88823800D03*
D17*
X101625400Y-88823800D03*
D14*
X114300000Y-55372000D03*
D15*
X106680000Y-55372000D03*
D14*
X91440000Y-55372000D03*
D15*
X83820000Y-55372000D03*
D18*
X78740000Y-91948000D03*
D14*
X91440000Y-61468000D03*
D15*
X83820000Y-61468000D03*
D19*
X78740000Y-79756000D03*
X78740000Y-77216000D03*
X78740000Y-74676000D03*
D14*
X107990000Y-68072000D03*
X112990000Y-68072000D03*
X106680000Y-58420000D03*
D15*
X114300000Y-58420000D03*
D14*
X91480000Y-80772000D03*
D15*
X83860000Y-80772000D03*
D14*
X83860000Y-71628000D03*
D15*
X91480000Y-71628000D03*
D14*
X114300000Y-71628000D03*
D15*
X106680000Y-71628000D03*
D20*
X119380000Y-65460000D03*
X119380000Y-56460000D03*
D14*
X114300000Y-74676000D03*
D15*
X106680000Y-74676000D03*
D16*
X106680000Y-88823800D03*
D17*
X111760000Y-88823800D03*
D18*
X119380000Y-49276000D03*
D20*
X78740000Y-65460000D03*
X78740000Y-56460000D03*
D14*
X106680000Y-77724000D03*
D15*
X114300000Y-77724000D03*
D14*
X106680000Y-64516000D03*
D15*
X114300000Y-64516000D03*
D18*
X119380000Y-91948000D03*
X78740000Y-49276000D03*
D21*
X101188000Y-68326000D03*
D22*
X103258000Y-69596000D03*
X101188000Y-70866000D03*
D14*
X91440000Y-58420000D03*
D15*
X83820000Y-58420000D03*
D14*
X96012000Y-79756000D03*
X96012000Y-74756000D03*
X101560000Y-51816000D03*
X96560000Y-51816000D03*
X91440000Y-64516000D03*
D15*
X83820000Y-64516000D03*
D12*
X86360000Y-50729000D03*
D13*
X88900000Y-50729000D03*
X91440000Y-50729000D03*
D14*
X102108000Y-79756000D03*
X102108000Y-74756000D03*
X106680000Y-80772000D03*
D15*
X114300000Y-80772000D03*
D16*
X86360000Y-88823800D03*
D17*
X91440000Y-88823800D03*
D23*
X95235000Y-55880000D03*
D24*
X95235000Y-58420000D03*
X95235000Y-60960000D03*
X95235000Y-63500000D03*
X102855000Y-63500000D03*
X102855000Y-60960000D03*
X102855000Y-58420000D03*
X102855000Y-55880000D03*
D19*
X119380000Y-79756000D03*
X119380000Y-77216000D03*
X119380000Y-74676000D03*
D14*
X89876000Y-68072000D03*
X84876000Y-68072000D03*
D21*
X96932000Y-70866000D03*
D25*
X94862000Y-69596000D03*
X96932000Y-68326000D03*
M02*
